%TF.GenerationSoftware,KiCad,Pcbnew,8.0.8*%
%TF.CreationDate,2025-11-14T22:35:10+01:00*%
%TF.ProjectId,Pomiar pr_du,506f6d69-6172-4207-9072-0564752e6b69,rev?*%
%TF.SameCoordinates,Original*%
%TF.FileFunction,Legend,Top*%
%TF.FilePolarity,Positive*%
%FSLAX46Y46*%
G04 Gerber Fmt 4.6, Leading zero omitted, Abs format (unit mm)*
G04 Created by KiCad (PCBNEW 8.0.8) date 2025-11-14 22:35:10*
%MOMM*%
%LPD*%
G01*
G04 APERTURE LIST*
%ADD10C,0.000000*%
%ADD11C,0.700000*%
%ADD12C,0.150000*%
%ADD13C,0.070000*%
%ADD14C,0.100000*%
%ADD15C,0.120000*%
%ADD16C,0.152400*%
%ADD17C,0.508000*%
G04 APERTURE END LIST*
D10*
G36*
X137130268Y-77590476D02*
G01*
X137175401Y-77591498D01*
X137176119Y-77591565D01*
X137176853Y-77591713D01*
X137177602Y-77591940D01*
X137178362Y-77592241D01*
X137179132Y-77592614D01*
X137179911Y-77593053D01*
X137180696Y-77593557D01*
X137181486Y-77594121D01*
X137182278Y-77594742D01*
X137183070Y-77595417D01*
X137184648Y-77596911D01*
X137186205Y-77598575D01*
X137187724Y-77600381D01*
X137189191Y-77602301D01*
X137190589Y-77604306D01*
X137191904Y-77606367D01*
X137193119Y-77608457D01*
X137194219Y-77610546D01*
X137195189Y-77612607D01*
X137196012Y-77614610D01*
X137196674Y-77616528D01*
X137407970Y-78304973D01*
X137423723Y-78356063D01*
X137440137Y-78407228D01*
X137448791Y-78432862D01*
X137457850Y-78458542D01*
X137467394Y-78484278D01*
X137477502Y-78510078D01*
X137768174Y-77592027D01*
X137960738Y-77592027D01*
X137907186Y-77749084D01*
X137526345Y-78862398D01*
X137518583Y-78883990D01*
X137510340Y-78905328D01*
X137501587Y-78926387D01*
X137492297Y-78947138D01*
X137482440Y-78967555D01*
X137471988Y-78987610D01*
X137460913Y-79007276D01*
X137449186Y-79026526D01*
X137436778Y-79045332D01*
X137423662Y-79063668D01*
X137409809Y-79081506D01*
X137395190Y-79098819D01*
X137379777Y-79115580D01*
X137363542Y-79131761D01*
X137346455Y-79147336D01*
X137328489Y-79162277D01*
X137321445Y-79167737D01*
X137314268Y-79173038D01*
X137306967Y-79178197D01*
X137299550Y-79183235D01*
X137284406Y-79193021D01*
X137268905Y-79202546D01*
X137237108Y-79221421D01*
X137220952Y-79231073D01*
X137204717Y-79241070D01*
X137169818Y-79165902D01*
X137153684Y-79130356D01*
X137138412Y-79095178D01*
X137138242Y-79094677D01*
X137138134Y-79094127D01*
X137138088Y-79093532D01*
X137138101Y-79092895D01*
X137138170Y-79092221D01*
X137138294Y-79091511D01*
X137138468Y-79090771D01*
X137138692Y-79090002D01*
X137139277Y-79088394D01*
X137140029Y-79086715D01*
X137140929Y-79084992D01*
X137141958Y-79083253D01*
X137143096Y-79081524D01*
X137144323Y-79079832D01*
X137145621Y-79078206D01*
X137146970Y-79076672D01*
X137148350Y-79075257D01*
X137149743Y-79073989D01*
X137151129Y-79072894D01*
X137151813Y-79072421D01*
X137152488Y-79072001D01*
X137170793Y-79060918D01*
X137188375Y-79049210D01*
X137205247Y-79036889D01*
X137221428Y-79023969D01*
X137236932Y-79010462D01*
X137251776Y-78996381D01*
X137265976Y-78981740D01*
X137279548Y-78966551D01*
X137292507Y-78950828D01*
X137304871Y-78934583D01*
X137316655Y-78917829D01*
X137327875Y-78900580D01*
X137338547Y-78882849D01*
X137348687Y-78864648D01*
X137358311Y-78845991D01*
X137367436Y-78826891D01*
X137369035Y-78823242D01*
X137370457Y-78819633D01*
X137371702Y-78816055D01*
X137372767Y-78812499D01*
X137373651Y-78808956D01*
X137374352Y-78805416D01*
X137374870Y-78801873D01*
X137375201Y-78798315D01*
X137375345Y-78794736D01*
X137375301Y-78791125D01*
X137375066Y-78787475D01*
X137374639Y-78783775D01*
X137374019Y-78780018D01*
X137373203Y-78776194D01*
X137372191Y-78772295D01*
X137370981Y-78768312D01*
X136997125Y-77606844D01*
X136996611Y-77605144D01*
X136996129Y-77603401D01*
X136995663Y-77601585D01*
X136995194Y-77599667D01*
X136994178Y-77595406D01*
X136992945Y-77590386D01*
X137084927Y-77590188D01*
X137130268Y-77590476D01*
G37*
G36*
X145915673Y-74151121D02*
G01*
X145921040Y-74179114D01*
X145923944Y-74193329D01*
X145927023Y-74207583D01*
X145933553Y-74234933D01*
X145940950Y-74261945D01*
X145949322Y-74288575D01*
X145953909Y-74301733D01*
X145958780Y-74314779D01*
X145963949Y-74327707D01*
X145969430Y-74340511D01*
X145975237Y-74353187D01*
X145981383Y-74365728D01*
X145987881Y-74378129D01*
X145994745Y-74390384D01*
X146001989Y-74402488D01*
X146009626Y-74414434D01*
X146016351Y-74424306D01*
X146023314Y-74433869D01*
X146030524Y-74443104D01*
X146037988Y-74451995D01*
X146045715Y-74460526D01*
X146053711Y-74468679D01*
X146061986Y-74476436D01*
X146070547Y-74483782D01*
X146079402Y-74490698D01*
X146088558Y-74497168D01*
X146098025Y-74503175D01*
X146107809Y-74508702D01*
X146117918Y-74513731D01*
X146128361Y-74518246D01*
X146139146Y-74522230D01*
X146150279Y-74525665D01*
X146138792Y-74532928D01*
X146127008Y-74540040D01*
X146103130Y-74554346D01*
X146091328Y-74561804D01*
X146085524Y-74565668D01*
X146079809Y-74569644D01*
X146074201Y-74573748D01*
X146068719Y-74577996D01*
X146063381Y-74582407D01*
X146058204Y-74586995D01*
X146044405Y-74600463D01*
X146031608Y-74614471D01*
X146019757Y-74628989D01*
X146008799Y-74643985D01*
X145998679Y-74659426D01*
X145989342Y-74675282D01*
X145980735Y-74691520D01*
X145972803Y-74708108D01*
X145965492Y-74725016D01*
X145958747Y-74742210D01*
X145952514Y-74759659D01*
X145946739Y-74777332D01*
X145941367Y-74795196D01*
X145936345Y-74813220D01*
X145927129Y-74849620D01*
X145903369Y-74964238D01*
X145897986Y-74931732D01*
X145892073Y-74899375D01*
X145885448Y-74867217D01*
X145877930Y-74835307D01*
X145869334Y-74803694D01*
X145864576Y-74788015D01*
X145859480Y-74772428D01*
X145854024Y-74756941D01*
X145848184Y-74741560D01*
X145841939Y-74726290D01*
X145835265Y-74711138D01*
X145827981Y-74695698D01*
X145820324Y-74680620D01*
X145812253Y-74665939D01*
X145803722Y-74651696D01*
X145794689Y-74637928D01*
X145785109Y-74624673D01*
X145774938Y-74611969D01*
X145764133Y-74599855D01*
X145752649Y-74588368D01*
X145740443Y-74577547D01*
X145727471Y-74567429D01*
X145713688Y-74558054D01*
X145699052Y-74549459D01*
X145683518Y-74541681D01*
X145667043Y-74534761D01*
X145649581Y-74528735D01*
X145659979Y-74525289D01*
X145670034Y-74521556D01*
X145679754Y-74517542D01*
X145689146Y-74513253D01*
X145698217Y-74508697D01*
X145706976Y-74503880D01*
X145715430Y-74498810D01*
X145723586Y-74493494D01*
X145731452Y-74487937D01*
X145739035Y-74482148D01*
X145746344Y-74476132D01*
X145753384Y-74469897D01*
X145766693Y-74456798D01*
X145779022Y-74442904D01*
X145790432Y-74428271D01*
X145800982Y-74412954D01*
X145810732Y-74397007D01*
X145819744Y-74380487D01*
X145828077Y-74363447D01*
X145835792Y-74345944D01*
X145842948Y-74328032D01*
X145849606Y-74309765D01*
X145858327Y-74283424D01*
X145866257Y-74256862D01*
X145873555Y-74230191D01*
X145880377Y-74203522D01*
X145893228Y-74150638D01*
X145906069Y-74099104D01*
X145915673Y-74151121D01*
G37*
G36*
X142852756Y-75498320D02*
G01*
X142868349Y-75498855D01*
X142883910Y-75499794D01*
X142899439Y-75501152D01*
X142914934Y-75502946D01*
X142930394Y-75505189D01*
X142945816Y-75507897D01*
X142961199Y-75511085D01*
X142976542Y-75514769D01*
X142991844Y-75518964D01*
X143005202Y-75523094D01*
X143018172Y-75527583D01*
X143030759Y-75532426D01*
X143042966Y-75537620D01*
X143054798Y-75543159D01*
X143066258Y-75549039D01*
X143077350Y-75555255D01*
X143088078Y-75561802D01*
X143098447Y-75568677D01*
X143108460Y-75575874D01*
X143118121Y-75583389D01*
X143127434Y-75591217D01*
X143136404Y-75599354D01*
X143145033Y-75607795D01*
X143161289Y-75625571D01*
X143176233Y-75644508D01*
X143189898Y-75664571D01*
X143202315Y-75685721D01*
X143213515Y-75707923D01*
X143223532Y-75731140D01*
X143232396Y-75755335D01*
X143240140Y-75780471D01*
X143246796Y-75806512D01*
X143251214Y-75826902D01*
X143255020Y-75847335D01*
X143258236Y-75867815D01*
X143260883Y-75888348D01*
X143262984Y-75908937D01*
X143264562Y-75929587D01*
X143265638Y-75950304D01*
X143266235Y-75971091D01*
X143266079Y-76012894D01*
X143264274Y-76055034D01*
X143260997Y-76097547D01*
X143256425Y-76140470D01*
X142549617Y-76140470D01*
X142548212Y-76170895D01*
X142548990Y-76200902D01*
X142551971Y-76230328D01*
X142557173Y-76259008D01*
X142564617Y-76286781D01*
X142569185Y-76300275D01*
X142574320Y-76313481D01*
X142580025Y-76326378D01*
X142586302Y-76338946D01*
X142593154Y-76351163D01*
X142600583Y-76363011D01*
X142608591Y-76374468D01*
X142617180Y-76385514D01*
X142626354Y-76396128D01*
X142636115Y-76406291D01*
X142646464Y-76415980D01*
X142657405Y-76425177D01*
X142668939Y-76433861D01*
X142681070Y-76442011D01*
X142693799Y-76449606D01*
X142707129Y-76456627D01*
X142721062Y-76463053D01*
X142735601Y-76468863D01*
X142750747Y-76474037D01*
X142766505Y-76478555D01*
X142782875Y-76482396D01*
X142799860Y-76485539D01*
X142824338Y-76489073D01*
X142848756Y-76491794D01*
X142873118Y-76493729D01*
X142897426Y-76494906D01*
X142921681Y-76495352D01*
X142945887Y-76495093D01*
X142970045Y-76494157D01*
X142994158Y-76492571D01*
X143018226Y-76490361D01*
X143042254Y-76487555D01*
X143066243Y-76484180D01*
X143090195Y-76480263D01*
X143137996Y-76470912D01*
X143185676Y-76459716D01*
X143192563Y-76457949D01*
X143199811Y-76456018D01*
X143216844Y-76451408D01*
X143217036Y-76530909D01*
X143216777Y-76569615D01*
X143216414Y-76588827D01*
X143215839Y-76607989D01*
X143215776Y-76608613D01*
X143215641Y-76609255D01*
X143215436Y-76609913D01*
X143215164Y-76610583D01*
X143214829Y-76611265D01*
X143214434Y-76611956D01*
X143213982Y-76612653D01*
X143213476Y-76613356D01*
X143212921Y-76614061D01*
X143212318Y-76614766D01*
X143210984Y-76616171D01*
X143209501Y-76617554D01*
X143207895Y-76618896D01*
X143206191Y-76620182D01*
X143204416Y-76621395D01*
X143202595Y-76622518D01*
X143200755Y-76623534D01*
X143198921Y-76624426D01*
X143197120Y-76625178D01*
X143196240Y-76625495D01*
X143195378Y-76625772D01*
X143194537Y-76626005D01*
X143193720Y-76626192D01*
X143101539Y-76645586D01*
X143078419Y-76649966D01*
X143055250Y-76653799D01*
X143032021Y-76656906D01*
X143020381Y-76658130D01*
X143008723Y-76659106D01*
X142964095Y-76662027D01*
X142919474Y-76663980D01*
X142874924Y-76664456D01*
X142852697Y-76663979D01*
X142830513Y-76662942D01*
X142808379Y-76661279D01*
X142786304Y-76658928D01*
X142764297Y-76655823D01*
X142742365Y-76651902D01*
X142720517Y-76647101D01*
X142698761Y-76641355D01*
X142677105Y-76634600D01*
X142655557Y-76626774D01*
X142632399Y-76617054D01*
X142610251Y-76606355D01*
X142589114Y-76594687D01*
X142568986Y-76582060D01*
X142549869Y-76568482D01*
X142531761Y-76553964D01*
X142514663Y-76538515D01*
X142498573Y-76522144D01*
X142483493Y-76504863D01*
X142469421Y-76486679D01*
X142456358Y-76467603D01*
X142444303Y-76447644D01*
X142433256Y-76426812D01*
X142423217Y-76405117D01*
X142414186Y-76382567D01*
X142406162Y-76359174D01*
X142395510Y-76323190D01*
X142386242Y-76287157D01*
X142378363Y-76251082D01*
X142371880Y-76214971D01*
X142366799Y-76178831D01*
X142363126Y-76142668D01*
X142360868Y-76106489D01*
X142360031Y-76070302D01*
X142360622Y-76034112D01*
X142362647Y-75997926D01*
X142365633Y-75966745D01*
X142545384Y-75966745D01*
X143089314Y-75966745D01*
X143087365Y-75927976D01*
X143085807Y-75908846D01*
X143083714Y-75889962D01*
X143080976Y-75871384D01*
X143077484Y-75853168D01*
X143073130Y-75835373D01*
X143067804Y-75818056D01*
X143061396Y-75801276D01*
X143053797Y-75785089D01*
X143044899Y-75769556D01*
X143034590Y-75754732D01*
X143028874Y-75747604D01*
X143022764Y-75740676D01*
X143016247Y-75733954D01*
X143009309Y-75727446D01*
X143001937Y-75721159D01*
X142994117Y-75715100D01*
X142985835Y-75709277D01*
X142977078Y-75703696D01*
X142958390Y-75693184D01*
X142939528Y-75684177D01*
X142920518Y-75676658D01*
X142901385Y-75670608D01*
X142882153Y-75666007D01*
X142862849Y-75662838D01*
X142843497Y-75661083D01*
X142824123Y-75660721D01*
X142804751Y-75661736D01*
X142785406Y-75664109D01*
X142766115Y-75667820D01*
X142746901Y-75672852D01*
X142727790Y-75679185D01*
X142708807Y-75686803D01*
X142689977Y-75695685D01*
X142671326Y-75705813D01*
X142662431Y-75711216D01*
X142653975Y-75716865D01*
X142645946Y-75722752D01*
X142638333Y-75728871D01*
X142631122Y-75735215D01*
X142624303Y-75741777D01*
X142617864Y-75748550D01*
X142611792Y-75755528D01*
X142606075Y-75762704D01*
X142600702Y-75770071D01*
X142595661Y-75777622D01*
X142590940Y-75785351D01*
X142586527Y-75793250D01*
X142582411Y-75801313D01*
X142575018Y-75817904D01*
X142568667Y-75835069D01*
X142563262Y-75852754D01*
X142558710Y-75870905D01*
X142554913Y-75889467D01*
X142551777Y-75908386D01*
X142549207Y-75927609D01*
X142547108Y-75947080D01*
X142545384Y-75966745D01*
X142365633Y-75966745D01*
X142366112Y-75961751D01*
X142371023Y-75925593D01*
X142377388Y-75889460D01*
X142385211Y-75853357D01*
X142394501Y-75817292D01*
X142405262Y-75781271D01*
X142415786Y-75751502D01*
X142427764Y-75723410D01*
X142434296Y-75709993D01*
X142441189Y-75696993D01*
X142448440Y-75684412D01*
X142456049Y-75672248D01*
X142464014Y-75660501D01*
X142472335Y-75649171D01*
X142481010Y-75638258D01*
X142490038Y-75627760D01*
X142499418Y-75617679D01*
X142509148Y-75608012D01*
X142519228Y-75598761D01*
X142529656Y-75589924D01*
X142540431Y-75581502D01*
X142551551Y-75573493D01*
X142563016Y-75565898D01*
X142574825Y-75558716D01*
X142586975Y-75551947D01*
X142599467Y-75545590D01*
X142612298Y-75539645D01*
X142625468Y-75534112D01*
X142652819Y-75524280D01*
X142681509Y-75516089D01*
X142711529Y-75509538D01*
X142742870Y-75504623D01*
X142774383Y-75501180D01*
X142805808Y-75498991D01*
X142821484Y-75498403D01*
X142837134Y-75498175D01*
X142852756Y-75498320D01*
G37*
G36*
X137437127Y-75875464D02*
G01*
X137794738Y-75875464D01*
X137794738Y-75590613D01*
X137904804Y-75590613D01*
X137904804Y-76268952D01*
X137796748Y-76268952D01*
X137796748Y-75976112D01*
X137438238Y-75976112D01*
X137438238Y-76268476D01*
X137328171Y-76268476D01*
X137328119Y-75589502D01*
X137437127Y-75589502D01*
X137437127Y-75875464D01*
G37*
G36*
X145197725Y-75309644D02*
G01*
X145261667Y-75381058D01*
X145324218Y-75453276D01*
X145385447Y-75526300D01*
X145445427Y-75600130D01*
X145504227Y-75674767D01*
X145561918Y-75750211D01*
X145618572Y-75826463D01*
X145736063Y-75992389D01*
X145847831Y-76161525D01*
X145954048Y-76333766D01*
X146054889Y-76509009D01*
X146150529Y-76687149D01*
X146241142Y-76868081D01*
X146326901Y-77051703D01*
X146407982Y-77237909D01*
X146476012Y-77404884D01*
X146540288Y-77573100D01*
X146600814Y-77742543D01*
X146657597Y-77913198D01*
X146710641Y-78085051D01*
X146759953Y-78258088D01*
X146805538Y-78432294D01*
X146847402Y-78607656D01*
X146881857Y-78763612D01*
X146914639Y-78919944D01*
X146946083Y-79076555D01*
X146976519Y-79233344D01*
X146984676Y-79277903D01*
X146992179Y-79322585D01*
X147005795Y-79412208D01*
X147031500Y-79591747D01*
X147031595Y-79592464D01*
X147031663Y-79593187D01*
X147031701Y-79593914D01*
X147031707Y-79594647D01*
X147031679Y-79595386D01*
X147031616Y-79596132D01*
X147031515Y-79596883D01*
X147031374Y-79597641D01*
X147031192Y-79598406D01*
X147030966Y-79599178D01*
X147030695Y-79599958D01*
X147030376Y-79600744D01*
X147030009Y-79601539D01*
X147029589Y-79602342D01*
X147029117Y-79603153D01*
X147028590Y-79603972D01*
X146961968Y-79306580D01*
X146915479Y-79108991D01*
X146865886Y-78912334D01*
X146813041Y-78716653D01*
X146756796Y-78521991D01*
X146697005Y-78328394D01*
X146633519Y-78135906D01*
X146566190Y-77944569D01*
X146494872Y-77754429D01*
X146394525Y-77506415D01*
X146286906Y-77262396D01*
X146171700Y-77022553D01*
X146048593Y-76787066D01*
X145917268Y-76556116D01*
X145777409Y-76329883D01*
X145628701Y-76108548D01*
X145550930Y-75999773D01*
X145470828Y-75892291D01*
X145432235Y-75842527D01*
X145392828Y-75793386D01*
X145352802Y-75744714D01*
X145312356Y-75696360D01*
X145230992Y-75600000D01*
X145150312Y-75503089D01*
X145148466Y-75500695D01*
X145146699Y-75498168D01*
X145145018Y-75495519D01*
X145143426Y-75492762D01*
X145141929Y-75489910D01*
X145140530Y-75486976D01*
X145139235Y-75483974D01*
X145138049Y-75480917D01*
X145136975Y-75477817D01*
X145136018Y-75474689D01*
X145135184Y-75471544D01*
X145134477Y-75468397D01*
X145133901Y-75465261D01*
X145133461Y-75462148D01*
X145133162Y-75459072D01*
X145133009Y-75456046D01*
X145132142Y-75402858D01*
X145131990Y-75349227D01*
X145132321Y-75239035D01*
X145197725Y-75309644D01*
G37*
G36*
X136475568Y-77587987D02*
G01*
X136494184Y-77588474D01*
X136512803Y-77589358D01*
X136550036Y-77592250D01*
X136587232Y-77596526D01*
X136614790Y-77600518D01*
X136642271Y-77605106D01*
X136669691Y-77610164D01*
X136697067Y-77615562D01*
X136806466Y-77638012D01*
X136808029Y-77638342D01*
X136809585Y-77638713D01*
X136811132Y-77639122D01*
X136812672Y-77639563D01*
X136815732Y-77640528D01*
X136818769Y-77641571D01*
X136824787Y-77643757D01*
X136827775Y-77644830D01*
X136830755Y-77645844D01*
X136830755Y-77827400D01*
X136788469Y-77815589D01*
X136746511Y-77803594D01*
X136725565Y-77797837D01*
X136704593Y-77792403D01*
X136683559Y-77787418D01*
X136662427Y-77783003D01*
X136622392Y-77775712D01*
X136582300Y-77769583D01*
X136562233Y-77767078D01*
X136542152Y-77765013D01*
X136522058Y-77763436D01*
X136501950Y-77762399D01*
X136481830Y-77761950D01*
X136461696Y-77762139D01*
X136441551Y-77763016D01*
X136421392Y-77764630D01*
X136401222Y-77767032D01*
X136381040Y-77770271D01*
X136360846Y-77774396D01*
X136340641Y-77779458D01*
X136328847Y-77783054D01*
X136317726Y-77787150D01*
X136307268Y-77791721D01*
X136297461Y-77796745D01*
X136288293Y-77802196D01*
X136279754Y-77808053D01*
X136271831Y-77814290D01*
X136264513Y-77820884D01*
X136257790Y-77827812D01*
X136251649Y-77835050D01*
X136246080Y-77842574D01*
X136241071Y-77850361D01*
X136236610Y-77858386D01*
X136232687Y-77866626D01*
X136229289Y-77875058D01*
X136226407Y-77883658D01*
X136224027Y-77892401D01*
X136222139Y-77901265D01*
X136220732Y-77910225D01*
X136219794Y-77919259D01*
X136219314Y-77928341D01*
X136219280Y-77937450D01*
X136219681Y-77946560D01*
X136220506Y-77955648D01*
X136221744Y-77964691D01*
X136223382Y-77973664D01*
X136225410Y-77982545D01*
X136227817Y-77991309D01*
X136230590Y-77999933D01*
X136233719Y-78008393D01*
X136237192Y-78016665D01*
X136240998Y-78024726D01*
X136243154Y-78028864D01*
X136245421Y-78032845D01*
X136247799Y-78036671D01*
X136250283Y-78040345D01*
X136252873Y-78043867D01*
X136255564Y-78047241D01*
X136258356Y-78050467D01*
X136261244Y-78053549D01*
X136264227Y-78056487D01*
X136267303Y-78059285D01*
X136270468Y-78061943D01*
X136273720Y-78064465D01*
X136277057Y-78066851D01*
X136280477Y-78069104D01*
X136283976Y-78071225D01*
X136287552Y-78073218D01*
X136291203Y-78075083D01*
X136294926Y-78076823D01*
X136298719Y-78078440D01*
X136302579Y-78079935D01*
X136306504Y-78081311D01*
X136310491Y-78082569D01*
X136318642Y-78084741D01*
X136327012Y-78086467D01*
X136335580Y-78087763D01*
X136344328Y-78088643D01*
X136353235Y-78089125D01*
X136375133Y-78089571D01*
X136397048Y-78089627D01*
X136440891Y-78089212D01*
X136462802Y-78089061D01*
X136484695Y-78089163D01*
X136506560Y-78089678D01*
X136528389Y-78090766D01*
X136546296Y-78092136D01*
X136564235Y-78093850D01*
X136582166Y-78095944D01*
X136600051Y-78098452D01*
X136617852Y-78101413D01*
X136635530Y-78104860D01*
X136653047Y-78108831D01*
X136670364Y-78113361D01*
X136682055Y-78116908D01*
X136693328Y-78120845D01*
X136704191Y-78125161D01*
X136714648Y-78129845D01*
X136724707Y-78134888D01*
X136734373Y-78140277D01*
X136743652Y-78146003D01*
X136752550Y-78152055D01*
X136761074Y-78158423D01*
X136769230Y-78165096D01*
X136777023Y-78172063D01*
X136784459Y-78179313D01*
X136791546Y-78186837D01*
X136798288Y-78194623D01*
X136804693Y-78202661D01*
X136810765Y-78210940D01*
X136816512Y-78219450D01*
X136821939Y-78228180D01*
X136827052Y-78237120D01*
X136831857Y-78246258D01*
X136840570Y-78265089D01*
X136848124Y-78284589D01*
X136854571Y-78304672D01*
X136859957Y-78325253D01*
X136864331Y-78346249D01*
X136867743Y-78367574D01*
X136870601Y-78391660D01*
X136872493Y-78415693D01*
X136873054Y-78427687D01*
X136873346Y-78439664D01*
X136873358Y-78451624D01*
X136873081Y-78463564D01*
X136872506Y-78475485D01*
X136871624Y-78487385D01*
X136870424Y-78499263D01*
X136868897Y-78511118D01*
X136867033Y-78522949D01*
X136864824Y-78534755D01*
X136862259Y-78546534D01*
X136859330Y-78558286D01*
X136856211Y-78569294D01*
X136852792Y-78579989D01*
X136849075Y-78590372D01*
X136845065Y-78600448D01*
X136840765Y-78610219D01*
X136836179Y-78619690D01*
X136831311Y-78628863D01*
X136826165Y-78637742D01*
X136820744Y-78646331D01*
X136815052Y-78654633D01*
X136809093Y-78662650D01*
X136802871Y-78670388D01*
X136796389Y-78677848D01*
X136789651Y-78685035D01*
X136775424Y-78698601D01*
X136760218Y-78711113D01*
X136744065Y-78722600D01*
X136726994Y-78733087D01*
X136709036Y-78742602D01*
X136690220Y-78751172D01*
X136670577Y-78758825D01*
X136650137Y-78765587D01*
X136628930Y-78771487D01*
X136610545Y-78775871D01*
X136592122Y-78779688D01*
X136573666Y-78782956D01*
X136555179Y-78785692D01*
X136536664Y-78787914D01*
X136518127Y-78789639D01*
X136499569Y-78790884D01*
X136480995Y-78791668D01*
X136462408Y-78792007D01*
X136443811Y-78791918D01*
X136406603Y-78790529D01*
X136369399Y-78787641D01*
X136332227Y-78783393D01*
X136304294Y-78779355D01*
X136276442Y-78774712D01*
X136248653Y-78769597D01*
X136220910Y-78764145D01*
X136110030Y-78741642D01*
X136106785Y-78740929D01*
X136103778Y-78740075D01*
X136102361Y-78739592D01*
X136101003Y-78739072D01*
X136099703Y-78738512D01*
X136098460Y-78737913D01*
X136097274Y-78737273D01*
X136096144Y-78736591D01*
X136095071Y-78735867D01*
X136094054Y-78735099D01*
X136093092Y-78734287D01*
X136092186Y-78733429D01*
X136091334Y-78732526D01*
X136090536Y-78731575D01*
X136089793Y-78730576D01*
X136089104Y-78729528D01*
X136088468Y-78728430D01*
X136087885Y-78727281D01*
X136087354Y-78726081D01*
X136086876Y-78724828D01*
X136086450Y-78723521D01*
X136086076Y-78722160D01*
X136085753Y-78720744D01*
X136085480Y-78719272D01*
X136085258Y-78717742D01*
X136085087Y-78716154D01*
X136084965Y-78714507D01*
X136084892Y-78712801D01*
X136084894Y-78709204D01*
X136085510Y-78669952D01*
X136085576Y-78630530D01*
X136085265Y-78550190D01*
X136122541Y-78561205D01*
X136158687Y-78572117D01*
X136176503Y-78577315D01*
X136194237Y-78582225D01*
X136211956Y-78586759D01*
X136229727Y-78590830D01*
X136269580Y-78598937D01*
X136309498Y-78606028D01*
X136349505Y-78611736D01*
X136369548Y-78613957D01*
X136389622Y-78615694D01*
X136409728Y-78616903D01*
X136429870Y-78617537D01*
X136450050Y-78617550D01*
X136470271Y-78616897D01*
X136490536Y-78615532D01*
X136510847Y-78613409D01*
X136531207Y-78610482D01*
X136551619Y-78606706D01*
X136563684Y-78603932D01*
X136575149Y-78600711D01*
X136586021Y-78597058D01*
X136596307Y-78592990D01*
X136606017Y-78588521D01*
X136615157Y-78583668D01*
X136623734Y-78578446D01*
X136631758Y-78572871D01*
X136639234Y-78566959D01*
X136646172Y-78560725D01*
X136652578Y-78554184D01*
X136658460Y-78547354D01*
X136663827Y-78540249D01*
X136668685Y-78532884D01*
X136673042Y-78525277D01*
X136676906Y-78517442D01*
X136680285Y-78509395D01*
X136683186Y-78501151D01*
X136685617Y-78492728D01*
X136687586Y-78484139D01*
X136689100Y-78475401D01*
X136690166Y-78466530D01*
X136690794Y-78457540D01*
X136690990Y-78448449D01*
X136690761Y-78439271D01*
X136690116Y-78430023D01*
X136689063Y-78420719D01*
X136687608Y-78411377D01*
X136685760Y-78402010D01*
X136683526Y-78392635D01*
X136680914Y-78383269D01*
X136677932Y-78373925D01*
X136676217Y-78369223D01*
X136674312Y-78364635D01*
X136672219Y-78360163D01*
X136669944Y-78355809D01*
X136667492Y-78351574D01*
X136664865Y-78347462D01*
X136662070Y-78343474D01*
X136659110Y-78339613D01*
X136655989Y-78335881D01*
X136652713Y-78332280D01*
X136649285Y-78328812D01*
X136645710Y-78325479D01*
X136641993Y-78322284D01*
X136638137Y-78319229D01*
X136634148Y-78316316D01*
X136630029Y-78313547D01*
X136625785Y-78310924D01*
X136621421Y-78308450D01*
X136616940Y-78306126D01*
X136612348Y-78303956D01*
X136607648Y-78301940D01*
X136602846Y-78300082D01*
X136597945Y-78298383D01*
X136592951Y-78296846D01*
X136587866Y-78295473D01*
X136582697Y-78294266D01*
X136577446Y-78293227D01*
X136572120Y-78292359D01*
X136566721Y-78291663D01*
X136561255Y-78291142D01*
X136555726Y-78290798D01*
X136550138Y-78290633D01*
X136528599Y-78290529D01*
X136507048Y-78290679D01*
X136463943Y-78291196D01*
X136442405Y-78291288D01*
X136420888Y-78291087D01*
X136399399Y-78290456D01*
X136377947Y-78289258D01*
X136359650Y-78287865D01*
X136341278Y-78286202D01*
X136322900Y-78284172D01*
X136304584Y-78281677D01*
X136286400Y-78278623D01*
X136268417Y-78274911D01*
X136259522Y-78272778D01*
X136250702Y-78270445D01*
X136241967Y-78267899D01*
X136233325Y-78265128D01*
X136223054Y-78261471D01*
X136213123Y-78257519D01*
X136203529Y-78253276D01*
X136194268Y-78248748D01*
X136185337Y-78243941D01*
X136176733Y-78238860D01*
X136168451Y-78233510D01*
X136160489Y-78227897D01*
X136152843Y-78222027D01*
X136145509Y-78215904D01*
X136138484Y-78209534D01*
X136131765Y-78202923D01*
X136125348Y-78196075D01*
X136119229Y-78188997D01*
X136113406Y-78181694D01*
X136107873Y-78174171D01*
X136102629Y-78166434D01*
X136097670Y-78158487D01*
X136092991Y-78150337D01*
X136088590Y-78141989D01*
X136080607Y-78124720D01*
X136073692Y-78106723D01*
X136067818Y-78088042D01*
X136062957Y-78068720D01*
X136059080Y-78048800D01*
X136056161Y-78028326D01*
X136053732Y-78004656D01*
X136052028Y-77980772D01*
X136051091Y-77956756D01*
X136050961Y-77932692D01*
X136051680Y-77908663D01*
X136053288Y-77884751D01*
X136055826Y-77861040D01*
X136059336Y-77837614D01*
X136061597Y-77825779D01*
X136064240Y-77814284D01*
X136067258Y-77803125D01*
X136070646Y-77792298D01*
X136074396Y-77781799D01*
X136078504Y-77771625D01*
X136082962Y-77761772D01*
X136087765Y-77752235D01*
X136092907Y-77743012D01*
X136098381Y-77734099D01*
X136104181Y-77725492D01*
X136110302Y-77717187D01*
X136116736Y-77709180D01*
X136123479Y-77701468D01*
X136130524Y-77694047D01*
X136137864Y-77686914D01*
X136145494Y-77680064D01*
X136153407Y-77673494D01*
X136170059Y-77661178D01*
X136187772Y-77649936D01*
X136206497Y-77639739D01*
X136226184Y-77630557D01*
X136246784Y-77622360D01*
X136268248Y-77615119D01*
X136290529Y-77608802D01*
X136308878Y-77604360D01*
X136327274Y-77600489D01*
X136345710Y-77597171D01*
X136364184Y-77594390D01*
X136382690Y-77592126D01*
X136401225Y-77590365D01*
X136419785Y-77589087D01*
X136438364Y-77588277D01*
X136456960Y-77587916D01*
X136475568Y-77587987D01*
G37*
G36*
X144562325Y-72118680D02*
G01*
X144566049Y-72129890D01*
X144573103Y-72150837D01*
X144576319Y-72160780D01*
X144579254Y-72170505D01*
X144581849Y-72180115D01*
X144584050Y-72189711D01*
X144636146Y-72440563D01*
X144661307Y-72566157D01*
X144684750Y-72692049D01*
X144701725Y-72794650D01*
X144716804Y-72897584D01*
X144730515Y-73000726D01*
X144743382Y-73103952D01*
X144753849Y-73195727D01*
X144763146Y-73287646D01*
X144780371Y-73471617D01*
X144798085Y-73663162D01*
X144814608Y-73854787D01*
X144818531Y-73907963D01*
X144821818Y-73961189D01*
X144827996Y-74067670D01*
X144849957Y-74419619D01*
X144853866Y-74487730D01*
X144855545Y-74521797D01*
X144856942Y-74555880D01*
X144863722Y-74741174D01*
X144869430Y-74926508D01*
X144885675Y-75533389D01*
X144892617Y-75836837D01*
X144896841Y-76140311D01*
X144897986Y-76490720D01*
X144896755Y-76841139D01*
X144891549Y-77541967D01*
X144890000Y-77680000D01*
X144887454Y-77818027D01*
X144881018Y-78094047D01*
X144863344Y-78785403D01*
X144863317Y-78788443D01*
X144863375Y-78791506D01*
X144863516Y-78794586D01*
X144863739Y-78797678D01*
X144864043Y-78800778D01*
X144864428Y-78803878D01*
X144864892Y-78806975D01*
X144865434Y-78810062D01*
X144866052Y-78813135D01*
X144866747Y-78816187D01*
X144867516Y-78819213D01*
X144868359Y-78822209D01*
X144869275Y-78825167D01*
X144870262Y-78828084D01*
X144871319Y-78830953D01*
X144872446Y-78833769D01*
X145035217Y-79221199D01*
X145116300Y-79415032D01*
X145196401Y-79609263D01*
X145199691Y-79617822D01*
X145202653Y-79626526D01*
X145205315Y-79635359D01*
X145207707Y-79644309D01*
X145209857Y-79653362D01*
X145211792Y-79662503D01*
X145215134Y-79680998D01*
X145217959Y-79699684D01*
X145220496Y-79718450D01*
X145225611Y-79755788D01*
X145236199Y-79827922D01*
X145246335Y-79900145D01*
X145265987Y-80044661D01*
X145270688Y-80080566D01*
X145275260Y-80117394D01*
X145284931Y-80197114D01*
X144821593Y-79811352D01*
X144821593Y-80004762D01*
X144821466Y-80026272D01*
X144821165Y-80035009D01*
X144820578Y-80042524D01*
X144820148Y-80045852D01*
X144819611Y-80048909D01*
X144818955Y-80051708D01*
X144818169Y-80054259D01*
X144817240Y-80056575D01*
X144816156Y-80058666D01*
X144814905Y-80060545D01*
X144813477Y-80062223D01*
X144811858Y-80063711D01*
X144810037Y-80065022D01*
X144808002Y-80066167D01*
X144805741Y-80067157D01*
X144803242Y-80068005D01*
X144800494Y-80068721D01*
X144797484Y-80069318D01*
X144794201Y-80069807D01*
X144786766Y-80070507D01*
X144778095Y-80070915D01*
X144756664Y-80071225D01*
X144269566Y-80072495D01*
X144267755Y-80072469D01*
X144265916Y-80072397D01*
X144264020Y-80072286D01*
X144262038Y-80072145D01*
X144257704Y-80071803D01*
X144252685Y-80071436D01*
X144252685Y-79812991D01*
X144196858Y-79860186D01*
X144145000Y-79904325D01*
X143807444Y-80194468D01*
X143806922Y-80194929D01*
X143806424Y-80195419D01*
X143805949Y-80195934D01*
X143805493Y-80196472D01*
X143805055Y-80197030D01*
X143804632Y-80197604D01*
X143804221Y-80198193D01*
X143803820Y-80198794D01*
X143803037Y-80200018D01*
X143802265Y-80201254D01*
X143801483Y-80202481D01*
X143801082Y-80203083D01*
X143800671Y-80203675D01*
X143799950Y-80203728D01*
X143799218Y-80203768D01*
X143798477Y-80203796D01*
X143797729Y-80203815D01*
X143796231Y-80203833D01*
X143794747Y-80203835D01*
X143807301Y-80090925D01*
X143813692Y-80034484D01*
X143820411Y-79978093D01*
X143823865Y-79952140D01*
X143827673Y-79926221D01*
X143835604Y-79874429D01*
X143839355Y-79848525D01*
X143842713Y-79822597D01*
X143845491Y-79796629D01*
X143847504Y-79770606D01*
X143848777Y-79753794D01*
X143850558Y-79737161D01*
X143852824Y-79720697D01*
X143855554Y-79704390D01*
X143858725Y-79688228D01*
X143862316Y-79672198D01*
X143866304Y-79656290D01*
X143870668Y-79640491D01*
X143880434Y-79609173D01*
X143891438Y-79578149D01*
X143903504Y-79547325D01*
X143916454Y-79516606D01*
X144061631Y-79177734D01*
X144204268Y-78837791D01*
X144206123Y-78833018D01*
X144207783Y-78828135D01*
X144209259Y-78823151D01*
X144210560Y-78818079D01*
X144211696Y-78812930D01*
X144212675Y-78807716D01*
X144213507Y-78802448D01*
X144214203Y-78797137D01*
X144214771Y-78791796D01*
X144215220Y-78786435D01*
X144215802Y-78775700D01*
X144216024Y-78765024D01*
X144215962Y-78754500D01*
X144205273Y-78300422D01*
X144200650Y-78049591D01*
X144197176Y-77798719D01*
X144194127Y-77485472D01*
X144192626Y-77172186D01*
X144192633Y-76662863D01*
X144194584Y-76153540D01*
X144196240Y-76002142D01*
X144198982Y-75850758D01*
X144206278Y-75548015D01*
X144214216Y-75278067D01*
X144223899Y-75008159D01*
X144227312Y-74930389D01*
X144231394Y-74852644D01*
X144239880Y-74697168D01*
X144249021Y-74499961D01*
X144253840Y-74401372D01*
X144259512Y-74302832D01*
X144267386Y-74189092D01*
X144275989Y-74075410D01*
X144293855Y-73848067D01*
X144305563Y-73696110D01*
X144311774Y-73620159D01*
X144318620Y-73544272D01*
X144326476Y-73466354D01*
X144334952Y-73388486D01*
X144352752Y-73232858D01*
X144370307Y-73078791D01*
X144379675Y-73001832D01*
X144390164Y-72925041D01*
X144405299Y-72822189D01*
X144421080Y-72719407D01*
X144438191Y-72616863D01*
X144447458Y-72565733D01*
X144457315Y-72514725D01*
X144467460Y-72466150D01*
X144478306Y-72417718D01*
X144501500Y-72321156D01*
X144549654Y-72128381D01*
X144549878Y-72127529D01*
X144550134Y-72126672D01*
X144550425Y-72125796D01*
X144550753Y-72124889D01*
X144551121Y-72123938D01*
X144551532Y-72122929D01*
X144552492Y-72120688D01*
X144555034Y-72114949D01*
X144556658Y-72111244D01*
X144558544Y-72106844D01*
X144562325Y-72118680D01*
G37*
G36*
X140448708Y-73303633D02*
G01*
X140505735Y-73305276D01*
X140619768Y-73310593D01*
X140847660Y-73325145D01*
X140934001Y-73331177D01*
X141020267Y-73338162D01*
X141106405Y-73346338D01*
X141192359Y-73355942D01*
X141293427Y-73368396D01*
X141394401Y-73381831D01*
X141444786Y-73389163D01*
X141495068Y-73397033D01*
X141545219Y-73405542D01*
X141595213Y-73414785D01*
X141756325Y-73446157D01*
X141917238Y-73478795D01*
X142077595Y-73513823D01*
X142157454Y-73532586D01*
X142237039Y-73552369D01*
X142470736Y-73616975D01*
X142700843Y-73690147D01*
X142927343Y-73771886D01*
X143150216Y-73862196D01*
X143369445Y-73961078D01*
X143585013Y-74068534D01*
X143796901Y-74184569D01*
X144005091Y-74309183D01*
X144008698Y-74311483D01*
X144012110Y-74313778D01*
X144015315Y-74316093D01*
X144018301Y-74318453D01*
X144021056Y-74320884D01*
X144023568Y-74323411D01*
X144024730Y-74324718D01*
X144025827Y-74326059D01*
X144026857Y-74327437D01*
X144027819Y-74328855D01*
X144028712Y-74330316D01*
X144029534Y-74331823D01*
X144030283Y-74333379D01*
X144030959Y-74334988D01*
X144031559Y-74336653D01*
X144032082Y-74338377D01*
X144032527Y-74340163D01*
X144032893Y-74342014D01*
X144033177Y-74343934D01*
X144033378Y-74345926D01*
X144033495Y-74347993D01*
X144033527Y-74350137D01*
X144033471Y-74352363D01*
X144033327Y-74354673D01*
X144033093Y-74357071D01*
X144032767Y-74359560D01*
X144030046Y-74379568D01*
X144027701Y-74399693D01*
X144025646Y-74419970D01*
X144023796Y-74440437D01*
X144016732Y-74524925D01*
X143918658Y-74463488D01*
X143823798Y-74404592D01*
X143728845Y-74347535D01*
X143633026Y-74292482D01*
X143438863Y-74188235D01*
X143241445Y-74091537D01*
X143040910Y-74002075D01*
X142837392Y-73919536D01*
X142631030Y-73843607D01*
X142421960Y-73773974D01*
X142210317Y-73710325D01*
X142116626Y-73684330D01*
X142022611Y-73659707D01*
X141928283Y-73636428D01*
X141833656Y-73614467D01*
X141738740Y-73593795D01*
X141643549Y-73574386D01*
X141548095Y-73556212D01*
X141452391Y-73539246D01*
X141335201Y-73520295D01*
X141217692Y-73503170D01*
X141099966Y-73487454D01*
X140982121Y-73472730D01*
X140886643Y-73461950D01*
X140790992Y-73452575D01*
X140695232Y-73444162D01*
X140599427Y-73436270D01*
X140496949Y-73428543D01*
X140394423Y-73422037D01*
X140291850Y-73416764D01*
X140189231Y-73412735D01*
X140086567Y-73409961D01*
X139983859Y-73408454D01*
X139881110Y-73408224D01*
X139778320Y-73409282D01*
X139594315Y-73413145D01*
X139502333Y-73415979D01*
X139410390Y-73419707D01*
X139329058Y-73424160D01*
X139247770Y-73429655D01*
X139085270Y-73441826D01*
X138970176Y-73450584D01*
X138912674Y-73455503D01*
X138855241Y-73461087D01*
X138784777Y-73468733D01*
X138714357Y-73476890D01*
X138643987Y-73485533D01*
X138573672Y-73494637D01*
X138498406Y-73504803D01*
X138423190Y-73515406D01*
X138348033Y-73526486D01*
X138272946Y-73538081D01*
X138210477Y-73548435D01*
X138148123Y-73559473D01*
X138023497Y-73582055D01*
X138020434Y-73582564D01*
X138018895Y-73582784D01*
X138017349Y-73582970D01*
X138015794Y-73583113D01*
X138014229Y-73583202D01*
X138012652Y-73583229D01*
X138011062Y-73583186D01*
X138009457Y-73583063D01*
X138007835Y-73582850D01*
X138006196Y-73582540D01*
X138004537Y-73582122D01*
X138002857Y-73581588D01*
X138001154Y-73580928D01*
X137999427Y-73580135D01*
X137997674Y-73579197D01*
X138169058Y-73537188D01*
X138254864Y-73516801D01*
X138297878Y-73507172D01*
X138340997Y-73498076D01*
X138467391Y-73472946D01*
X138593999Y-73448877D01*
X138720814Y-73425939D01*
X138847833Y-73404202D01*
X138890077Y-73397507D01*
X138932421Y-73391366D01*
X139017332Y-73380370D01*
X139187505Y-73360864D01*
X139271989Y-73351506D01*
X139356528Y-73342673D01*
X139525749Y-73326309D01*
X139572983Y-73322137D01*
X139620291Y-73318530D01*
X139667649Y-73315757D01*
X139691339Y-73314766D01*
X139715032Y-73314085D01*
X140053354Y-73306174D01*
X140222521Y-73303459D01*
X140391677Y-73302867D01*
X140448708Y-73303633D01*
G37*
G36*
X142023054Y-77588671D02*
G01*
X142044983Y-77590481D01*
X142067118Y-77593468D01*
X142089453Y-77597637D01*
X142102069Y-77600554D01*
X142114312Y-77603854D01*
X142126184Y-77607530D01*
X142137690Y-77611578D01*
X142148832Y-77615991D01*
X142159616Y-77620764D01*
X142170044Y-77625891D01*
X142180119Y-77631366D01*
X142189846Y-77637183D01*
X142199229Y-77643337D01*
X142208270Y-77649822D01*
X142216973Y-77656632D01*
X142225342Y-77663761D01*
X142233381Y-77671204D01*
X142241093Y-77678954D01*
X142248481Y-77687007D01*
X142255550Y-77695356D01*
X142262303Y-77703995D01*
X142274875Y-77722122D01*
X142286226Y-77741342D01*
X142296384Y-77761609D01*
X142305380Y-77782876D01*
X142313240Y-77805097D01*
X142319996Y-77828227D01*
X142325674Y-77852219D01*
X142330470Y-77876722D01*
X142334592Y-77901424D01*
X142338062Y-77926282D01*
X142340901Y-77951253D01*
X142343129Y-77976294D01*
X142344769Y-78001361D01*
X142345840Y-78026410D01*
X142346365Y-78051399D01*
X142347547Y-78228873D01*
X142347767Y-78406337D01*
X142347264Y-78761276D01*
X142347213Y-78764515D01*
X142347070Y-78767777D01*
X142346854Y-78771079D01*
X142346583Y-78774438D01*
X142345306Y-78788792D01*
X142167452Y-78788792D01*
X142167452Y-78755190D01*
X142167691Y-78406205D01*
X142166818Y-78057219D01*
X142166558Y-78039535D01*
X142165949Y-78021792D01*
X142164949Y-78004031D01*
X142163517Y-77986291D01*
X142161611Y-77968613D01*
X142159190Y-77951038D01*
X142156212Y-77933605D01*
X142152636Y-77916355D01*
X142149659Y-77904326D01*
X142146301Y-77892840D01*
X142142570Y-77881894D01*
X142138476Y-77871481D01*
X142134025Y-77861598D01*
X142129229Y-77852238D01*
X142124094Y-77843396D01*
X142118629Y-77835069D01*
X142112844Y-77827249D01*
X142106748Y-77819933D01*
X142100347Y-77813116D01*
X142093652Y-77806792D01*
X142086671Y-77800956D01*
X142079413Y-77795603D01*
X142071886Y-77790728D01*
X142064100Y-77786326D01*
X142056061Y-77782391D01*
X142047781Y-77778920D01*
X142039266Y-77775907D01*
X142030526Y-77773346D01*
X142021569Y-77771232D01*
X142012405Y-77769561D01*
X142003041Y-77768328D01*
X141993487Y-77767527D01*
X141983750Y-77767153D01*
X141973841Y-77767201D01*
X141963766Y-77767667D01*
X141953536Y-77768544D01*
X141943159Y-77769829D01*
X141932643Y-77771515D01*
X141921998Y-77773598D01*
X141911231Y-77776073D01*
X141896071Y-77780274D01*
X141881416Y-77785251D01*
X141867242Y-77790965D01*
X141853529Y-77797377D01*
X141840254Y-77804448D01*
X141827395Y-77812139D01*
X141814930Y-77820412D01*
X141802837Y-77829227D01*
X141791095Y-77838546D01*
X141779681Y-77848330D01*
X141768574Y-77858539D01*
X141757751Y-77869135D01*
X141747191Y-77880079D01*
X141736872Y-77891332D01*
X141726771Y-77902855D01*
X141716867Y-77914609D01*
X141716231Y-77915418D01*
X141715632Y-77916267D01*
X141715069Y-77917155D01*
X141714541Y-77918078D01*
X141713585Y-77920026D01*
X141712754Y-77922095D01*
X141712041Y-77924271D01*
X141711436Y-77926538D01*
X141710931Y-77928880D01*
X141710517Y-77931284D01*
X141710184Y-77933732D01*
X141709925Y-77936211D01*
X141709729Y-77938704D01*
X141709589Y-77941196D01*
X141709440Y-77946119D01*
X141709406Y-77950856D01*
X141709088Y-78749845D01*
X141709088Y-78787997D01*
X141526473Y-78787997D01*
X141526473Y-78751908D01*
X141526420Y-78371781D01*
X141524780Y-77991654D01*
X141524604Y-77984253D01*
X141524221Y-77976820D01*
X141523636Y-77969363D01*
X141522858Y-77961890D01*
X141521892Y-77954411D01*
X141520746Y-77946933D01*
X141519427Y-77939466D01*
X141517940Y-77932017D01*
X141514494Y-77917210D01*
X141510462Y-77902581D01*
X141505900Y-77888197D01*
X141500861Y-77874126D01*
X141497495Y-77865789D01*
X141493830Y-77857774D01*
X141489871Y-77850083D01*
X141485625Y-77842718D01*
X141481096Y-77835680D01*
X141476291Y-77828972D01*
X141471216Y-77822594D01*
X141465875Y-77816550D01*
X141460275Y-77810840D01*
X141454421Y-77805466D01*
X141448319Y-77800431D01*
X141441975Y-77795735D01*
X141435395Y-77791381D01*
X141428583Y-77787370D01*
X141421546Y-77783704D01*
X141414289Y-77780385D01*
X141406819Y-77777414D01*
X141399140Y-77774794D01*
X141391259Y-77772525D01*
X141383180Y-77770611D01*
X141374911Y-77769051D01*
X141366456Y-77767849D01*
X141357821Y-77767006D01*
X141349012Y-77766524D01*
X141340034Y-77766404D01*
X141330894Y-77766649D01*
X141321596Y-77767259D01*
X141312147Y-77768237D01*
X141302552Y-77769584D01*
X141292817Y-77771303D01*
X141282948Y-77773394D01*
X141272949Y-77775861D01*
X141257852Y-77780230D01*
X141243210Y-77785267D01*
X141229013Y-77790951D01*
X141215248Y-77797262D01*
X141201905Y-77804180D01*
X141188971Y-77811684D01*
X141176435Y-77819753D01*
X141164285Y-77828367D01*
X141152509Y-77837506D01*
X141141097Y-77847149D01*
X141130035Y-77857276D01*
X141119314Y-77867866D01*
X141108920Y-77878899D01*
X141098843Y-77890354D01*
X141089071Y-77902211D01*
X141079591Y-77914449D01*
X141079039Y-77915225D01*
X141078521Y-77916035D01*
X141077585Y-77917747D01*
X141076775Y-77919572D01*
X141076082Y-77921499D01*
X141075496Y-77923514D01*
X141075009Y-77925606D01*
X141074611Y-77927761D01*
X141074294Y-77929967D01*
X141074048Y-77932212D01*
X141073864Y-77934482D01*
X141073646Y-77939051D01*
X141073569Y-77943572D01*
X141073560Y-77947945D01*
X141073295Y-78749845D01*
X141073348Y-78788896D01*
X140891844Y-78788896D01*
X140891844Y-77590492D01*
X140947631Y-77590228D01*
X140961569Y-77590286D01*
X140975500Y-77590493D01*
X140989424Y-77590898D01*
X141003339Y-77591551D01*
X141003896Y-77591620D01*
X141004465Y-77591764D01*
X141005043Y-77591981D01*
X141005630Y-77592266D01*
X141006224Y-77592617D01*
X141006823Y-77593030D01*
X141007426Y-77593502D01*
X141008031Y-77594029D01*
X141008637Y-77594608D01*
X141009242Y-77595235D01*
X141009845Y-77595907D01*
X141010444Y-77596621D01*
X141011625Y-77598160D01*
X141012772Y-77599826D01*
X141013873Y-77601589D01*
X141014916Y-77603424D01*
X141015889Y-77605304D01*
X141016779Y-77607200D01*
X141017574Y-77609086D01*
X141018262Y-77610935D01*
X141018830Y-77612719D01*
X141019267Y-77614411D01*
X141025640Y-77643581D01*
X141031631Y-77673228D01*
X141043715Y-77735378D01*
X141061269Y-77719284D01*
X141078990Y-77703893D01*
X141096915Y-77689256D01*
X141115079Y-77675419D01*
X141133518Y-77662432D01*
X141152267Y-77650342D01*
X141171364Y-77639199D01*
X141190843Y-77629049D01*
X141210741Y-77619941D01*
X141231093Y-77611925D01*
X141251936Y-77605047D01*
X141273304Y-77599357D01*
X141295235Y-77594902D01*
X141317764Y-77591732D01*
X141340927Y-77589893D01*
X141364760Y-77589435D01*
X141388424Y-77590137D01*
X141411499Y-77591805D01*
X141433963Y-77594495D01*
X141455797Y-77598263D01*
X141476977Y-77603168D01*
X141497485Y-77609264D01*
X141517298Y-77616609D01*
X141536395Y-77625259D01*
X141554756Y-77635271D01*
X141572358Y-77646701D01*
X141589182Y-77659607D01*
X141605206Y-77674043D01*
X141620409Y-77690068D01*
X141634770Y-77707738D01*
X141648268Y-77727109D01*
X141660881Y-77748238D01*
X141710226Y-77707862D01*
X141722355Y-77698035D01*
X141734507Y-77688379D01*
X141746736Y-77678927D01*
X141759095Y-77669710D01*
X141777868Y-77656727D01*
X141796915Y-77644848D01*
X141816232Y-77634080D01*
X141835813Y-77624427D01*
X141855654Y-77615895D01*
X141875747Y-77608490D01*
X141896089Y-77602217D01*
X141916674Y-77597082D01*
X141937496Y-77593090D01*
X141958551Y-77590248D01*
X141979832Y-77588560D01*
X142001335Y-77588033D01*
X142023054Y-77588671D01*
G37*
G36*
X141947331Y-75497246D02*
G01*
X141973738Y-75498149D01*
X142000125Y-75499766D01*
X142026487Y-75502080D01*
X142052823Y-75505078D01*
X142079130Y-75508745D01*
X142105406Y-75513067D01*
X142131647Y-75518028D01*
X142157852Y-75523615D01*
X142184017Y-75529813D01*
X142184165Y-75529866D01*
X142184312Y-75529926D01*
X142184458Y-75529993D01*
X142184604Y-75530066D01*
X142184894Y-75530230D01*
X142185183Y-75530417D01*
X142185473Y-75530625D01*
X142185766Y-75530852D01*
X142186063Y-75531095D01*
X142186364Y-75531354D01*
X142187655Y-75532499D01*
X142188006Y-75532803D01*
X142188371Y-75533111D01*
X142188752Y-75533420D01*
X142189150Y-75533728D01*
X142189150Y-75700574D01*
X142169400Y-75695691D01*
X142149641Y-75691256D01*
X142110089Y-75683683D01*
X142070484Y-75677771D01*
X142030816Y-75673435D01*
X141991076Y-75670589D01*
X141951255Y-75669149D01*
X141911343Y-75669030D01*
X141871332Y-75670147D01*
X141841538Y-75672391D01*
X141813203Y-75676494D01*
X141786340Y-75682418D01*
X141773464Y-75686050D01*
X141760961Y-75690122D01*
X141748831Y-75694629D01*
X141737077Y-75699567D01*
X141725700Y-75704929D01*
X141714702Y-75710712D01*
X141704083Y-75716911D01*
X141693846Y-75723519D01*
X141683991Y-75730533D01*
X141674522Y-75737947D01*
X141665438Y-75745756D01*
X141656742Y-75753956D01*
X141648435Y-75762541D01*
X141640518Y-75771507D01*
X141632994Y-75780848D01*
X141625863Y-75790559D01*
X141619127Y-75800636D01*
X141612788Y-75811073D01*
X141601305Y-75833009D01*
X141591427Y-75856327D01*
X141583166Y-75880987D01*
X141576534Y-75906950D01*
X141571337Y-75932477D01*
X141566919Y-75957997D01*
X141563307Y-75983502D01*
X141560529Y-76008983D01*
X141558614Y-76034433D01*
X141557588Y-76059844D01*
X141557479Y-76085209D01*
X141558317Y-76110520D01*
X141560128Y-76135768D01*
X141562940Y-76160947D01*
X141566782Y-76186049D01*
X141571681Y-76211065D01*
X141577666Y-76235988D01*
X141584763Y-76260810D01*
X141593002Y-76285524D01*
X141602409Y-76310122D01*
X141606906Y-76320678D01*
X141611653Y-76330896D01*
X141616649Y-76340780D01*
X141621891Y-76350330D01*
X141627377Y-76359549D01*
X141633106Y-76368441D01*
X141639075Y-76377006D01*
X141645282Y-76385247D01*
X141651725Y-76393167D01*
X141658401Y-76400767D01*
X141665310Y-76408051D01*
X141672448Y-76415020D01*
X141679814Y-76421676D01*
X141687405Y-76428022D01*
X141695219Y-76434061D01*
X141703255Y-76439794D01*
X141711510Y-76445224D01*
X141719983Y-76450353D01*
X141728670Y-76455183D01*
X141737570Y-76459717D01*
X141746681Y-76463956D01*
X141756001Y-76467904D01*
X141775258Y-76474934D01*
X141795325Y-76480824D01*
X141816186Y-76485592D01*
X141837823Y-76489257D01*
X141860219Y-76491837D01*
X141881035Y-76493410D01*
X141901795Y-76494414D01*
X141922505Y-76494876D01*
X141943167Y-76494822D01*
X141963789Y-76494276D01*
X141984373Y-76493266D01*
X142025451Y-76489953D01*
X142066440Y-76485090D01*
X142107378Y-76478882D01*
X142148303Y-76471538D01*
X142189255Y-76463263D01*
X142189255Y-76634343D01*
X142168348Y-76637943D01*
X142147452Y-76641828D01*
X142105660Y-76649695D01*
X142084746Y-76653296D01*
X142063808Y-76656421D01*
X142042838Y-76658881D01*
X142032338Y-76659801D01*
X142021827Y-76660484D01*
X141982364Y-76662376D01*
X141942899Y-76663628D01*
X141903470Y-76663852D01*
X141864115Y-76662660D01*
X141844477Y-76661412D01*
X141824872Y-76659665D01*
X141805304Y-76657370D01*
X141785778Y-76654478D01*
X141766299Y-76650943D01*
X141746871Y-76646714D01*
X141727500Y-76641744D01*
X141708189Y-76635983D01*
X141683425Y-76627397D01*
X141659581Y-76617806D01*
X141636671Y-76607205D01*
X141614707Y-76595587D01*
X141593701Y-76582948D01*
X141573665Y-76569280D01*
X141554612Y-76554577D01*
X141536554Y-76538835D01*
X141519503Y-76522047D01*
X141503471Y-76504206D01*
X141488471Y-76485307D01*
X141474514Y-76465345D01*
X141461614Y-76444312D01*
X141449782Y-76422203D01*
X141439030Y-76399012D01*
X141429372Y-76374734D01*
X141417410Y-76340039D01*
X141406905Y-76305255D01*
X141397856Y-76270388D01*
X141390262Y-76235445D01*
X141384123Y-76200433D01*
X141379437Y-76165358D01*
X141376204Y-76130228D01*
X141374424Y-76095050D01*
X141374096Y-76059830D01*
X141375218Y-76024575D01*
X141377791Y-75989293D01*
X141381814Y-75953990D01*
X141387285Y-75918672D01*
X141394205Y-75883348D01*
X141402572Y-75848024D01*
X141412386Y-75812706D01*
X141417446Y-75796692D01*
X141422929Y-75781132D01*
X141428830Y-75766024D01*
X141435146Y-75751365D01*
X141441872Y-75737152D01*
X141449003Y-75723382D01*
X141456535Y-75710053D01*
X141464463Y-75697162D01*
X141472784Y-75684706D01*
X141481491Y-75672683D01*
X141490582Y-75661089D01*
X141500052Y-75649923D01*
X141509896Y-75639180D01*
X141520109Y-75628860D01*
X141530688Y-75618958D01*
X141541628Y-75609473D01*
X141552924Y-75600401D01*
X141564572Y-75591740D01*
X141588907Y-75575639D01*
X141614595Y-75561148D01*
X141641603Y-75548246D01*
X141669894Y-75536911D01*
X141699433Y-75527120D01*
X141730184Y-75518853D01*
X141762112Y-75512087D01*
X141788593Y-75507597D01*
X141815071Y-75503921D01*
X141841544Y-75501045D01*
X141868009Y-75498954D01*
X141894464Y-75497633D01*
X141920906Y-75497069D01*
X141947331Y-75497246D01*
G37*
G36*
X139298471Y-77590123D02*
G01*
X139568504Y-77590123D01*
X139568504Y-77760461D01*
X139329215Y-77760461D01*
X139328846Y-77764347D01*
X139328466Y-77767972D01*
X139327747Y-77774584D01*
X139327445Y-77777645D01*
X139327206Y-77780591D01*
X139327049Y-77783459D01*
X139326993Y-77786285D01*
X139327469Y-78475313D01*
X139327528Y-78478922D01*
X139327681Y-78482542D01*
X139327925Y-78486173D01*
X139328255Y-78489810D01*
X139329155Y-78497093D01*
X139330346Y-78504371D01*
X139331793Y-78511622D01*
X139333459Y-78518823D01*
X139335311Y-78525954D01*
X139337311Y-78532992D01*
X139340742Y-78543418D01*
X139342628Y-78548364D01*
X139344629Y-78553132D01*
X139346746Y-78557724D01*
X139348979Y-78562140D01*
X139351329Y-78566381D01*
X139353797Y-78570448D01*
X139356383Y-78574342D01*
X139359089Y-78578063D01*
X139361915Y-78581613D01*
X139364861Y-78584992D01*
X139367930Y-78588201D01*
X139371120Y-78591241D01*
X139374434Y-78594112D01*
X139377872Y-78596816D01*
X139381434Y-78599354D01*
X139385122Y-78601725D01*
X139388936Y-78603932D01*
X139392877Y-78605974D01*
X139396945Y-78607853D01*
X139401142Y-78609570D01*
X139405469Y-78611124D01*
X139409925Y-78612518D01*
X139414511Y-78613752D01*
X139419229Y-78614827D01*
X139424080Y-78615743D01*
X139429063Y-78616502D01*
X139439432Y-78617549D01*
X139450341Y-78617976D01*
X139479278Y-78618186D01*
X139508444Y-78618182D01*
X139568293Y-78618030D01*
X139568187Y-78789214D01*
X139513601Y-78789786D01*
X139459555Y-78790650D01*
X139432706Y-78790793D01*
X139405957Y-78790531D01*
X139379295Y-78789705D01*
X139352710Y-78788155D01*
X139343339Y-78787248D01*
X139334121Y-78785938D01*
X139325062Y-78784233D01*
X139316168Y-78782139D01*
X139307443Y-78779664D01*
X139298893Y-78776812D01*
X139290525Y-78773592D01*
X139282342Y-78770010D01*
X139274352Y-78766073D01*
X139266560Y-78761786D01*
X139258971Y-78757158D01*
X139251591Y-78752193D01*
X139244425Y-78746900D01*
X139237478Y-78741285D01*
X139230758Y-78735354D01*
X139224268Y-78729114D01*
X139218015Y-78722572D01*
X139212004Y-78715734D01*
X139206241Y-78708607D01*
X139200731Y-78701198D01*
X139195480Y-78693513D01*
X139190493Y-78685559D01*
X139185776Y-78677342D01*
X139181335Y-78668870D01*
X139177174Y-78660149D01*
X139173301Y-78651185D01*
X139169719Y-78641985D01*
X139166435Y-78632556D01*
X139163455Y-78622905D01*
X139160783Y-78613038D01*
X139158426Y-78602961D01*
X139156389Y-78592682D01*
X139153716Y-78577075D01*
X139151341Y-78561383D01*
X139149281Y-78545624D01*
X139147552Y-78529817D01*
X139146171Y-78513979D01*
X139145153Y-78498131D01*
X139144514Y-78482290D01*
X139144272Y-78466476D01*
X139143742Y-77426981D01*
X139143742Y-77396131D01*
X139259100Y-77396131D01*
X139298471Y-77590123D01*
G37*
G36*
X143040114Y-77588563D02*
G01*
X143071199Y-77589761D01*
X143102225Y-77591902D01*
X143133191Y-77594954D01*
X143164098Y-77598884D01*
X143194945Y-77603660D01*
X143225732Y-77609248D01*
X143256460Y-77615616D01*
X143287129Y-77622731D01*
X143317738Y-77630560D01*
X143348287Y-77639071D01*
X143350483Y-77639748D01*
X143352561Y-77640479D01*
X143354518Y-77641276D01*
X143356350Y-77642150D01*
X143358053Y-77643116D01*
X143358854Y-77643637D01*
X143359622Y-77644185D01*
X143360355Y-77644763D01*
X143361054Y-77645370D01*
X143361717Y-77646010D01*
X143362344Y-77646684D01*
X143362934Y-77647392D01*
X143363488Y-77648138D01*
X143364004Y-77648921D01*
X143364482Y-77649745D01*
X143364922Y-77650610D01*
X143365323Y-77651518D01*
X143365684Y-77652470D01*
X143366005Y-77653469D01*
X143366286Y-77654515D01*
X143366526Y-77655611D01*
X143366724Y-77656757D01*
X143366880Y-77657956D01*
X143366993Y-77659209D01*
X143367063Y-77660517D01*
X143367090Y-77661882D01*
X143367072Y-77663306D01*
X143366463Y-77704098D01*
X143366359Y-77745009D01*
X143366598Y-77827506D01*
X143281713Y-77803959D01*
X143260930Y-77798329D01*
X143240205Y-77792993D01*
X143219479Y-77788047D01*
X143198692Y-77783585D01*
X143158702Y-77776043D01*
X143118658Y-77769770D01*
X143098614Y-77767222D01*
X143078557Y-77765128D01*
X143058483Y-77763531D01*
X143038395Y-77762478D01*
X143018290Y-77762013D01*
X142998168Y-77762182D01*
X142978030Y-77763030D01*
X142957874Y-77764602D01*
X142937700Y-77766943D01*
X142917507Y-77770099D01*
X142897296Y-77774114D01*
X142877065Y-77779034D01*
X142865586Y-77782420D01*
X142854725Y-77786283D01*
X142844474Y-77790602D01*
X142834824Y-77795357D01*
X142825768Y-77800525D01*
X142817295Y-77806088D01*
X142809398Y-77812023D01*
X142802068Y-77818310D01*
X142795295Y-77824928D01*
X142789072Y-77831856D01*
X142783389Y-77839074D01*
X142778238Y-77846560D01*
X142773610Y-77854293D01*
X142769497Y-77862253D01*
X142765889Y-77870419D01*
X142762779Y-77878769D01*
X142760156Y-77887284D01*
X142758014Y-77895942D01*
X142756342Y-77904722D01*
X142755133Y-77913603D01*
X142754377Y-77922565D01*
X142754066Y-77931587D01*
X142754191Y-77940647D01*
X142754743Y-77949726D01*
X142755715Y-77958801D01*
X142757096Y-77967853D01*
X142758879Y-77976860D01*
X142761054Y-77985801D01*
X142763613Y-77994656D01*
X142766547Y-78003403D01*
X142769848Y-78012023D01*
X142773507Y-78020493D01*
X142775623Y-78024909D01*
X142777863Y-78029156D01*
X142780223Y-78033238D01*
X142782701Y-78037157D01*
X142785295Y-78040915D01*
X142788000Y-78044513D01*
X142790816Y-78047955D01*
X142793740Y-78051241D01*
X142796767Y-78054375D01*
X142799897Y-78057358D01*
X142803126Y-78060192D01*
X142806452Y-78062880D01*
X142809872Y-78065423D01*
X142813383Y-78067824D01*
X142816983Y-78070084D01*
X142820669Y-78072206D01*
X142824439Y-78074193D01*
X142828289Y-78076045D01*
X142832217Y-78077765D01*
X142836221Y-78079355D01*
X142840297Y-78080818D01*
X142844444Y-78082155D01*
X142848658Y-78083368D01*
X142852937Y-78084460D01*
X142861678Y-78086288D01*
X142870648Y-78087655D01*
X142879823Y-78088578D01*
X142889183Y-78089074D01*
X142910707Y-78089487D01*
X142932251Y-78089523D01*
X142975358Y-78089094D01*
X142996902Y-78088945D01*
X143018425Y-78089051D01*
X143039920Y-78089570D01*
X143061374Y-78090661D01*
X143079282Y-78092002D01*
X143097222Y-78093671D01*
X143115159Y-78095706D01*
X143133056Y-78098149D01*
X143150876Y-78101038D01*
X143168582Y-78104413D01*
X143186138Y-78108314D01*
X143203508Y-78112780D01*
X143215374Y-78116327D01*
X143226807Y-78120264D01*
X143237814Y-78124579D01*
X143248401Y-78129261D01*
X143258576Y-78134301D01*
X143268344Y-78139687D01*
X143277715Y-78145408D01*
X143286693Y-78151453D01*
X143295285Y-78157812D01*
X143303500Y-78164474D01*
X143311343Y-78171428D01*
X143318821Y-78178662D01*
X143325942Y-78186167D01*
X143332712Y-78193931D01*
X143339137Y-78201943D01*
X143345226Y-78210194D01*
X143350984Y-78218671D01*
X143356419Y-78227364D01*
X143366345Y-78245354D01*
X143375059Y-78264078D01*
X143382616Y-78283449D01*
X143389070Y-78303381D01*
X143394478Y-78323786D01*
X143398892Y-78344577D01*
X143402369Y-78365669D01*
X143405349Y-78390093D01*
X143406458Y-78402286D01*
X143407301Y-78414466D01*
X143407870Y-78426631D01*
X143408158Y-78438780D01*
X143408154Y-78450914D01*
X143407853Y-78463030D01*
X143407244Y-78475128D01*
X143406320Y-78487207D01*
X143405072Y-78499267D01*
X143403493Y-78511306D01*
X143401573Y-78523323D01*
X143399305Y-78535319D01*
X143396680Y-78547291D01*
X143393691Y-78559239D01*
X143390624Y-78570054D01*
X143387263Y-78580565D01*
X143383609Y-78590774D01*
X143379668Y-78600685D01*
X143375442Y-78610301D01*
X143370937Y-78619626D01*
X143366155Y-78628662D01*
X143361101Y-78637413D01*
X143355778Y-78645883D01*
X143350190Y-78654073D01*
X143344342Y-78661989D01*
X143338237Y-78669632D01*
X143325272Y-78684116D01*
X143311326Y-78697550D01*
X143296430Y-78709961D01*
X143280614Y-78721375D01*
X143263911Y-78731817D01*
X143246351Y-78741315D01*
X143227965Y-78749894D01*
X143208784Y-78757580D01*
X143188838Y-78764399D01*
X143168160Y-78770377D01*
X143149667Y-78774976D01*
X143131121Y-78778982D01*
X143112527Y-78782414D01*
X143093888Y-78785292D01*
X143075212Y-78787633D01*
X143056502Y-78789457D01*
X143037763Y-78790783D01*
X143019001Y-78791629D01*
X143000221Y-78792015D01*
X142981426Y-78791958D01*
X142962623Y-78791479D01*
X142943817Y-78790595D01*
X142906212Y-78787690D01*
X142868652Y-78783394D01*
X142841080Y-78779414D01*
X142813596Y-78774798D01*
X142786178Y-78769699D01*
X142758803Y-78764271D01*
X142704100Y-78753041D01*
X142649312Y-78742331D01*
X142645305Y-78741496D01*
X142641614Y-78740511D01*
X142639885Y-78739958D01*
X142638232Y-78739364D01*
X142636656Y-78738727D01*
X142635154Y-78738046D01*
X142633727Y-78737318D01*
X142632372Y-78736544D01*
X142631091Y-78735721D01*
X142629881Y-78734848D01*
X142628742Y-78733923D01*
X142627674Y-78732946D01*
X142626675Y-78731915D01*
X142625744Y-78730828D01*
X142624881Y-78729685D01*
X142624085Y-78728483D01*
X142623355Y-78727221D01*
X142622690Y-78725898D01*
X142622090Y-78724513D01*
X142621554Y-78723064D01*
X142621081Y-78721550D01*
X142620669Y-78719969D01*
X142620319Y-78718321D01*
X142620030Y-78716603D01*
X142619800Y-78714814D01*
X142619629Y-78712953D01*
X142619461Y-78709009D01*
X142619519Y-78704760D01*
X142620058Y-78685913D01*
X142620361Y-78667004D01*
X142620459Y-78628811D01*
X142620049Y-78549608D01*
X142681187Y-78567903D01*
X142710722Y-78576605D01*
X142740064Y-78584850D01*
X142771669Y-78592917D01*
X142803452Y-78599876D01*
X142835395Y-78605700D01*
X142867480Y-78610363D01*
X142899693Y-78613837D01*
X142932015Y-78616097D01*
X142964430Y-78617115D01*
X142996922Y-78616865D01*
X143013292Y-78616098D01*
X143029739Y-78614679D01*
X143046200Y-78612622D01*
X143062611Y-78609939D01*
X143078911Y-78606644D01*
X143095037Y-78602748D01*
X143110925Y-78598266D01*
X143126515Y-78593211D01*
X143134350Y-78590301D01*
X143141818Y-78587164D01*
X143148922Y-78583804D01*
X143155670Y-78580227D01*
X143162068Y-78576438D01*
X143168120Y-78572445D01*
X143173833Y-78568251D01*
X143179213Y-78563864D01*
X143184265Y-78559288D01*
X143188996Y-78554530D01*
X143193412Y-78549595D01*
X143197517Y-78544489D01*
X143201318Y-78539217D01*
X143204821Y-78533786D01*
X143208032Y-78528201D01*
X143210956Y-78522467D01*
X143213600Y-78516592D01*
X143215969Y-78510579D01*
X143218069Y-78504435D01*
X143219906Y-78498167D01*
X143221486Y-78491778D01*
X143222814Y-78485276D01*
X143223898Y-78478665D01*
X143224741Y-78471953D01*
X143225350Y-78465143D01*
X143225732Y-78458243D01*
X143225892Y-78451257D01*
X143225835Y-78444192D01*
X143225097Y-78429846D01*
X143223563Y-78415251D01*
X143222443Y-78407638D01*
X143221077Y-78400268D01*
X143219468Y-78393140D01*
X143217617Y-78386253D01*
X143215526Y-78379608D01*
X143213196Y-78373204D01*
X143210631Y-78367040D01*
X143207830Y-78361117D01*
X143204796Y-78355433D01*
X143201532Y-78349989D01*
X143198038Y-78344784D01*
X143194316Y-78339818D01*
X143190369Y-78335091D01*
X143186197Y-78330602D01*
X143181803Y-78326350D01*
X143177189Y-78322336D01*
X143172356Y-78318559D01*
X143167306Y-78315019D01*
X143162040Y-78311714D01*
X143156562Y-78308646D01*
X143150871Y-78305814D01*
X143144971Y-78303216D01*
X143138862Y-78300854D01*
X143132548Y-78298726D01*
X143126028Y-78296832D01*
X143119306Y-78295173D01*
X143112383Y-78293746D01*
X143105261Y-78292553D01*
X143097941Y-78291592D01*
X143090426Y-78290864D01*
X143074815Y-78290103D01*
X142965105Y-78288099D01*
X142910270Y-78286569D01*
X142855475Y-78284230D01*
X142831239Y-78282097D01*
X142807908Y-78278316D01*
X142785522Y-78272913D01*
X142774694Y-78269612D01*
X142764117Y-78265916D01*
X142753795Y-78261828D01*
X142743732Y-78257352D01*
X142733935Y-78252491D01*
X142724407Y-78247248D01*
X142715153Y-78241627D01*
X142706178Y-78235631D01*
X142697487Y-78229264D01*
X142689085Y-78222529D01*
X142680976Y-78215429D01*
X142673166Y-78207968D01*
X142665659Y-78200149D01*
X142658459Y-78191976D01*
X142651572Y-78183452D01*
X142645003Y-78174580D01*
X142638756Y-78165363D01*
X142632836Y-78155806D01*
X142627247Y-78145911D01*
X142621996Y-78135683D01*
X142612521Y-78114236D01*
X142604451Y-78091494D01*
X142597823Y-78067484D01*
X142593794Y-78049601D01*
X142590258Y-78031697D01*
X142587247Y-78013779D01*
X142584789Y-77995854D01*
X142582915Y-77977928D01*
X142581654Y-77960008D01*
X142581038Y-77942103D01*
X142581095Y-77924219D01*
X142581857Y-77906362D01*
X142583352Y-77888540D01*
X142585610Y-77870761D01*
X142588663Y-77853030D01*
X142592540Y-77835355D01*
X142597270Y-77817744D01*
X142602884Y-77800203D01*
X142609412Y-77782739D01*
X142613645Y-77772694D01*
X142618147Y-77762983D01*
X142622911Y-77753603D01*
X142627933Y-77744547D01*
X142633208Y-77735812D01*
X142638730Y-77727392D01*
X142644495Y-77719282D01*
X142650497Y-77711478D01*
X142656731Y-77703974D01*
X142663192Y-77696766D01*
X142669874Y-77689848D01*
X142676774Y-77683217D01*
X142683884Y-77676866D01*
X142691202Y-77670791D01*
X142698720Y-77664987D01*
X142706435Y-77659450D01*
X142722432Y-77649153D01*
X142739152Y-77639862D01*
X142756554Y-77631538D01*
X142774596Y-77624140D01*
X142793239Y-77617631D01*
X142812439Y-77611969D01*
X142832158Y-77607117D01*
X142852352Y-77603034D01*
X142883795Y-77597881D01*
X142915178Y-77593867D01*
X142946501Y-77590962D01*
X142977765Y-77589131D01*
X143008969Y-77588342D01*
X143040114Y-77588563D01*
G37*
G36*
X136323314Y-75586336D02*
G01*
X136328370Y-75586858D01*
X136333202Y-75587725D01*
X136337779Y-75588993D01*
X136339961Y-75589793D01*
X136342068Y-75590713D01*
X136344095Y-75591761D01*
X136346038Y-75592942D01*
X136347871Y-75594238D01*
X136349621Y-75595661D01*
X136351293Y-75597206D01*
X136352890Y-75598866D01*
X136354416Y-75600636D01*
X136355874Y-75602510D01*
X136357269Y-75604481D01*
X136358604Y-75606544D01*
X136361109Y-75610921D01*
X136363420Y-75615594D01*
X136365568Y-75620516D01*
X136367582Y-75625638D01*
X136369492Y-75630913D01*
X136371329Y-75636294D01*
X136374904Y-75647182D01*
X136378546Y-75657923D01*
X136380468Y-75663119D01*
X136382498Y-75668136D01*
X136626814Y-76240377D01*
X136628193Y-76243689D01*
X136629530Y-76247063D01*
X136632192Y-76254135D01*
X136638244Y-76270593D01*
X136581828Y-76270897D01*
X136554908Y-76270682D01*
X136541620Y-76270309D01*
X136528389Y-76269693D01*
X136527683Y-76269624D01*
X136526964Y-76269499D01*
X136526234Y-76269320D01*
X136525494Y-76269090D01*
X136524747Y-76268809D01*
X136523994Y-76268482D01*
X136523236Y-76268109D01*
X136522475Y-76267694D01*
X136520951Y-76266744D01*
X136519434Y-76265650D01*
X136517938Y-76264431D01*
X136516476Y-76263105D01*
X136515060Y-76261689D01*
X136513704Y-76260202D01*
X136512420Y-76258662D01*
X136511222Y-76257087D01*
X136510121Y-76255495D01*
X136509132Y-76253905D01*
X136508268Y-76252334D01*
X136507540Y-76250801D01*
X136490550Y-76211569D01*
X136473819Y-76172214D01*
X136465674Y-76152450D01*
X136457742Y-76132610D01*
X136450073Y-76112676D01*
X136442717Y-76092634D01*
X136441917Y-76090475D01*
X136441092Y-76088422D01*
X136440242Y-76086472D01*
X136439366Y-76084624D01*
X136438462Y-76082875D01*
X136437529Y-76081221D01*
X136436567Y-76079662D01*
X136435573Y-76078195D01*
X136434547Y-76076817D01*
X136433488Y-76075526D01*
X136432394Y-76074320D01*
X136431265Y-76073196D01*
X136430098Y-76072152D01*
X136428894Y-76071186D01*
X136427650Y-76070294D01*
X136426366Y-76069476D01*
X136425040Y-76068728D01*
X136423672Y-76068049D01*
X136422259Y-76067435D01*
X136420802Y-76066885D01*
X136419299Y-76066396D01*
X136417748Y-76065966D01*
X136416148Y-76065592D01*
X136414499Y-76065272D01*
X136411047Y-76064785D01*
X136407383Y-76064486D01*
X136403496Y-76064356D01*
X136399378Y-76064376D01*
X136351980Y-76065009D01*
X136304115Y-76065111D01*
X136205280Y-76064853D01*
X136219528Y-76020125D01*
X136223018Y-76009532D01*
X136226607Y-75999130D01*
X136230357Y-75988897D01*
X136234331Y-75978810D01*
X136234582Y-75978280D01*
X136234895Y-75977761D01*
X136235267Y-75977254D01*
X136235696Y-75976760D01*
X136236178Y-75976277D01*
X136236711Y-75975808D01*
X136237292Y-75975351D01*
X136237917Y-75974908D01*
X136238584Y-75974478D01*
X136239289Y-75974062D01*
X136240804Y-75973274D01*
X136242438Y-75972545D01*
X136244167Y-75971878D01*
X136245967Y-75971276D01*
X136247815Y-75970741D01*
X136249687Y-75970275D01*
X136251558Y-75969881D01*
X136253406Y-75969561D01*
X136255205Y-75969318D01*
X136256934Y-75969155D01*
X136258567Y-75969074D01*
X136290369Y-75968606D01*
X136322682Y-75968505D01*
X136390806Y-75968650D01*
X136289682Y-75722746D01*
X136178557Y-75993839D01*
X136125773Y-76121963D01*
X136099529Y-76186080D01*
X136073623Y-76250326D01*
X136072470Y-76253080D01*
X136071284Y-76255628D01*
X136070052Y-76257972D01*
X136068760Y-76260117D01*
X136068088Y-76261115D01*
X136067396Y-76262064D01*
X136066682Y-76262963D01*
X136065946Y-76263815D01*
X136065184Y-76264618D01*
X136064397Y-76265374D01*
X136063581Y-76266082D01*
X136062736Y-76266743D01*
X136061859Y-76267357D01*
X136060949Y-76267925D01*
X136060005Y-76268446D01*
X136059025Y-76268922D01*
X136058006Y-76269352D01*
X136056948Y-76269737D01*
X136055849Y-76270077D01*
X136054707Y-76270373D01*
X136053521Y-76270624D01*
X136052288Y-76270832D01*
X136051008Y-76270996D01*
X136049678Y-76271117D01*
X136048297Y-76271195D01*
X136046863Y-76271230D01*
X136043831Y-76271175D01*
X136032347Y-76270711D01*
X136020793Y-76270444D01*
X135997245Y-76270334D01*
X135946729Y-76270645D01*
X136082090Y-75952246D01*
X136154374Y-75782694D01*
X136225864Y-75612785D01*
X136227302Y-75609462D01*
X136228767Y-75606378D01*
X136230279Y-75603531D01*
X136231855Y-75600922D01*
X136233511Y-75598550D01*
X136234375Y-75597453D01*
X136235266Y-75596414D01*
X136236185Y-75595435D01*
X136237136Y-75594514D01*
X136238120Y-75593652D01*
X136239140Y-75592849D01*
X136240197Y-75592104D01*
X136241294Y-75591418D01*
X136242433Y-75590791D01*
X136243617Y-75590221D01*
X136244847Y-75589710D01*
X136246125Y-75589257D01*
X136247454Y-75588863D01*
X136248836Y-75588526D01*
X136250273Y-75588248D01*
X136251768Y-75588027D01*
X136253322Y-75587864D01*
X136254937Y-75587759D01*
X136256617Y-75587711D01*
X136258362Y-75587722D01*
X136260176Y-75587789D01*
X136262060Y-75587914D01*
X136267472Y-75588208D01*
X136273010Y-75588252D01*
X136278644Y-75588100D01*
X136284342Y-75587807D01*
X136307125Y-75586301D01*
X136312660Y-75586111D01*
X136318067Y-75586105D01*
X136323314Y-75586336D01*
G37*
G36*
X139602809Y-75498110D02*
G01*
X139631050Y-75499134D01*
X139659309Y-75500761D01*
X139694102Y-75504013D01*
X139728175Y-75509048D01*
X139761410Y-75515993D01*
X139793688Y-75524975D01*
X139824890Y-75536118D01*
X139854899Y-75549550D01*
X139869419Y-75557163D01*
X139883596Y-75565395D01*
X139897415Y-75574263D01*
X139910862Y-75583781D01*
X139923921Y-75593966D01*
X139936579Y-75604832D01*
X139948819Y-75616397D01*
X139960628Y-75628675D01*
X139971991Y-75641683D01*
X139982892Y-75655436D01*
X139993317Y-75669951D01*
X140003251Y-75685241D01*
X140012679Y-75701324D01*
X140021587Y-75718216D01*
X140029960Y-75735931D01*
X140037782Y-75754486D01*
X140045040Y-75773896D01*
X140051718Y-75794178D01*
X140057801Y-75815346D01*
X140063275Y-75837417D01*
X140070666Y-75872108D01*
X140076911Y-75906782D01*
X140081995Y-75941432D01*
X140085898Y-75976052D01*
X140088603Y-76010634D01*
X140090093Y-76045171D01*
X140090350Y-76079658D01*
X140089356Y-76114086D01*
X140087095Y-76148449D01*
X140083547Y-76182739D01*
X140078696Y-76216952D01*
X140072525Y-76251078D01*
X140065015Y-76285111D01*
X140056148Y-76319045D01*
X140045908Y-76352873D01*
X140034277Y-76386587D01*
X140022695Y-76415537D01*
X140009763Y-76442860D01*
X139995491Y-76468560D01*
X139987856Y-76480803D01*
X139979889Y-76492642D01*
X139971591Y-76504078D01*
X139962965Y-76515111D01*
X139954011Y-76525742D01*
X139944731Y-76535972D01*
X139935125Y-76545800D01*
X139925195Y-76555229D01*
X139914942Y-76564257D01*
X139904367Y-76572886D01*
X139893471Y-76581117D01*
X139882256Y-76588950D01*
X139870723Y-76596385D01*
X139858873Y-76603423D01*
X139846707Y-76610066D01*
X139834226Y-76616312D01*
X139808326Y-76627621D01*
X139781182Y-76637355D01*
X139752804Y-76645517D01*
X139723201Y-76652114D01*
X139692383Y-76657150D01*
X139672463Y-76659585D01*
X139652613Y-76661482D01*
X139632833Y-76662820D01*
X139613126Y-76663579D01*
X139593492Y-76663741D01*
X139573935Y-76663285D01*
X139554455Y-76662193D01*
X139535055Y-76660444D01*
X139515735Y-76658019D01*
X139496499Y-76654899D01*
X139477348Y-76651064D01*
X139458283Y-76646494D01*
X139439307Y-76641170D01*
X139420421Y-76635073D01*
X139401626Y-76628182D01*
X139382926Y-76620479D01*
X139380975Y-76619652D01*
X139378942Y-76618858D01*
X139376777Y-76618066D01*
X139374432Y-76617243D01*
X139369010Y-76615380D01*
X139365836Y-76614277D01*
X139362288Y-76613017D01*
X139362288Y-77082493D01*
X139179302Y-77082493D01*
X139179302Y-77048997D01*
X139179137Y-76393677D01*
X139361759Y-76393677D01*
X139361790Y-76398433D01*
X139362029Y-76402940D01*
X139362489Y-76407201D01*
X139363180Y-76411217D01*
X139364114Y-76414993D01*
X139365302Y-76418529D01*
X139365994Y-76420209D01*
X139366755Y-76421830D01*
X139367585Y-76423393D01*
X139368486Y-76424898D01*
X139369458Y-76426345D01*
X139370504Y-76427735D01*
X139371625Y-76429067D01*
X139372823Y-76430344D01*
X139374098Y-76431563D01*
X139375453Y-76432727D01*
X139376888Y-76433835D01*
X139378405Y-76434887D01*
X139380006Y-76435885D01*
X139381691Y-76436828D01*
X139383463Y-76437716D01*
X139385323Y-76438551D01*
X139389311Y-76440059D01*
X139393667Y-76441354D01*
X139413115Y-76446602D01*
X139432540Y-76452073D01*
X139471408Y-76463004D01*
X139490895Y-76468127D01*
X139510445Y-76472795D01*
X139530081Y-76476839D01*
X139539938Y-76478574D01*
X139549824Y-76480090D01*
X139577591Y-76483091D01*
X139604669Y-76484139D01*
X139630987Y-76483234D01*
X139656475Y-76480377D01*
X139681065Y-76475570D01*
X139704686Y-76468812D01*
X139716112Y-76464702D01*
X139727269Y-76460106D01*
X139738150Y-76455022D01*
X139748745Y-76449451D01*
X139759045Y-76443393D01*
X139769042Y-76436849D01*
X139778728Y-76429818D01*
X139788092Y-76422301D01*
X139797128Y-76414297D01*
X139805826Y-76405807D01*
X139814177Y-76396832D01*
X139822172Y-76387370D01*
X139829804Y-76377422D01*
X139837063Y-76366988D01*
X139843940Y-76356069D01*
X139850427Y-76344665D01*
X139856515Y-76332775D01*
X139862195Y-76320399D01*
X139867460Y-76307539D01*
X139872299Y-76294193D01*
X139880634Y-76268252D01*
X139887994Y-76242225D01*
X139894374Y-76216120D01*
X139899768Y-76189944D01*
X139904169Y-76163705D01*
X139907572Y-76137410D01*
X139909970Y-76111067D01*
X139911358Y-76084683D01*
X139911729Y-76058265D01*
X139911078Y-76031821D01*
X139909399Y-76005359D01*
X139906685Y-75978886D01*
X139902931Y-75952409D01*
X139898131Y-75925935D01*
X139892279Y-75899473D01*
X139885369Y-75873029D01*
X139879535Y-75854266D01*
X139872825Y-75836326D01*
X139865231Y-75819227D01*
X139856745Y-75802985D01*
X139847360Y-75787618D01*
X139837070Y-75773142D01*
X139825865Y-75759576D01*
X139813740Y-75746936D01*
X139800686Y-75735238D01*
X139786696Y-75724502D01*
X139771764Y-75714742D01*
X139755881Y-75705977D01*
X139739040Y-75698224D01*
X139721234Y-75691500D01*
X139702456Y-75685822D01*
X139682698Y-75681207D01*
X139664026Y-75677830D01*
X139645395Y-75675210D01*
X139626800Y-75673300D01*
X139608238Y-75672055D01*
X139589707Y-75671428D01*
X139571202Y-75671374D01*
X139552721Y-75671846D01*
X139534260Y-75672800D01*
X139497385Y-75675964D01*
X139460550Y-75680500D01*
X139423728Y-75686039D01*
X139386894Y-75692213D01*
X139383093Y-75692966D01*
X139381344Y-75693387D01*
X139379692Y-75693840D01*
X139378135Y-75694326D01*
X139376670Y-75694844D01*
X139375295Y-75695397D01*
X139374006Y-75695984D01*
X139372802Y-75696608D01*
X139371679Y-75697269D01*
X139370634Y-75697967D01*
X139369666Y-75698705D01*
X139368771Y-75699482D01*
X139367947Y-75700300D01*
X139367192Y-75701160D01*
X139366501Y-75702062D01*
X139365874Y-75703008D01*
X139365306Y-75703999D01*
X139364796Y-75705034D01*
X139364341Y-75706117D01*
X139363938Y-75707246D01*
X139363584Y-75708424D01*
X139363277Y-75709651D01*
X139363014Y-75710928D01*
X139362611Y-75713637D01*
X139362351Y-75716557D01*
X139362216Y-75719697D01*
X139362182Y-75723064D01*
X139362447Y-76061360D01*
X139362718Y-76227519D01*
X139362558Y-76310603D01*
X139361759Y-76393677D01*
X139179137Y-76393677D01*
X139178932Y-75579554D01*
X139178976Y-75575250D01*
X139179132Y-75571240D01*
X139179428Y-75567512D01*
X139179897Y-75564052D01*
X139180570Y-75560849D01*
X139180992Y-75559339D01*
X139181476Y-75557889D01*
X139182027Y-75556497D01*
X139182649Y-75555162D01*
X139183344Y-75553880D01*
X139184117Y-75552653D01*
X139184973Y-75551476D01*
X139185913Y-75550350D01*
X139186944Y-75549273D01*
X139188068Y-75548242D01*
X139189289Y-75547257D01*
X139190612Y-75546315D01*
X139192040Y-75545416D01*
X139193576Y-75544557D01*
X139195226Y-75543738D01*
X139196992Y-75542956D01*
X139198879Y-75542210D01*
X139200890Y-75541499D01*
X139205302Y-75540174D01*
X139210258Y-75538967D01*
X139265925Y-75527589D01*
X139321752Y-75517862D01*
X139377725Y-75509903D01*
X139433831Y-75503831D01*
X139490056Y-75499762D01*
X139546387Y-75497816D01*
X139602809Y-75498110D01*
G37*
G36*
X138558668Y-75497579D02*
G01*
X138576720Y-75498363D01*
X138594774Y-75499550D01*
X138612827Y-75501135D01*
X138648919Y-75505470D01*
X138677195Y-75509751D01*
X138705399Y-75514500D01*
X138761671Y-75524930D01*
X138817884Y-75535816D01*
X138874185Y-75546215D01*
X138877607Y-75546894D01*
X138880753Y-75547686D01*
X138883629Y-75548605D01*
X138884968Y-75549114D01*
X138886242Y-75549660D01*
X138887452Y-75550242D01*
X138888599Y-75550863D01*
X138889684Y-75551524D01*
X138890707Y-75552226D01*
X138891670Y-75552971D01*
X138892572Y-75553760D01*
X138893416Y-75554594D01*
X138894201Y-75555476D01*
X138894929Y-75556405D01*
X138895601Y-75557385D01*
X138896216Y-75558416D01*
X138896777Y-75559499D01*
X138897284Y-75560636D01*
X138897738Y-75561829D01*
X138898139Y-75563079D01*
X138898489Y-75564387D01*
X138898788Y-75565755D01*
X138899037Y-75567183D01*
X138899238Y-75568675D01*
X138899390Y-75570230D01*
X138899552Y-75573538D01*
X138899532Y-75577118D01*
X138898877Y-75614960D01*
X138898778Y-75653113D01*
X138899056Y-75731529D01*
X138841628Y-75715482D01*
X138785709Y-75699674D01*
X138766252Y-75694364D01*
X138746738Y-75689580D01*
X138727170Y-75685311D01*
X138707552Y-75681549D01*
X138687888Y-75678282D01*
X138668181Y-75675501D01*
X138648434Y-75673196D01*
X138628652Y-75671357D01*
X138608837Y-75669973D01*
X138588994Y-75669035D01*
X138569126Y-75668533D01*
X138549236Y-75668457D01*
X138509405Y-75669542D01*
X138469532Y-75672210D01*
X138461895Y-75672998D01*
X138454233Y-75674047D01*
X138446556Y-75675347D01*
X138438876Y-75676887D01*
X138431204Y-75678657D01*
X138423552Y-75680649D01*
X138415931Y-75682851D01*
X138408353Y-75685254D01*
X138400829Y-75687848D01*
X138393370Y-75690623D01*
X138385988Y-75693570D01*
X138378694Y-75696677D01*
X138371500Y-75699936D01*
X138364416Y-75703337D01*
X138357455Y-75706868D01*
X138350628Y-75710522D01*
X138345542Y-75713459D01*
X138340699Y-75716542D01*
X138336096Y-75719768D01*
X138331727Y-75723132D01*
X138327590Y-75726630D01*
X138323679Y-75730258D01*
X138319991Y-75734012D01*
X138316522Y-75737886D01*
X138313267Y-75741878D01*
X138310223Y-75745983D01*
X138307385Y-75750197D01*
X138304749Y-75754515D01*
X138302310Y-75758934D01*
X138300066Y-75763449D01*
X138298012Y-75768057D01*
X138296143Y-75772752D01*
X138294456Y-75777531D01*
X138292946Y-75782389D01*
X138291610Y-75787323D01*
X138290443Y-75792328D01*
X138288599Y-75802534D01*
X138287383Y-75812975D01*
X138286761Y-75823617D01*
X138286701Y-75834426D01*
X138287170Y-75845369D01*
X138288133Y-75856413D01*
X138289507Y-75867040D01*
X138291344Y-75877390D01*
X138293670Y-75887432D01*
X138296514Y-75897137D01*
X138299900Y-75906475D01*
X138303857Y-75915414D01*
X138308410Y-75923926D01*
X138313586Y-75931978D01*
X138319412Y-75939542D01*
X138322577Y-75943132D01*
X138325915Y-75946588D01*
X138329428Y-75949906D01*
X138333121Y-75953084D01*
X138336996Y-75956117D01*
X138341057Y-75959001D01*
X138345306Y-75961732D01*
X138349749Y-75964308D01*
X138354387Y-75966723D01*
X138359224Y-75968975D01*
X138364264Y-75971059D01*
X138369510Y-75972973D01*
X138374965Y-75974710D01*
X138380632Y-75976270D01*
X138388468Y-75978172D01*
X138396370Y-75979904D01*
X138404326Y-75981452D01*
X138412322Y-75982804D01*
X138420345Y-75983948D01*
X138428383Y-75984871D01*
X138436422Y-75985561D01*
X138444449Y-75986005D01*
X138502953Y-75987463D01*
X138561481Y-75988301D01*
X138590725Y-75988876D01*
X138619940Y-75989764D01*
X138649114Y-75991119D01*
X138678235Y-75993097D01*
X138691482Y-75994456D01*
X138704488Y-75996393D01*
X138717243Y-75998895D01*
X138729738Y-76001948D01*
X138741964Y-76005541D01*
X138753910Y-76009661D01*
X138765568Y-76014294D01*
X138776929Y-76019429D01*
X138787982Y-76025052D01*
X138798718Y-76031151D01*
X138809129Y-76037713D01*
X138819204Y-76044726D01*
X138828934Y-76052177D01*
X138838310Y-76060053D01*
X138847323Y-76068341D01*
X138855962Y-76077029D01*
X138864219Y-76086104D01*
X138872084Y-76095554D01*
X138879548Y-76105365D01*
X138886601Y-76115526D01*
X138893234Y-76126023D01*
X138899437Y-76136843D01*
X138905202Y-76147975D01*
X138910518Y-76159405D01*
X138915377Y-76171120D01*
X138919768Y-76183108D01*
X138923683Y-76195357D01*
X138927112Y-76207853D01*
X138930046Y-76220585D01*
X138932474Y-76233538D01*
X138934389Y-76246701D01*
X138935780Y-76260061D01*
X138937480Y-76282783D01*
X138938667Y-76305389D01*
X138939182Y-76327881D01*
X138938869Y-76350264D01*
X138938353Y-76361416D01*
X138937572Y-76372541D01*
X138936505Y-76383640D01*
X138935133Y-76394714D01*
X138933436Y-76405762D01*
X138931395Y-76416786D01*
X138928990Y-76427786D01*
X138926202Y-76438761D01*
X138923084Y-76449471D01*
X138919667Y-76459866D01*
X138915955Y-76469948D01*
X138911952Y-76479723D01*
X138907663Y-76489194D01*
X138903092Y-76498365D01*
X138898243Y-76507239D01*
X138893122Y-76515822D01*
X138887732Y-76524116D01*
X138882078Y-76532126D01*
X138876164Y-76539855D01*
X138869994Y-76547308D01*
X138863574Y-76554488D01*
X138856907Y-76561400D01*
X138842852Y-76574433D01*
X138827863Y-76586438D01*
X138811976Y-76597448D01*
X138795227Y-76607492D01*
X138777649Y-76616603D01*
X138759280Y-76624812D01*
X138740154Y-76632151D01*
X138720306Y-76638650D01*
X138699772Y-76644342D01*
X138681055Y-76648800D01*
X138662293Y-76652680D01*
X138643489Y-76656001D01*
X138624648Y-76658781D01*
X138605775Y-76661037D01*
X138586873Y-76662786D01*
X138567946Y-76664048D01*
X138548999Y-76664841D01*
X138530036Y-76665181D01*
X138511061Y-76665086D01*
X138473092Y-76663667D01*
X138435125Y-76660726D01*
X138397194Y-76656407D01*
X138369640Y-76652423D01*
X138342169Y-76647832D01*
X138314760Y-76642781D01*
X138287392Y-76637416D01*
X138232694Y-76626336D01*
X138177908Y-76615767D01*
X138174473Y-76615064D01*
X138171309Y-76614238D01*
X138169827Y-76613776D01*
X138168410Y-76613280D01*
X138167058Y-76612748D01*
X138165770Y-76612179D01*
X138164545Y-76611572D01*
X138163383Y-76610926D01*
X138162282Y-76610240D01*
X138161243Y-76609511D01*
X138160263Y-76608740D01*
X138159344Y-76607924D01*
X138158483Y-76607063D01*
X138157680Y-76606156D01*
X138156935Y-76605200D01*
X138156246Y-76604196D01*
X138155613Y-76603140D01*
X138155036Y-76602034D01*
X138154512Y-76600874D01*
X138154043Y-76599661D01*
X138153626Y-76598392D01*
X138153262Y-76597067D01*
X138152949Y-76595683D01*
X138152687Y-76594241D01*
X138152474Y-76592739D01*
X138152311Y-76591175D01*
X138152130Y-76587859D01*
X138152137Y-76584281D01*
X138152770Y-76546625D01*
X138152871Y-76508612D01*
X138152613Y-76430242D01*
X138213407Y-76447929D01*
X138242557Y-76456227D01*
X138271464Y-76463950D01*
X138310831Y-76473271D01*
X138350348Y-76481117D01*
X138390011Y-76487368D01*
X138409897Y-76489860D01*
X138429817Y-76491909D01*
X138449772Y-76493501D01*
X138469762Y-76494622D01*
X138489785Y-76495256D01*
X138509842Y-76495389D01*
X138529932Y-76495006D01*
X138550054Y-76494094D01*
X138570207Y-76492636D01*
X138590393Y-76490619D01*
X138599961Y-76489430D01*
X138609499Y-76488024D01*
X138618983Y-76486370D01*
X138628389Y-76484435D01*
X138637690Y-76482188D01*
X138646864Y-76479598D01*
X138655884Y-76476631D01*
X138664727Y-76473256D01*
X138673368Y-76469442D01*
X138681783Y-76465156D01*
X138689945Y-76460366D01*
X138697832Y-76455042D01*
X138705418Y-76449150D01*
X138712678Y-76442660D01*
X138719588Y-76435538D01*
X138726124Y-76427754D01*
X138733158Y-76418057D01*
X138739294Y-76408203D01*
X138744558Y-76398201D01*
X138748974Y-76388063D01*
X138752568Y-76377800D01*
X138755365Y-76367423D01*
X138757390Y-76356942D01*
X138758668Y-76346368D01*
X138759224Y-76335713D01*
X138759083Y-76324986D01*
X138758271Y-76314199D01*
X138756812Y-76303363D01*
X138754732Y-76292489D01*
X138752056Y-76281587D01*
X138748809Y-76270668D01*
X138745015Y-76259744D01*
X138743094Y-76254846D01*
X138741032Y-76250125D01*
X138738833Y-76245578D01*
X138736499Y-76241202D01*
X138734032Y-76236998D01*
X138731436Y-76232961D01*
X138728713Y-76229092D01*
X138725866Y-76225387D01*
X138722897Y-76221846D01*
X138719810Y-76218466D01*
X138716606Y-76215245D01*
X138713289Y-76212182D01*
X138709861Y-76209274D01*
X138706325Y-76206521D01*
X138702683Y-76203920D01*
X138698938Y-76201469D01*
X138695093Y-76199167D01*
X138691151Y-76197011D01*
X138687114Y-76195000D01*
X138682985Y-76193132D01*
X138678766Y-76191406D01*
X138674461Y-76189819D01*
X138670072Y-76188369D01*
X138665601Y-76187056D01*
X138656425Y-76184828D01*
X138646956Y-76183122D01*
X138637215Y-76181922D01*
X138627223Y-76181215D01*
X138405132Y-76175182D01*
X138389220Y-76174123D01*
X138373521Y-76172531D01*
X138358054Y-76170374D01*
X138342835Y-76167621D01*
X138327881Y-76164240D01*
X138313209Y-76160200D01*
X138298836Y-76155469D01*
X138284779Y-76150014D01*
X138271056Y-76143805D01*
X138257682Y-76136809D01*
X138244675Y-76128996D01*
X138232052Y-76120332D01*
X138219830Y-76110787D01*
X138208026Y-76100329D01*
X138196657Y-76088926D01*
X138185739Y-76076547D01*
X138179752Y-76069046D01*
X138174107Y-76061392D01*
X138168795Y-76053588D01*
X138163805Y-76045640D01*
X138159128Y-76037551D01*
X138154753Y-76029327D01*
X138150671Y-76020972D01*
X138146872Y-76012491D01*
X138143345Y-76003888D01*
X138140082Y-75995168D01*
X138137072Y-75986337D01*
X138134304Y-75977397D01*
X138131770Y-75968355D01*
X138129459Y-75959214D01*
X138127361Y-75949980D01*
X138125467Y-75940656D01*
X138120693Y-75912730D01*
X138118771Y-75898765D01*
X138117181Y-75884803D01*
X138115941Y-75870846D01*
X138115070Y-75856896D01*
X138114583Y-75842956D01*
X138114500Y-75829028D01*
X138114837Y-75815116D01*
X138115612Y-75801221D01*
X138116843Y-75787345D01*
X138118547Y-75773492D01*
X138120741Y-75759664D01*
X138123443Y-75745863D01*
X138126671Y-75732092D01*
X138130441Y-75718353D01*
X138133785Y-75707722D01*
X138137424Y-75697416D01*
X138141353Y-75687430D01*
X138145568Y-75677760D01*
X138150064Y-75668402D01*
X138154837Y-75659351D01*
X138159883Y-75650603D01*
X138165195Y-75642153D01*
X138170771Y-75633997D01*
X138176605Y-75626131D01*
X138182693Y-75618549D01*
X138189030Y-75611249D01*
X138195612Y-75604224D01*
X138202435Y-75597472D01*
X138209493Y-75590987D01*
X138216781Y-75584765D01*
X138232034Y-75573092D01*
X138248157Y-75562418D01*
X138265112Y-75552708D01*
X138282864Y-75543926D01*
X138301375Y-75536038D01*
X138320610Y-75529006D01*
X138340533Y-75522798D01*
X138361105Y-75517376D01*
X138378934Y-75513308D01*
X138396797Y-75509713D01*
X138414694Y-75506583D01*
X138432619Y-75503914D01*
X138450571Y-75501699D01*
X138468547Y-75499930D01*
X138486543Y-75498603D01*
X138504556Y-75497711D01*
X138522583Y-75497247D01*
X138540621Y-75497205D01*
X138558668Y-75497579D01*
G37*
G36*
X138508165Y-77588000D02*
G01*
X138526778Y-77588498D01*
X138545394Y-77589391D01*
X138582621Y-77592297D01*
X138619815Y-77596577D01*
X138647369Y-77600584D01*
X138674840Y-77605204D01*
X138702249Y-77610294D01*
X138729617Y-77615706D01*
X138784315Y-77626923D01*
X138839102Y-77637693D01*
X138842431Y-77638387D01*
X138845497Y-77639204D01*
X138846933Y-77639662D01*
X138848305Y-77640154D01*
X138849614Y-77640682D01*
X138850862Y-77641247D01*
X138852047Y-77641849D01*
X138853172Y-77642491D01*
X138854237Y-77643174D01*
X138855243Y-77643897D01*
X138856190Y-77644664D01*
X138857079Y-77645474D01*
X138857912Y-77646330D01*
X138858687Y-77647231D01*
X138859408Y-77648180D01*
X138860073Y-77649178D01*
X138860684Y-77650226D01*
X138861241Y-77651324D01*
X138861746Y-77652475D01*
X138862199Y-77653679D01*
X138862600Y-77654938D01*
X138862951Y-77656252D01*
X138863252Y-77657623D01*
X138863504Y-77659053D01*
X138863708Y-77660541D01*
X138863864Y-77662090D01*
X138864035Y-77665374D01*
X138864025Y-77668914D01*
X138863348Y-77708227D01*
X138863251Y-77747793D01*
X138863549Y-77828458D01*
X138793686Y-77808018D01*
X138776452Y-77803082D01*
X138759235Y-77798364D01*
X138741996Y-77793939D01*
X138724696Y-77789881D01*
X138681211Y-77780744D01*
X138637663Y-77772985D01*
X138615862Y-77769754D01*
X138594040Y-77767027D01*
X138572196Y-77764857D01*
X138550329Y-77763297D01*
X138528435Y-77762400D01*
X138506515Y-77762218D01*
X138484566Y-77762806D01*
X138462587Y-77764216D01*
X138440576Y-77766501D01*
X138418531Y-77769714D01*
X138396451Y-77773909D01*
X138374334Y-77779139D01*
X138362844Y-77782463D01*
X138351972Y-77786268D01*
X138341709Y-77790535D01*
X138332047Y-77795241D01*
X138322977Y-77800367D01*
X138314490Y-77805890D01*
X138306578Y-77811790D01*
X138299232Y-77818046D01*
X138292444Y-77824637D01*
X138286205Y-77831541D01*
X138280505Y-77838739D01*
X138275338Y-77846208D01*
X138270693Y-77853928D01*
X138266562Y-77861878D01*
X138262937Y-77870037D01*
X138259809Y-77878384D01*
X138257170Y-77886897D01*
X138255010Y-77895557D01*
X138253321Y-77904341D01*
X138252095Y-77913229D01*
X138251322Y-77922199D01*
X138250995Y-77931232D01*
X138251104Y-77940305D01*
X138251640Y-77949398D01*
X138252596Y-77958490D01*
X138253963Y-77967560D01*
X138255731Y-77976586D01*
X138257893Y-77985548D01*
X138260440Y-77994425D01*
X138263362Y-78003195D01*
X138266652Y-78011838D01*
X138270300Y-78020333D01*
X138272411Y-78024744D01*
X138274646Y-78028989D01*
X138277001Y-78033070D01*
X138279474Y-78036989D01*
X138282063Y-78040747D01*
X138284764Y-78044348D01*
X138287575Y-78047793D01*
X138290493Y-78051083D01*
X138293516Y-78054222D01*
X138296641Y-78057211D01*
X138299865Y-78060052D01*
X138303186Y-78062746D01*
X138306600Y-78065297D01*
X138310107Y-78067706D01*
X138313702Y-78069975D01*
X138317383Y-78072105D01*
X138321147Y-78074100D01*
X138324992Y-78075961D01*
X138328916Y-78077690D01*
X138332914Y-78079289D01*
X138336986Y-78080760D01*
X138341128Y-78082105D01*
X138345337Y-78083327D01*
X138349611Y-78084426D01*
X138358342Y-78086267D01*
X138367301Y-78087644D01*
X138376467Y-78088574D01*
X138385817Y-78089072D01*
X138407323Y-78089520D01*
X138428854Y-78089581D01*
X138471945Y-78089177D01*
X138493485Y-78089030D01*
X138515007Y-78089131D01*
X138536501Y-78089639D01*
X138557955Y-78090712D01*
X138575867Y-78092029D01*
X138593818Y-78093667D01*
X138611768Y-78095670D01*
X138629677Y-78098081D01*
X138647503Y-78100943D01*
X138665208Y-78104300D01*
X138682750Y-78108195D01*
X138700089Y-78112672D01*
X138711973Y-78116237D01*
X138723423Y-78120185D01*
X138734444Y-78124508D01*
X138745045Y-78129194D01*
X138755231Y-78134234D01*
X138765010Y-78139616D01*
X138774388Y-78145330D01*
X138783374Y-78151365D01*
X138791973Y-78157712D01*
X138800193Y-78164359D01*
X138808040Y-78171296D01*
X138815523Y-78178513D01*
X138822647Y-78185999D01*
X138829419Y-78193743D01*
X138835848Y-78201736D01*
X138841939Y-78209966D01*
X138847699Y-78218424D01*
X138853136Y-78227098D01*
X138863069Y-78245053D01*
X138871791Y-78263750D01*
X138879360Y-78283103D01*
X138885831Y-78303029D01*
X138891259Y-78323443D01*
X138895702Y-78344262D01*
X138899214Y-78365402D01*
X138902232Y-78389811D01*
X138903357Y-78402000D01*
X138904216Y-78414177D01*
X138904799Y-78426340D01*
X138905099Y-78438490D01*
X138905108Y-78450624D01*
X138904817Y-78462742D01*
X138904217Y-78474843D01*
X138903301Y-78486926D01*
X138902061Y-78498988D01*
X138900487Y-78511031D01*
X138898571Y-78523051D01*
X138896307Y-78535049D01*
X138893684Y-78547023D01*
X138890695Y-78558971D01*
X138887638Y-78569783D01*
X138884287Y-78580290D01*
X138880644Y-78590498D01*
X138876713Y-78600410D01*
X138872499Y-78610027D01*
X138868004Y-78619354D01*
X138863234Y-78628394D01*
X138858190Y-78637150D01*
X138852879Y-78645626D01*
X138847303Y-78653823D01*
X138841465Y-78661746D01*
X138835371Y-78669398D01*
X138822427Y-78683900D01*
X138808502Y-78697356D01*
X138793625Y-78709790D01*
X138777827Y-78721228D01*
X138761139Y-78731696D01*
X138743593Y-78741219D01*
X138725217Y-78749823D01*
X138706044Y-78757533D01*
X138686104Y-78764375D01*
X138665428Y-78770374D01*
X138646926Y-78774981D01*
X138628371Y-78778994D01*
X138609770Y-78782432D01*
X138591126Y-78785313D01*
X138572444Y-78787658D01*
X138553730Y-78789486D01*
X138534988Y-78790815D01*
X138516223Y-78791666D01*
X138497440Y-78792057D01*
X138478644Y-78792007D01*
X138459840Y-78791537D01*
X138441033Y-78790666D01*
X138403427Y-78787795D01*
X138365867Y-78783550D01*
X138337933Y-78779507D01*
X138310081Y-78774855D01*
X138282290Y-78769731D01*
X138254543Y-78764274D01*
X138199105Y-78752920D01*
X138143617Y-78741904D01*
X138141693Y-78741516D01*
X138139850Y-78741085D01*
X138138087Y-78740611D01*
X138136401Y-78740093D01*
X138134794Y-78739531D01*
X138133262Y-78738924D01*
X138131805Y-78738271D01*
X138130422Y-78737571D01*
X138129112Y-78736824D01*
X138127874Y-78736030D01*
X138126706Y-78735187D01*
X138125607Y-78734295D01*
X138124576Y-78733353D01*
X138123612Y-78732361D01*
X138122715Y-78731317D01*
X138121881Y-78730222D01*
X138121112Y-78729075D01*
X138120405Y-78727874D01*
X138119759Y-78726620D01*
X138119173Y-78725311D01*
X138118646Y-78723947D01*
X138118177Y-78722528D01*
X138117765Y-78721052D01*
X138117408Y-78719520D01*
X138117106Y-78717929D01*
X138116857Y-78716280D01*
X138116660Y-78714573D01*
X138116514Y-78712805D01*
X138116371Y-78709089D01*
X138116418Y-78705126D01*
X138116942Y-78686264D01*
X138117237Y-78667357D01*
X138117337Y-78629293D01*
X138116947Y-78551353D01*
X138161058Y-78563491D01*
X138203922Y-78575550D01*
X138225069Y-78581295D01*
X138246123Y-78586715D01*
X138267155Y-78591709D01*
X138288239Y-78596174D01*
X138327489Y-78603476D01*
X138366783Y-78609676D01*
X138386449Y-78612236D01*
X138406130Y-78614370D01*
X138425827Y-78616026D01*
X138445540Y-78617155D01*
X138465271Y-78617706D01*
X138485022Y-78617629D01*
X138504793Y-78616872D01*
X138524585Y-78615387D01*
X138544400Y-78613122D01*
X138564239Y-78610028D01*
X138584103Y-78606053D01*
X138603993Y-78601148D01*
X138615642Y-78597631D01*
X138626619Y-78593587D01*
X138636933Y-78589043D01*
X138646598Y-78584024D01*
X138655624Y-78578557D01*
X138664025Y-78572667D01*
X138671811Y-78566381D01*
X138678995Y-78559726D01*
X138685589Y-78552727D01*
X138691605Y-78545411D01*
X138697053Y-78537803D01*
X138701948Y-78529931D01*
X138706299Y-78521819D01*
X138710119Y-78513495D01*
X138713421Y-78504984D01*
X138716216Y-78496313D01*
X138718515Y-78487508D01*
X138720331Y-78478595D01*
X138721676Y-78469600D01*
X138722561Y-78460550D01*
X138722999Y-78451471D01*
X138723001Y-78442388D01*
X138722579Y-78433328D01*
X138721745Y-78424318D01*
X138720512Y-78415383D01*
X138718890Y-78406549D01*
X138716892Y-78397843D01*
X138714530Y-78389292D01*
X138711816Y-78380920D01*
X138708761Y-78372755D01*
X138705377Y-78364823D01*
X138701677Y-78357149D01*
X138699379Y-78352863D01*
X138696964Y-78348745D01*
X138694433Y-78344792D01*
X138691790Y-78341002D01*
X138689038Y-78337372D01*
X138686179Y-78333901D01*
X138683216Y-78330584D01*
X138680153Y-78327421D01*
X138676991Y-78324408D01*
X138673735Y-78321544D01*
X138670386Y-78318825D01*
X138666948Y-78316249D01*
X138663423Y-78313814D01*
X138659815Y-78311517D01*
X138656125Y-78309356D01*
X138652358Y-78307328D01*
X138648516Y-78305431D01*
X138644602Y-78303662D01*
X138640619Y-78302019D01*
X138636569Y-78300500D01*
X138628281Y-78297822D01*
X138619762Y-78295608D01*
X138611034Y-78293839D01*
X138602122Y-78292495D01*
X138593046Y-78291556D01*
X138583832Y-78291003D01*
X138561948Y-78290415D01*
X138540041Y-78290282D01*
X138496195Y-78290679D01*
X138474278Y-78290856D01*
X138452379Y-78290787D01*
X138430509Y-78290295D01*
X138408677Y-78289204D01*
X138391151Y-78287833D01*
X138373601Y-78286087D01*
X138356062Y-78283941D01*
X138338569Y-78281372D01*
X138321159Y-78278357D01*
X138303865Y-78274872D01*
X138286724Y-78270893D01*
X138269771Y-78266396D01*
X138256046Y-78262120D01*
X138242853Y-78257160D01*
X138230189Y-78251529D01*
X138218057Y-78245240D01*
X138206454Y-78238307D01*
X138195381Y-78230745D01*
X138184838Y-78222566D01*
X138174825Y-78213784D01*
X138165342Y-78204413D01*
X138156388Y-78194467D01*
X138147963Y-78183959D01*
X138140067Y-78172903D01*
X138132701Y-78161312D01*
X138125863Y-78149200D01*
X138119553Y-78136581D01*
X138113773Y-78123469D01*
X138106963Y-78106040D01*
X138100912Y-78088522D01*
X138095611Y-78070921D01*
X138091048Y-78053240D01*
X138087214Y-78035484D01*
X138084096Y-78017657D01*
X138081686Y-77999765D01*
X138079972Y-77981811D01*
X138078944Y-77963800D01*
X138078591Y-77945736D01*
X138078904Y-77927624D01*
X138079870Y-77909469D01*
X138081480Y-77891274D01*
X138083723Y-77873045D01*
X138086588Y-77854786D01*
X138090066Y-77836501D01*
X138092715Y-77824720D01*
X138095707Y-77813277D01*
X138099037Y-77802167D01*
X138102702Y-77791387D01*
X138106696Y-77780934D01*
X138111017Y-77770803D01*
X138115658Y-77760991D01*
X138120616Y-77751495D01*
X138125886Y-77742310D01*
X138131464Y-77733433D01*
X138137345Y-77724861D01*
X138143525Y-77716589D01*
X138150000Y-77708615D01*
X138156765Y-77700933D01*
X138163816Y-77693542D01*
X138171148Y-77686436D01*
X138186638Y-77673068D01*
X138203201Y-77660800D01*
X138220800Y-77649602D01*
X138239400Y-77639445D01*
X138258967Y-77630300D01*
X138279465Y-77622138D01*
X138300858Y-77614928D01*
X138323111Y-77608642D01*
X138341470Y-77604220D01*
X138359871Y-77600368D01*
X138378312Y-77597070D01*
X138396789Y-77594307D01*
X138415296Y-77592062D01*
X138433831Y-77590318D01*
X138452389Y-77589058D01*
X138470967Y-77588263D01*
X138489560Y-77587916D01*
X138508165Y-77588000D01*
G37*
G36*
X145780879Y-71713232D02*
G01*
X145785789Y-71731997D01*
X145791254Y-71750394D01*
X145797430Y-71768339D01*
X145804475Y-71785746D01*
X145812549Y-71802531D01*
X145821807Y-71818608D01*
X145832409Y-71833893D01*
X145838263Y-71841211D01*
X145844513Y-71848299D01*
X145851176Y-71855146D01*
X145858275Y-71861742D01*
X145865828Y-71868076D01*
X145873854Y-71874137D01*
X145882375Y-71879915D01*
X145891408Y-71885399D01*
X145900976Y-71890578D01*
X145911096Y-71895443D01*
X145901003Y-71900339D01*
X145891460Y-71905547D01*
X145882445Y-71911056D01*
X145873941Y-71916855D01*
X145865927Y-71922934D01*
X145858384Y-71929282D01*
X145851292Y-71935890D01*
X145844632Y-71942746D01*
X145838385Y-71949841D01*
X145832530Y-71957163D01*
X145827049Y-71964703D01*
X145821921Y-71972451D01*
X145817128Y-71980395D01*
X145812650Y-71988526D01*
X145808468Y-71996832D01*
X145804561Y-72005304D01*
X145797497Y-72022703D01*
X145791303Y-72040640D01*
X145785823Y-72059032D01*
X145780901Y-72077794D01*
X145772106Y-72116100D01*
X145763670Y-72154893D01*
X145746198Y-72078629D01*
X145741286Y-72059956D01*
X145735831Y-72041614D01*
X145729669Y-72023689D01*
X145722640Y-72006270D01*
X145714579Y-71989443D01*
X145705324Y-71973295D01*
X145694712Y-71957914D01*
X145688847Y-71950538D01*
X145682581Y-71943386D01*
X145675895Y-71936469D01*
X145668768Y-71929798D01*
X145661180Y-71923384D01*
X145653110Y-71917238D01*
X145644538Y-71911371D01*
X145635445Y-71905793D01*
X145625808Y-71900515D01*
X145615609Y-71895548D01*
X145625808Y-71890629D01*
X145635443Y-71885394D01*
X145644536Y-71879854D01*
X145653106Y-71874019D01*
X145661173Y-71867902D01*
X145668758Y-71861513D01*
X145675882Y-71854864D01*
X145682565Y-71847964D01*
X145688827Y-71840826D01*
X145694689Y-71833460D01*
X145700171Y-71825878D01*
X145705293Y-71818090D01*
X145710076Y-71810108D01*
X145714540Y-71801942D01*
X145718706Y-71793604D01*
X145722594Y-71785105D01*
X145729616Y-71767667D01*
X145735771Y-71749716D01*
X145741222Y-71731342D01*
X145746131Y-71712631D01*
X145763617Y-71636204D01*
X145780879Y-71713232D01*
G37*
G36*
X143136138Y-72488233D02*
G01*
X143147638Y-72540168D01*
X143154143Y-72565666D01*
X143161444Y-72590696D01*
X143169758Y-72615141D01*
X143179306Y-72638882D01*
X143190305Y-72661804D01*
X143202975Y-72683789D01*
X143210004Y-72694393D01*
X143217534Y-72704720D01*
X143225590Y-72714753D01*
X143234201Y-72724480D01*
X143243393Y-72733884D01*
X143253195Y-72742952D01*
X143263633Y-72751668D01*
X143274735Y-72760019D01*
X143286528Y-72767989D01*
X143299040Y-72775564D01*
X143312297Y-72782729D01*
X143326328Y-72789470D01*
X143315856Y-72793547D01*
X143305833Y-72797952D01*
X143296246Y-72802675D01*
X143287080Y-72807707D01*
X143278324Y-72813037D01*
X143269963Y-72818656D01*
X143261984Y-72824553D01*
X143254374Y-72830719D01*
X143247119Y-72837144D01*
X143240207Y-72843817D01*
X143233622Y-72850729D01*
X143227353Y-72857870D01*
X143221386Y-72865230D01*
X143215707Y-72872799D01*
X143210304Y-72880566D01*
X143205162Y-72888523D01*
X143195610Y-72904964D01*
X143186944Y-72922041D01*
X143179058Y-72939675D01*
X143171844Y-72957787D01*
X143165196Y-72976296D01*
X143159006Y-72995124D01*
X143147575Y-73033416D01*
X143144177Y-73046147D01*
X143141199Y-73058906D01*
X143138567Y-73071582D01*
X143136211Y-73084064D01*
X143128102Y-73129830D01*
X143101372Y-73035241D01*
X143094192Y-73010692D01*
X143086571Y-72986047D01*
X143078389Y-72961439D01*
X143069524Y-72937001D01*
X143064444Y-72924399D01*
X143058911Y-72912126D01*
X143052905Y-72900210D01*
X143046401Y-72888675D01*
X143039377Y-72877546D01*
X143031811Y-72866849D01*
X143023679Y-72856609D01*
X143014959Y-72846851D01*
X143005629Y-72837602D01*
X142995665Y-72828886D01*
X142985044Y-72820728D01*
X142973745Y-72813154D01*
X142961744Y-72806190D01*
X142949019Y-72799860D01*
X142935547Y-72794190D01*
X142921304Y-72789205D01*
X142932448Y-72784708D01*
X142943097Y-72779884D01*
X142953267Y-72774743D01*
X142962972Y-72769295D01*
X142972227Y-72763550D01*
X142981048Y-72757517D01*
X142989447Y-72751207D01*
X142997441Y-72744629D01*
X143005045Y-72737793D01*
X143012271Y-72730708D01*
X143019137Y-72723386D01*
X143025655Y-72715834D01*
X143031842Y-72708064D01*
X143037711Y-72700084D01*
X143043277Y-72691906D01*
X143048556Y-72683537D01*
X143058308Y-72666272D01*
X143067086Y-72648366D01*
X143075006Y-72629898D01*
X143082188Y-72610946D01*
X143088748Y-72591590D01*
X143094804Y-72571906D01*
X143105878Y-72531872D01*
X143108813Y-72520159D01*
X143111470Y-72508359D01*
X143113914Y-72496474D01*
X143116210Y-72484505D01*
X143125192Y-72435828D01*
X143136138Y-72488233D01*
G37*
G36*
X140240877Y-77588806D02*
G01*
X140255930Y-77589379D01*
X140270964Y-77590340D01*
X140285978Y-77591704D01*
X140300970Y-77593486D01*
X140315937Y-77595702D01*
X140330877Y-77598365D01*
X140345787Y-77601492D01*
X140360666Y-77605097D01*
X140387397Y-77612932D01*
X140412678Y-77622189D01*
X140436532Y-77632840D01*
X140447931Y-77638680D01*
X140458981Y-77644857D01*
X140469687Y-77651368D01*
X140480050Y-77658210D01*
X140490075Y-77665378D01*
X140499762Y-77672871D01*
X140518139Y-77688811D01*
X140535205Y-77706003D01*
X140550983Y-77724416D01*
X140565497Y-77744024D01*
X140578768Y-77764796D01*
X140590822Y-77786705D01*
X140601680Y-77809722D01*
X140611366Y-77833818D01*
X140619902Y-77858964D01*
X140627314Y-77885133D01*
X140631991Y-77904295D01*
X140636184Y-77923503D01*
X140639897Y-77942754D01*
X140643132Y-77962047D01*
X140645896Y-77981380D01*
X140648191Y-78000750D01*
X140650021Y-78020156D01*
X140651391Y-78039597D01*
X140652304Y-78059069D01*
X140652765Y-78078572D01*
X140652778Y-78098104D01*
X140652347Y-78117662D01*
X140651475Y-78137245D01*
X140650167Y-78156851D01*
X140648426Y-78176478D01*
X140646258Y-78196124D01*
X140643842Y-78215146D01*
X140642643Y-78222841D01*
X140641320Y-78229440D01*
X140640582Y-78232354D01*
X140639778Y-78235025D01*
X140638894Y-78237464D01*
X140637920Y-78239682D01*
X140636842Y-78241688D01*
X140635649Y-78243494D01*
X140634329Y-78245111D01*
X140632870Y-78246547D01*
X140631259Y-78247815D01*
X140629485Y-78248925D01*
X140627536Y-78249887D01*
X140625399Y-78250712D01*
X140623063Y-78251410D01*
X140620515Y-78251992D01*
X140617743Y-78252469D01*
X140614736Y-78252850D01*
X140607966Y-78253371D01*
X140600109Y-78253638D01*
X140580747Y-78253751D01*
X139935058Y-78253751D01*
X139934375Y-78288604D01*
X139936112Y-78322482D01*
X139940295Y-78355241D01*
X139946948Y-78386735D01*
X139951207Y-78401962D01*
X139956094Y-78416818D01*
X139961610Y-78431286D01*
X139967759Y-78445348D01*
X139974544Y-78458984D01*
X139981967Y-78472177D01*
X139990033Y-78484909D01*
X139998743Y-78497161D01*
X140008101Y-78508916D01*
X140018111Y-78520155D01*
X140028775Y-78530861D01*
X140040095Y-78541014D01*
X140052076Y-78550598D01*
X140064721Y-78559594D01*
X140078032Y-78567983D01*
X140092012Y-78575748D01*
X140106665Y-78582870D01*
X140121993Y-78589332D01*
X140138000Y-78595115D01*
X140154689Y-78600201D01*
X140172062Y-78604572D01*
X140190124Y-78608210D01*
X140208876Y-78611096D01*
X140228322Y-78613213D01*
X140252003Y-78614947D01*
X140275589Y-78616015D01*
X140299092Y-78616435D01*
X140322525Y-78616228D01*
X140345900Y-78615412D01*
X140369230Y-78614008D01*
X140392528Y-78612034D01*
X140415806Y-78609509D01*
X140439076Y-78606454D01*
X140462351Y-78602887D01*
X140508967Y-78594297D01*
X140555754Y-78583894D01*
X140602813Y-78571832D01*
X140602979Y-78654111D01*
X140602702Y-78694683D01*
X140601755Y-78735081D01*
X140601695Y-78735675D01*
X140601558Y-78736285D01*
X140601346Y-78736910D01*
X140601063Y-78737548D01*
X140600713Y-78738195D01*
X140600299Y-78738851D01*
X140599825Y-78739514D01*
X140599295Y-78740181D01*
X140598710Y-78740851D01*
X140598076Y-78741521D01*
X140597396Y-78742190D01*
X140596673Y-78742856D01*
X140595112Y-78744169D01*
X140593421Y-78745446D01*
X140591628Y-78746669D01*
X140589762Y-78747825D01*
X140587850Y-78748896D01*
X140585920Y-78749867D01*
X140584000Y-78750722D01*
X140582117Y-78751447D01*
X140580301Y-78752024D01*
X140579426Y-78752252D01*
X140578578Y-78752438D01*
X140483400Y-78772797D01*
X140459545Y-78777394D01*
X140435650Y-78781384D01*
X140411707Y-78784564D01*
X140399714Y-78785785D01*
X140387707Y-78786727D01*
X140348294Y-78789123D01*
X140308830Y-78790839D01*
X140269368Y-78791470D01*
X140249655Y-78791252D01*
X140229962Y-78790610D01*
X140210297Y-78789494D01*
X140190666Y-78787852D01*
X140171075Y-78785635D01*
X140151532Y-78782791D01*
X140132042Y-78779269D01*
X140112613Y-78775020D01*
X140093252Y-78769991D01*
X140073964Y-78764132D01*
X140044602Y-78753532D01*
X140016839Y-78741478D01*
X139990648Y-78727999D01*
X139965998Y-78713124D01*
X139942861Y-78696885D01*
X139921206Y-78679310D01*
X139901004Y-78660430D01*
X139882227Y-78640274D01*
X139864844Y-78618872D01*
X139848827Y-78596254D01*
X139834145Y-78572451D01*
X139820770Y-78547490D01*
X139808672Y-78521404D01*
X139797822Y-78494221D01*
X139788190Y-78465971D01*
X139779747Y-78436684D01*
X139774024Y-78413721D01*
X139768946Y-78390712D01*
X139764494Y-78367657D01*
X139760648Y-78344558D01*
X139757388Y-78321415D01*
X139754696Y-78298230D01*
X139752551Y-78275002D01*
X139750934Y-78251733D01*
X139749207Y-78205075D01*
X139749357Y-78158263D01*
X139751228Y-78111303D01*
X139754252Y-78069865D01*
X139931513Y-78069865D01*
X140472215Y-78069865D01*
X140473347Y-78050703D01*
X140473338Y-78031069D01*
X140472201Y-78011126D01*
X140469951Y-77991036D01*
X140466602Y-77970962D01*
X140462168Y-77951067D01*
X140456661Y-77931513D01*
X140450096Y-77912464D01*
X140442487Y-77894083D01*
X140433848Y-77876531D01*
X140424192Y-77859972D01*
X140413532Y-77844569D01*
X140401884Y-77830484D01*
X140389261Y-77817880D01*
X140382588Y-77812185D01*
X140375676Y-77806921D01*
X140368527Y-77802108D01*
X140361143Y-77797768D01*
X140342327Y-77788180D01*
X140323432Y-77779895D01*
X140304477Y-77772914D01*
X140285477Y-77767235D01*
X140266450Y-77762859D01*
X140247411Y-77759786D01*
X140228377Y-77758014D01*
X140209365Y-77757544D01*
X140190392Y-77758376D01*
X140171473Y-77760509D01*
X140152626Y-77763944D01*
X140133868Y-77768679D01*
X140115214Y-77774715D01*
X140096682Y-77782051D01*
X140078287Y-77790688D01*
X140060047Y-77800625D01*
X140050918Y-77806212D01*
X140042245Y-77812054D01*
X140034015Y-77818144D01*
X140026216Y-77824474D01*
X140018834Y-77831038D01*
X140011859Y-77837827D01*
X140005276Y-77844835D01*
X139999073Y-77852055D01*
X139993238Y-77859479D01*
X139987758Y-77867100D01*
X139982621Y-77874910D01*
X139977813Y-77882903D01*
X139973323Y-77891071D01*
X139969137Y-77899406D01*
X139961629Y-77916552D01*
X139955188Y-77934282D01*
X139949713Y-77952538D01*
X139945104Y-77971262D01*
X139941260Y-77990396D01*
X139938079Y-78009881D01*
X139935462Y-78029660D01*
X139933307Y-78049674D01*
X139931513Y-78069865D01*
X139754252Y-78069865D01*
X139754665Y-78064203D01*
X139758518Y-78027200D01*
X139763641Y-77990604D01*
X139766750Y-77972477D01*
X139770262Y-77954475D01*
X139774206Y-77936605D01*
X139778610Y-77918874D01*
X139783502Y-77901290D01*
X139788912Y-77883861D01*
X139794867Y-77866594D01*
X139801397Y-77849496D01*
X139808530Y-77832575D01*
X139816293Y-77815839D01*
X139824717Y-77799295D01*
X139833828Y-77782951D01*
X139846202Y-77762960D01*
X139859362Y-77744135D01*
X139873300Y-77726465D01*
X139888002Y-77709937D01*
X139903458Y-77694540D01*
X139919658Y-77680261D01*
X139936589Y-77667089D01*
X139954240Y-77655011D01*
X139972601Y-77644016D01*
X139991661Y-77634092D01*
X140011407Y-77625227D01*
X140031829Y-77617409D01*
X140052916Y-77610626D01*
X140074657Y-77604865D01*
X140097040Y-77600116D01*
X140120054Y-77596366D01*
X140150296Y-77592663D01*
X140180525Y-77590088D01*
X140195630Y-77589262D01*
X140210724Y-77588762D01*
X140225808Y-77588605D01*
X140240877Y-77588806D01*
G37*
G36*
X137034314Y-75582750D02*
G01*
X137053917Y-75583740D01*
X137073506Y-75585391D01*
X137093082Y-75587693D01*
X137112647Y-75590636D01*
X137132201Y-75594210D01*
X137151744Y-75598407D01*
X137171279Y-75603217D01*
X137190806Y-75608630D01*
X137210326Y-75614637D01*
X137210326Y-75714014D01*
X137195532Y-75710281D01*
X137180748Y-75706351D01*
X137151145Y-75698424D01*
X137136295Y-75694689D01*
X137121393Y-75691281D01*
X137106423Y-75688331D01*
X137098907Y-75687068D01*
X137091369Y-75685969D01*
X137066702Y-75683092D01*
X137054361Y-75682003D01*
X137042022Y-75681181D01*
X137029688Y-75680649D01*
X137017367Y-75680432D01*
X137005062Y-75680554D01*
X136992778Y-75681041D01*
X136980522Y-75681917D01*
X136968297Y-75683206D01*
X136956108Y-75684933D01*
X136943962Y-75687122D01*
X136931862Y-75689799D01*
X136919815Y-75692987D01*
X136907824Y-75696712D01*
X136895895Y-75700997D01*
X136888846Y-75703842D01*
X136882016Y-75706868D01*
X136875405Y-75710072D01*
X136869011Y-75713452D01*
X136862833Y-75717005D01*
X136856871Y-75720729D01*
X136851122Y-75724620D01*
X136845587Y-75728676D01*
X136840265Y-75732894D01*
X136835154Y-75737271D01*
X136830253Y-75741805D01*
X136825562Y-75746494D01*
X136821080Y-75751333D01*
X136816805Y-75756321D01*
X136812736Y-75761456D01*
X136808873Y-75766733D01*
X136805215Y-75772150D01*
X136801760Y-75777706D01*
X136798509Y-75783396D01*
X136795458Y-75789219D01*
X136792609Y-75795171D01*
X136789960Y-75801251D01*
X136785256Y-75813779D01*
X136781340Y-75826782D01*
X136778203Y-75840239D01*
X136775839Y-75854127D01*
X136774239Y-75868425D01*
X136772976Y-75888123D01*
X136772477Y-75907992D01*
X136772739Y-75927959D01*
X136773756Y-75947946D01*
X136775525Y-75967879D01*
X136778042Y-75987681D01*
X136781301Y-76007278D01*
X136785299Y-76026593D01*
X136787581Y-76035772D01*
X136790146Y-76044602D01*
X136792988Y-76053086D01*
X136796099Y-76061233D01*
X136799474Y-76069046D01*
X136803105Y-76076533D01*
X136806986Y-76083699D01*
X136811111Y-76090550D01*
X136815471Y-76097091D01*
X136820061Y-76103328D01*
X136824875Y-76109268D01*
X136829904Y-76114915D01*
X136835144Y-76120277D01*
X136840586Y-76125358D01*
X136846225Y-76130164D01*
X136852053Y-76134702D01*
X136858064Y-76138977D01*
X136864252Y-76142994D01*
X136870609Y-76146761D01*
X136877129Y-76150282D01*
X136890631Y-76156610D01*
X136904704Y-76162027D01*
X136919294Y-76166577D01*
X136934350Y-76170309D01*
X136949816Y-76173268D01*
X136965639Y-76175501D01*
X136973788Y-76176348D01*
X136981964Y-76176998D01*
X136998400Y-76177784D01*
X137014954Y-76178018D01*
X137031633Y-76177855D01*
X137065391Y-76176974D01*
X137082484Y-76176570D01*
X137099730Y-76176400D01*
X137099730Y-75947218D01*
X137211966Y-75947218D01*
X137212019Y-76087811D01*
X137211278Y-76227254D01*
X137211247Y-76227899D01*
X137211166Y-76228562D01*
X137211037Y-76229242D01*
X137210861Y-76229936D01*
X137210640Y-76230642D01*
X137210378Y-76231358D01*
X137209733Y-76232813D01*
X137208943Y-76234285D01*
X137208024Y-76235755D01*
X137206991Y-76237210D01*
X137205861Y-76238631D01*
X137204650Y-76240002D01*
X137203373Y-76241308D01*
X137202048Y-76242530D01*
X137200689Y-76243655D01*
X137199313Y-76244663D01*
X137197937Y-76245540D01*
X137196575Y-76246269D01*
X137195905Y-76246573D01*
X137195245Y-76246833D01*
X137181090Y-76251713D01*
X137166886Y-76256189D01*
X137152630Y-76260251D01*
X137138324Y-76263891D01*
X137123968Y-76267103D01*
X137109562Y-76269876D01*
X137095106Y-76272205D01*
X137080601Y-76274079D01*
X137066045Y-76275491D01*
X137051440Y-76276433D01*
X137036786Y-76276897D01*
X137022083Y-76276874D01*
X137007331Y-76276357D01*
X136992530Y-76275337D01*
X136977680Y-76273806D01*
X136962781Y-76271757D01*
X136938801Y-76268040D01*
X136926809Y-76266078D01*
X136914846Y-76263971D01*
X136902935Y-76261664D01*
X136891098Y-76259099D01*
X136879360Y-76256220D01*
X136867743Y-76252971D01*
X136849771Y-76247045D01*
X136832587Y-76240300D01*
X136816196Y-76232737D01*
X136800600Y-76224357D01*
X136785804Y-76215162D01*
X136771810Y-76205152D01*
X136758623Y-76194328D01*
X136746246Y-76182691D01*
X136734683Y-76170243D01*
X136723937Y-76156984D01*
X136714011Y-76142915D01*
X136704910Y-76128037D01*
X136696637Y-76112352D01*
X136689195Y-76095860D01*
X136682588Y-76078562D01*
X136676820Y-76060460D01*
X136672530Y-76044693D01*
X136668785Y-76028906D01*
X136665581Y-76013098D01*
X136662915Y-75997273D01*
X136660782Y-75981431D01*
X136659177Y-75965573D01*
X136658097Y-75949702D01*
X136657538Y-75933818D01*
X136657496Y-75917922D01*
X136657966Y-75902017D01*
X136658944Y-75886104D01*
X136660426Y-75870184D01*
X136662409Y-75854258D01*
X136664888Y-75838327D01*
X136667858Y-75822395D01*
X136671316Y-75806460D01*
X136674091Y-75795343D01*
X136677173Y-75784542D01*
X136680559Y-75774055D01*
X136684247Y-75763879D01*
X136688233Y-75754011D01*
X136692514Y-75744450D01*
X136697086Y-75735192D01*
X136701946Y-75726236D01*
X136707091Y-75717578D01*
X136712519Y-75709217D01*
X136718224Y-75701149D01*
X136724205Y-75693372D01*
X136730458Y-75685884D01*
X136736980Y-75678682D01*
X136743767Y-75671764D01*
X136750817Y-75665126D01*
X136758126Y-75658768D01*
X136765690Y-75652685D01*
X136781574Y-75641338D01*
X136798441Y-75631065D01*
X136816268Y-75621846D01*
X136835026Y-75613662D01*
X136854691Y-75606491D01*
X136875236Y-75600314D01*
X136896636Y-75595111D01*
X136916360Y-75591211D01*
X136936064Y-75588039D01*
X136955749Y-75585584D01*
X136975415Y-75583837D01*
X136995064Y-75582789D01*
X137014697Y-75582430D01*
X137034314Y-75582750D01*
G37*
G36*
X140711104Y-75499030D02*
G01*
X140736817Y-75500171D01*
X140762615Y-75502034D01*
X140788497Y-75504624D01*
X140818829Y-75508619D01*
X140833825Y-75511050D01*
X140848696Y-75513808D01*
X140863432Y-75516922D01*
X140878026Y-75520420D01*
X140892467Y-75524330D01*
X140906746Y-75528681D01*
X140920855Y-75533502D01*
X140934784Y-75538821D01*
X140948525Y-75544666D01*
X140962068Y-75551066D01*
X140975404Y-75558049D01*
X140988524Y-75565644D01*
X141001420Y-75573879D01*
X141014081Y-75582782D01*
X141027688Y-75593367D01*
X141040503Y-75604456D01*
X141052518Y-75616036D01*
X141063722Y-75628094D01*
X141074107Y-75640616D01*
X141083664Y-75653589D01*
X141092383Y-75667000D01*
X141100256Y-75680837D01*
X141107273Y-75695085D01*
X141113425Y-75709731D01*
X141118703Y-75724763D01*
X141123098Y-75740168D01*
X141126600Y-75755931D01*
X141129201Y-75772040D01*
X141130892Y-75788482D01*
X141131662Y-75805244D01*
X141134365Y-76013819D01*
X141135664Y-76222419D01*
X141137006Y-76639634D01*
X141136977Y-76642164D01*
X141136858Y-76644740D01*
X141136667Y-76647406D01*
X141136418Y-76650204D01*
X141135808Y-76656362D01*
X141135479Y-76659807D01*
X141135154Y-76663552D01*
X141088647Y-76663863D01*
X141077201Y-76663834D01*
X141065807Y-76663664D01*
X141054455Y-76663304D01*
X141043132Y-76662705D01*
X141042439Y-76662635D01*
X141041738Y-76662513D01*
X141041031Y-76662343D01*
X141040318Y-76662126D01*
X141039602Y-76661865D01*
X141038883Y-76661560D01*
X141038161Y-76661215D01*
X141037439Y-76660831D01*
X141035997Y-76659956D01*
X141034564Y-76658949D01*
X141033149Y-76657827D01*
X141031761Y-76656606D01*
X141030409Y-76655302D01*
X141029100Y-76653931D01*
X141027844Y-76652509D01*
X141026649Y-76651052D01*
X141025524Y-76649575D01*
X141024477Y-76648095D01*
X141023517Y-76646628D01*
X141022653Y-76645190D01*
X141016088Y-76633643D01*
X141009627Y-76622023D01*
X140996903Y-76598564D01*
X140971430Y-76550787D01*
X140956781Y-76561397D01*
X140941980Y-76571587D01*
X140927020Y-76581336D01*
X140911893Y-76590625D01*
X140896594Y-76599436D01*
X140881115Y-76607748D01*
X140865449Y-76615542D01*
X140849589Y-76622800D01*
X140833528Y-76629501D01*
X140817259Y-76635627D01*
X140800775Y-76641157D01*
X140784070Y-76646074D01*
X140767136Y-76650357D01*
X140749965Y-76653987D01*
X140732552Y-76656946D01*
X140714890Y-76659213D01*
X140679426Y-76662411D01*
X140661719Y-76663486D01*
X140644040Y-76664153D01*
X140626398Y-76664368D01*
X140608802Y-76664088D01*
X140591260Y-76663268D01*
X140573781Y-76661865D01*
X140556373Y-76659835D01*
X140539045Y-76657135D01*
X140521805Y-76653720D01*
X140504663Y-76649546D01*
X140487626Y-76644571D01*
X140470704Y-76638749D01*
X140453904Y-76632038D01*
X140437236Y-76624394D01*
X140424096Y-76617560D01*
X140411563Y-76610203D01*
X140399631Y-76602329D01*
X140388297Y-76593947D01*
X140377557Y-76585064D01*
X140367407Y-76575688D01*
X140357842Y-76565827D01*
X140348858Y-76555489D01*
X140340452Y-76544681D01*
X140332619Y-76533412D01*
X140325356Y-76521689D01*
X140318657Y-76509520D01*
X140312519Y-76496913D01*
X140306938Y-76483876D01*
X140301910Y-76470417D01*
X140297430Y-76456542D01*
X140292814Y-76440099D01*
X140288768Y-76423613D01*
X140285293Y-76407089D01*
X140282389Y-76390532D01*
X140280054Y-76373946D01*
X140278291Y-76357337D01*
X140277098Y-76340708D01*
X140276475Y-76324065D01*
X140276423Y-76307412D01*
X140276579Y-76302389D01*
X140460804Y-76302389D01*
X140460833Y-76312819D01*
X140461085Y-76323262D01*
X140461896Y-76344041D01*
X140462323Y-76351064D01*
X140463026Y-76357999D01*
X140464001Y-76364841D01*
X140465241Y-76371581D01*
X140466742Y-76378212D01*
X140468498Y-76384728D01*
X140470506Y-76391121D01*
X140472759Y-76397384D01*
X140477984Y-76409494D01*
X140484132Y-76421000D01*
X140487539Y-76426509D01*
X140491163Y-76431846D01*
X140494997Y-76437004D01*
X140499037Y-76441976D01*
X140503277Y-76446755D01*
X140507714Y-76451334D01*
X140512341Y-76455705D01*
X140517154Y-76459862D01*
X140522148Y-76463798D01*
X140527317Y-76467505D01*
X140532657Y-76470977D01*
X140538163Y-76474206D01*
X140543829Y-76477186D01*
X140549651Y-76479908D01*
X140555624Y-76482368D01*
X140561743Y-76484556D01*
X140568002Y-76486467D01*
X140574397Y-76488092D01*
X140580922Y-76489426D01*
X140587573Y-76490461D01*
X140609880Y-76492918D01*
X140631972Y-76494395D01*
X140653850Y-76494892D01*
X140675511Y-76494410D01*
X140696956Y-76492948D01*
X140718184Y-76490506D01*
X140739192Y-76487084D01*
X140759982Y-76482682D01*
X140780551Y-76477301D01*
X140800900Y-76470940D01*
X140821027Y-76463599D01*
X140840930Y-76455278D01*
X140860611Y-76445978D01*
X140880067Y-76435697D01*
X140899298Y-76424437D01*
X140918302Y-76412197D01*
X140923420Y-76408617D01*
X140928210Y-76404971D01*
X140932665Y-76401239D01*
X140936775Y-76397406D01*
X140938698Y-76395446D01*
X140940532Y-76393453D01*
X140942276Y-76391427D01*
X140943928Y-76389364D01*
X140945488Y-76387263D01*
X140946954Y-76385120D01*
X140948326Y-76382935D01*
X140949602Y-76380705D01*
X140950781Y-76378428D01*
X140951863Y-76376101D01*
X140952845Y-76373722D01*
X140953728Y-76371289D01*
X140954510Y-76368801D01*
X140955189Y-76366254D01*
X140955766Y-76363647D01*
X140956238Y-76360978D01*
X140956605Y-76358244D01*
X140956866Y-76355442D01*
X140957019Y-76352572D01*
X140957064Y-76349630D01*
X140956999Y-76346615D01*
X140956824Y-76343525D01*
X140956537Y-76340356D01*
X140956137Y-76337108D01*
X140955608Y-76332733D01*
X140955201Y-76328342D01*
X140954905Y-76323935D01*
X140954707Y-76319515D01*
X140954558Y-76310641D01*
X140954656Y-76301734D01*
X140955200Y-76283873D01*
X140955451Y-76274947D01*
X140955556Y-76266042D01*
X140955291Y-76215619D01*
X140955333Y-76190415D01*
X140955505Y-76177821D01*
X140955821Y-76165235D01*
X140955844Y-76161995D01*
X140955784Y-76160473D01*
X140955676Y-76159015D01*
X140955519Y-76157620D01*
X140955314Y-76156287D01*
X140955059Y-76155014D01*
X140954755Y-76153801D01*
X140954401Y-76152647D01*
X140953997Y-76151550D01*
X140953543Y-76150509D01*
X140953038Y-76149524D01*
X140952483Y-76148593D01*
X140951876Y-76147714D01*
X140951218Y-76146888D01*
X140950509Y-76146113D01*
X140949747Y-76145387D01*
X140948933Y-76144710D01*
X140948067Y-76144081D01*
X140947148Y-76143498D01*
X140946176Y-76142960D01*
X140945151Y-76142467D01*
X140944072Y-76142017D01*
X140942939Y-76141609D01*
X140941752Y-76141242D01*
X140940510Y-76140915D01*
X140937863Y-76140376D01*
X140934994Y-76139984D01*
X140931902Y-76139729D01*
X140923830Y-76139131D01*
X140915765Y-76138305D01*
X140899649Y-76136310D01*
X140891592Y-76135311D01*
X140883533Y-76134424D01*
X140875468Y-76133734D01*
X140867396Y-76133327D01*
X140742196Y-76128935D01*
X140710898Y-76128187D01*
X140679620Y-76127895D01*
X140648369Y-76128215D01*
X140617153Y-76129305D01*
X140609598Y-76129818D01*
X140602202Y-76130601D01*
X140594968Y-76131651D01*
X140587898Y-76132962D01*
X140580994Y-76134533D01*
X140574258Y-76136359D01*
X140567692Y-76138436D01*
X140561298Y-76140762D01*
X140555078Y-76143331D01*
X140549034Y-76146142D01*
X140543169Y-76149189D01*
X140537484Y-76152470D01*
X140531981Y-76155981D01*
X140526662Y-76159717D01*
X140521529Y-76163677D01*
X140516585Y-76167855D01*
X140511831Y-76172248D01*
X140507270Y-76176853D01*
X140502903Y-76181665D01*
X140498732Y-76186682D01*
X140494761Y-76191900D01*
X140490989Y-76197314D01*
X140487420Y-76202922D01*
X140484056Y-76208719D01*
X140477950Y-76220869D01*
X140472686Y-76233733D01*
X140468282Y-76247284D01*
X140464753Y-76261491D01*
X140463785Y-76266485D01*
X140462975Y-76271521D01*
X140462311Y-76276596D01*
X140461784Y-76281704D01*
X140461381Y-76286842D01*
X140461091Y-76292005D01*
X140460804Y-76302389D01*
X140276579Y-76302389D01*
X140276941Y-76290753D01*
X140278030Y-76274094D01*
X140279690Y-76257439D01*
X140281920Y-76240793D01*
X140284720Y-76224160D01*
X140288091Y-76207545D01*
X140292033Y-76190953D01*
X140295180Y-76179400D01*
X140298647Y-76168175D01*
X140302430Y-76157275D01*
X140306525Y-76146697D01*
X140310928Y-76136437D01*
X140315636Y-76126494D01*
X140320644Y-76116863D01*
X140325949Y-76107542D01*
X140331547Y-76098528D01*
X140337434Y-76089817D01*
X140343607Y-76081407D01*
X140350061Y-76073296D01*
X140356793Y-76065478D01*
X140363799Y-76057953D01*
X140371075Y-76050717D01*
X140378618Y-76043766D01*
X140394487Y-76030710D01*
X140411377Y-76018761D01*
X140429256Y-76007894D01*
X140448094Y-75998087D01*
X140467862Y-75989315D01*
X140488527Y-75981554D01*
X140510062Y-75974780D01*
X140532433Y-75968968D01*
X140552161Y-75964686D01*
X140571913Y-75961046D01*
X140591688Y-75958021D01*
X140611484Y-75955580D01*
X140631300Y-75953695D01*
X140651135Y-75952337D01*
X140670986Y-75951475D01*
X140690853Y-75951082D01*
X140730625Y-75951584D01*
X140770439Y-75953609D01*
X140810283Y-75956924D01*
X140850145Y-75961295D01*
X140875739Y-75964333D01*
X140902017Y-75967221D01*
X140958889Y-75973307D01*
X140957694Y-75952468D01*
X140956848Y-75931613D01*
X140955258Y-75890023D01*
X140954041Y-75869374D01*
X140952229Y-75848879D01*
X140951026Y-75838703D01*
X140949585Y-75828582D01*
X140947877Y-75818520D01*
X140945872Y-75808524D01*
X140944047Y-75800897D01*
X140941951Y-75793538D01*
X140939589Y-75786444D01*
X140936969Y-75779612D01*
X140934097Y-75773036D01*
X140930979Y-75766713D01*
X140927622Y-75760637D01*
X140924032Y-75754806D01*
X140920216Y-75749215D01*
X140916180Y-75743860D01*
X140911932Y-75738736D01*
X140907476Y-75733840D01*
X140902820Y-75729166D01*
X140897971Y-75724712D01*
X140892934Y-75720472D01*
X140887716Y-75716443D01*
X140882325Y-75712620D01*
X140876765Y-75708999D01*
X140871044Y-75705576D01*
X140865169Y-75702347D01*
X140852979Y-75696454D01*
X140840248Y-75691285D01*
X140827028Y-75686807D01*
X140813371Y-75682987D01*
X140799328Y-75679791D01*
X140784952Y-75677185D01*
X140759902Y-75673634D01*
X140734915Y-75670998D01*
X140709991Y-75669246D01*
X140685130Y-75668349D01*
X140660330Y-75668275D01*
X140635590Y-75668995D01*
X140610910Y-75670478D01*
X140586290Y-75672694D01*
X140561727Y-75675612D01*
X140537223Y-75679203D01*
X140512775Y-75683436D01*
X140488382Y-75688280D01*
X140464045Y-75693706D01*
X140439763Y-75699683D01*
X140391358Y-75713168D01*
X140361566Y-75721847D01*
X140361354Y-75643894D01*
X140361610Y-75605798D01*
X140361981Y-75586864D01*
X140362571Y-75567965D01*
X140362630Y-75567262D01*
X140362757Y-75566541D01*
X140362949Y-75565806D01*
X140363203Y-75565057D01*
X140363515Y-75564298D01*
X140363884Y-75563531D01*
X140364306Y-75562756D01*
X140364778Y-75561977D01*
X140365298Y-75561195D01*
X140365863Y-75560412D01*
X140367116Y-75558852D01*
X140368513Y-75557314D01*
X140370032Y-75555814D01*
X140371650Y-75554368D01*
X140373345Y-75552992D01*
X140375094Y-75551702D01*
X140376873Y-75550515D01*
X140378661Y-75549447D01*
X140380433Y-75548513D01*
X140382168Y-75547731D01*
X140383843Y-75547116D01*
X140408591Y-75539428D01*
X140433405Y-75532383D01*
X140458286Y-75525986D01*
X140483236Y-75520244D01*
X140508255Y-75515162D01*
X140533347Y-75510747D01*
X140558511Y-75507006D01*
X140583749Y-75503943D01*
X140609063Y-75501565D01*
X140634454Y-75499879D01*
X140659924Y-75498891D01*
X140685473Y-75498606D01*
X140711104Y-75499030D01*
G37*
D11*
X129752906Y-73120266D02*
X132800526Y-73120266D01*
X131276716Y-74644076D02*
X131276716Y-71596457D01*
D12*
X146846779Y-105248866D02*
X147608684Y-105248866D01*
X147227731Y-105629819D02*
X147227731Y-104867914D01*
X148561064Y-104629819D02*
X148084874Y-104629819D01*
X148084874Y-104629819D02*
X148037255Y-105106009D01*
X148037255Y-105106009D02*
X148084874Y-105058390D01*
X148084874Y-105058390D02*
X148180112Y-105010771D01*
X148180112Y-105010771D02*
X148418207Y-105010771D01*
X148418207Y-105010771D02*
X148513445Y-105058390D01*
X148513445Y-105058390D02*
X148561064Y-105106009D01*
X148561064Y-105106009D02*
X148608683Y-105201247D01*
X148608683Y-105201247D02*
X148608683Y-105439342D01*
X148608683Y-105439342D02*
X148561064Y-105534580D01*
X148561064Y-105534580D02*
X148513445Y-105582200D01*
X148513445Y-105582200D02*
X148418207Y-105629819D01*
X148418207Y-105629819D02*
X148180112Y-105629819D01*
X148180112Y-105629819D02*
X148084874Y-105582200D01*
X148084874Y-105582200D02*
X148037255Y-105534580D01*
X148894398Y-104629819D02*
X149227731Y-105629819D01*
X149227731Y-105629819D02*
X149561064Y-104629819D01*
X149894398Y-105629819D02*
X149894398Y-104629819D01*
X149894398Y-104629819D02*
X150132493Y-104629819D01*
X150132493Y-104629819D02*
X150275350Y-104677438D01*
X150275350Y-104677438D02*
X150370588Y-104772676D01*
X150370588Y-104772676D02*
X150418207Y-104867914D01*
X150418207Y-104867914D02*
X150465826Y-105058390D01*
X150465826Y-105058390D02*
X150465826Y-105201247D01*
X150465826Y-105201247D02*
X150418207Y-105391723D01*
X150418207Y-105391723D02*
X150370588Y-105486961D01*
X150370588Y-105486961D02*
X150275350Y-105582200D01*
X150275350Y-105582200D02*
X150132493Y-105629819D01*
X150132493Y-105629819D02*
X149894398Y-105629819D01*
X151465826Y-105534580D02*
X151418207Y-105582200D01*
X151418207Y-105582200D02*
X151275350Y-105629819D01*
X151275350Y-105629819D02*
X151180112Y-105629819D01*
X151180112Y-105629819D02*
X151037255Y-105582200D01*
X151037255Y-105582200D02*
X150942017Y-105486961D01*
X150942017Y-105486961D02*
X150894398Y-105391723D01*
X150894398Y-105391723D02*
X150846779Y-105201247D01*
X150846779Y-105201247D02*
X150846779Y-105058390D01*
X150846779Y-105058390D02*
X150894398Y-104867914D01*
X150894398Y-104867914D02*
X150942017Y-104772676D01*
X150942017Y-104772676D02*
X151037255Y-104677438D01*
X151037255Y-104677438D02*
X151180112Y-104629819D01*
X151180112Y-104629819D02*
X151275350Y-104629819D01*
X151275350Y-104629819D02*
X151418207Y-104677438D01*
X151418207Y-104677438D02*
X151465826Y-104725057D01*
X151633333Y-85254819D02*
X151300000Y-84778628D01*
X151061905Y-85254819D02*
X151061905Y-84254819D01*
X151061905Y-84254819D02*
X151442857Y-84254819D01*
X151442857Y-84254819D02*
X151538095Y-84302438D01*
X151538095Y-84302438D02*
X151585714Y-84350057D01*
X151585714Y-84350057D02*
X151633333Y-84445295D01*
X151633333Y-84445295D02*
X151633333Y-84588152D01*
X151633333Y-84588152D02*
X151585714Y-84683390D01*
X151585714Y-84683390D02*
X151538095Y-84731009D01*
X151538095Y-84731009D02*
X151442857Y-84778628D01*
X151442857Y-84778628D02*
X151061905Y-84778628D01*
X152538095Y-84254819D02*
X152061905Y-84254819D01*
X152061905Y-84254819D02*
X152014286Y-84731009D01*
X152014286Y-84731009D02*
X152061905Y-84683390D01*
X152061905Y-84683390D02*
X152157143Y-84635771D01*
X152157143Y-84635771D02*
X152395238Y-84635771D01*
X152395238Y-84635771D02*
X152490476Y-84683390D01*
X152490476Y-84683390D02*
X152538095Y-84731009D01*
X152538095Y-84731009D02*
X152585714Y-84826247D01*
X152585714Y-84826247D02*
X152585714Y-85064342D01*
X152585714Y-85064342D02*
X152538095Y-85159580D01*
X152538095Y-85159580D02*
X152490476Y-85207200D01*
X152490476Y-85207200D02*
X152395238Y-85254819D01*
X152395238Y-85254819D02*
X152157143Y-85254819D01*
X152157143Y-85254819D02*
X152061905Y-85207200D01*
X152061905Y-85207200D02*
X152014286Y-85159580D01*
D13*
X151214285Y-85717669D02*
X151261904Y-85717669D01*
X151261904Y-85717669D02*
X151309523Y-85741479D01*
X151309523Y-85741479D02*
X151333333Y-85765288D01*
X151333333Y-85765288D02*
X151357142Y-85812907D01*
X151357142Y-85812907D02*
X151380952Y-85908145D01*
X151380952Y-85908145D02*
X151380952Y-86027193D01*
X151380952Y-86027193D02*
X151357142Y-86122431D01*
X151357142Y-86122431D02*
X151333333Y-86170050D01*
X151333333Y-86170050D02*
X151309523Y-86193860D01*
X151309523Y-86193860D02*
X151261904Y-86217669D01*
X151261904Y-86217669D02*
X151214285Y-86217669D01*
X151214285Y-86217669D02*
X151166666Y-86193860D01*
X151166666Y-86193860D02*
X151142857Y-86170050D01*
X151142857Y-86170050D02*
X151119047Y-86122431D01*
X151119047Y-86122431D02*
X151095238Y-86027193D01*
X151095238Y-86027193D02*
X151095238Y-85908145D01*
X151095238Y-85908145D02*
X151119047Y-85812907D01*
X151119047Y-85812907D02*
X151142857Y-85765288D01*
X151142857Y-85765288D02*
X151166666Y-85741479D01*
X151166666Y-85741479D02*
X151214285Y-85717669D01*
X152071427Y-85717669D02*
X152166665Y-85717669D01*
X152166665Y-85717669D02*
X152214284Y-85741479D01*
X152214284Y-85741479D02*
X152261903Y-85789098D01*
X152261903Y-85789098D02*
X152285713Y-85884336D01*
X152285713Y-85884336D02*
X152285713Y-86051002D01*
X152285713Y-86051002D02*
X152261903Y-86146240D01*
X152261903Y-86146240D02*
X152214284Y-86193860D01*
X152214284Y-86193860D02*
X152166665Y-86217669D01*
X152166665Y-86217669D02*
X152071427Y-86217669D01*
X152071427Y-86217669D02*
X152023808Y-86193860D01*
X152023808Y-86193860D02*
X151976189Y-86146240D01*
X151976189Y-86146240D02*
X151952380Y-86051002D01*
X151952380Y-86051002D02*
X151952380Y-85884336D01*
X151952380Y-85884336D02*
X151976189Y-85789098D01*
X151976189Y-85789098D02*
X152023808Y-85741479D01*
X152023808Y-85741479D02*
X152071427Y-85717669D01*
X152499999Y-86217669D02*
X152499999Y-85717669D01*
X152714285Y-86217669D02*
X152714285Y-85955764D01*
X152714285Y-85955764D02*
X152690475Y-85908145D01*
X152690475Y-85908145D02*
X152642856Y-85884336D01*
X152642856Y-85884336D02*
X152571428Y-85884336D01*
X152571428Y-85884336D02*
X152523809Y-85908145D01*
X152523809Y-85908145D02*
X152499999Y-85931955D01*
X152952380Y-86217669D02*
X152952380Y-85884336D01*
X152952380Y-85931955D02*
X152976190Y-85908145D01*
X152976190Y-85908145D02*
X153023809Y-85884336D01*
X153023809Y-85884336D02*
X153095237Y-85884336D01*
X153095237Y-85884336D02*
X153142856Y-85908145D01*
X153142856Y-85908145D02*
X153166666Y-85955764D01*
X153166666Y-85955764D02*
X153166666Y-86217669D01*
X153166666Y-85955764D02*
X153190475Y-85908145D01*
X153190475Y-85908145D02*
X153238094Y-85884336D01*
X153238094Y-85884336D02*
X153309523Y-85884336D01*
X153309523Y-85884336D02*
X153357142Y-85908145D01*
X153357142Y-85908145D02*
X153380952Y-85955764D01*
X153380952Y-85955764D02*
X153380952Y-86217669D01*
D12*
X155453333Y-89844819D02*
X155120000Y-89368628D01*
X154881905Y-89844819D02*
X154881905Y-88844819D01*
X154881905Y-88844819D02*
X155262857Y-88844819D01*
X155262857Y-88844819D02*
X155358095Y-88892438D01*
X155358095Y-88892438D02*
X155405714Y-88940057D01*
X155405714Y-88940057D02*
X155453333Y-89035295D01*
X155453333Y-89035295D02*
X155453333Y-89178152D01*
X155453333Y-89178152D02*
X155405714Y-89273390D01*
X155405714Y-89273390D02*
X155358095Y-89321009D01*
X155358095Y-89321009D02*
X155262857Y-89368628D01*
X155262857Y-89368628D02*
X154881905Y-89368628D01*
X155834286Y-88940057D02*
X155881905Y-88892438D01*
X155881905Y-88892438D02*
X155977143Y-88844819D01*
X155977143Y-88844819D02*
X156215238Y-88844819D01*
X156215238Y-88844819D02*
X156310476Y-88892438D01*
X156310476Y-88892438D02*
X156358095Y-88940057D01*
X156358095Y-88940057D02*
X156405714Y-89035295D01*
X156405714Y-89035295D02*
X156405714Y-89130533D01*
X156405714Y-89130533D02*
X156358095Y-89273390D01*
X156358095Y-89273390D02*
X155786667Y-89844819D01*
X155786667Y-89844819D02*
X156405714Y-89844819D01*
D13*
X154573333Y-90345288D02*
X154597142Y-90321479D01*
X154597142Y-90321479D02*
X154644761Y-90297669D01*
X154644761Y-90297669D02*
X154763809Y-90297669D01*
X154763809Y-90297669D02*
X154811428Y-90321479D01*
X154811428Y-90321479D02*
X154835237Y-90345288D01*
X154835237Y-90345288D02*
X154859047Y-90392907D01*
X154859047Y-90392907D02*
X154859047Y-90440526D01*
X154859047Y-90440526D02*
X154835237Y-90511955D01*
X154835237Y-90511955D02*
X154549523Y-90797669D01*
X154549523Y-90797669D02*
X154859047Y-90797669D01*
X155073332Y-90797669D02*
X155073332Y-90297669D01*
X155120951Y-90607193D02*
X155263808Y-90797669D01*
X155263808Y-90464336D02*
X155073332Y-90654812D01*
X155573332Y-90297669D02*
X155668570Y-90297669D01*
X155668570Y-90297669D02*
X155716189Y-90321479D01*
X155716189Y-90321479D02*
X155763808Y-90369098D01*
X155763808Y-90369098D02*
X155787618Y-90464336D01*
X155787618Y-90464336D02*
X155787618Y-90631002D01*
X155787618Y-90631002D02*
X155763808Y-90726240D01*
X155763808Y-90726240D02*
X155716189Y-90773860D01*
X155716189Y-90773860D02*
X155668570Y-90797669D01*
X155668570Y-90797669D02*
X155573332Y-90797669D01*
X155573332Y-90797669D02*
X155525713Y-90773860D01*
X155525713Y-90773860D02*
X155478094Y-90726240D01*
X155478094Y-90726240D02*
X155454285Y-90631002D01*
X155454285Y-90631002D02*
X155454285Y-90464336D01*
X155454285Y-90464336D02*
X155478094Y-90369098D01*
X155478094Y-90369098D02*
X155525713Y-90321479D01*
X155525713Y-90321479D02*
X155573332Y-90297669D01*
X156001904Y-90797669D02*
X156001904Y-90297669D01*
X156216190Y-90797669D02*
X156216190Y-90535764D01*
X156216190Y-90535764D02*
X156192380Y-90488145D01*
X156192380Y-90488145D02*
X156144761Y-90464336D01*
X156144761Y-90464336D02*
X156073333Y-90464336D01*
X156073333Y-90464336D02*
X156025714Y-90488145D01*
X156025714Y-90488145D02*
X156001904Y-90511955D01*
X156454285Y-90797669D02*
X156454285Y-90464336D01*
X156454285Y-90511955D02*
X156478095Y-90488145D01*
X156478095Y-90488145D02*
X156525714Y-90464336D01*
X156525714Y-90464336D02*
X156597142Y-90464336D01*
X156597142Y-90464336D02*
X156644761Y-90488145D01*
X156644761Y-90488145D02*
X156668571Y-90535764D01*
X156668571Y-90535764D02*
X156668571Y-90797669D01*
X156668571Y-90535764D02*
X156692380Y-90488145D01*
X156692380Y-90488145D02*
X156739999Y-90464336D01*
X156739999Y-90464336D02*
X156811428Y-90464336D01*
X156811428Y-90464336D02*
X156859047Y-90488145D01*
X156859047Y-90488145D02*
X156882857Y-90535764D01*
X156882857Y-90535764D02*
X156882857Y-90797669D01*
D12*
X142933333Y-82954819D02*
X142600000Y-82478628D01*
X142361905Y-82954819D02*
X142361905Y-81954819D01*
X142361905Y-81954819D02*
X142742857Y-81954819D01*
X142742857Y-81954819D02*
X142838095Y-82002438D01*
X142838095Y-82002438D02*
X142885714Y-82050057D01*
X142885714Y-82050057D02*
X142933333Y-82145295D01*
X142933333Y-82145295D02*
X142933333Y-82288152D01*
X142933333Y-82288152D02*
X142885714Y-82383390D01*
X142885714Y-82383390D02*
X142838095Y-82431009D01*
X142838095Y-82431009D02*
X142742857Y-82478628D01*
X142742857Y-82478628D02*
X142361905Y-82478628D01*
X143790476Y-81954819D02*
X143600000Y-81954819D01*
X143600000Y-81954819D02*
X143504762Y-82002438D01*
X143504762Y-82002438D02*
X143457143Y-82050057D01*
X143457143Y-82050057D02*
X143361905Y-82192914D01*
X143361905Y-82192914D02*
X143314286Y-82383390D01*
X143314286Y-82383390D02*
X143314286Y-82764342D01*
X143314286Y-82764342D02*
X143361905Y-82859580D01*
X143361905Y-82859580D02*
X143409524Y-82907200D01*
X143409524Y-82907200D02*
X143504762Y-82954819D01*
X143504762Y-82954819D02*
X143695238Y-82954819D01*
X143695238Y-82954819D02*
X143790476Y-82907200D01*
X143790476Y-82907200D02*
X143838095Y-82859580D01*
X143838095Y-82859580D02*
X143885714Y-82764342D01*
X143885714Y-82764342D02*
X143885714Y-82526247D01*
X143885714Y-82526247D02*
X143838095Y-82431009D01*
X143838095Y-82431009D02*
X143790476Y-82383390D01*
X143790476Y-82383390D02*
X143695238Y-82335771D01*
X143695238Y-82335771D02*
X143504762Y-82335771D01*
X143504762Y-82335771D02*
X143409524Y-82383390D01*
X143409524Y-82383390D02*
X143361905Y-82431009D01*
X143361905Y-82431009D02*
X143314286Y-82526247D01*
X141814286Y-85954819D02*
X141814286Y-84954819D01*
X141814286Y-84954819D02*
X142052381Y-84954819D01*
X142052381Y-84954819D02*
X142195238Y-85002438D01*
X142195238Y-85002438D02*
X142290476Y-85097676D01*
X142290476Y-85097676D02*
X142338095Y-85192914D01*
X142338095Y-85192914D02*
X142385714Y-85383390D01*
X142385714Y-85383390D02*
X142385714Y-85526247D01*
X142385714Y-85526247D02*
X142338095Y-85716723D01*
X142338095Y-85716723D02*
X142290476Y-85811961D01*
X142290476Y-85811961D02*
X142195238Y-85907200D01*
X142195238Y-85907200D02*
X142052381Y-85954819D01*
X142052381Y-85954819D02*
X141814286Y-85954819D01*
X142814286Y-85954819D02*
X142814286Y-84954819D01*
X142814286Y-84954819D02*
X143385714Y-85954819D01*
X143385714Y-85954819D02*
X143385714Y-84954819D01*
X143861905Y-85954819D02*
X143861905Y-84954819D01*
X143861905Y-84954819D02*
X144242857Y-84954819D01*
X144242857Y-84954819D02*
X144338095Y-85002438D01*
X144338095Y-85002438D02*
X144385714Y-85050057D01*
X144385714Y-85050057D02*
X144433333Y-85145295D01*
X144433333Y-85145295D02*
X144433333Y-85288152D01*
X144433333Y-85288152D02*
X144385714Y-85383390D01*
X144385714Y-85383390D02*
X144338095Y-85431009D01*
X144338095Y-85431009D02*
X144242857Y-85478628D01*
X144242857Y-85478628D02*
X143861905Y-85478628D01*
X147153319Y-102193733D02*
X147867604Y-102193733D01*
X147867604Y-102193733D02*
X148010461Y-102241352D01*
X148010461Y-102241352D02*
X148105700Y-102336590D01*
X148105700Y-102336590D02*
X148153319Y-102479447D01*
X148153319Y-102479447D02*
X148153319Y-102574685D01*
X148153319Y-101193733D02*
X148153319Y-101765161D01*
X148153319Y-101479447D02*
X147153319Y-101479447D01*
X147153319Y-101479447D02*
X147296176Y-101574685D01*
X147296176Y-101574685D02*
X147391414Y-101669923D01*
X147391414Y-101669923D02*
X147439033Y-101765161D01*
X155553333Y-98484819D02*
X155220000Y-98008628D01*
X154981905Y-98484819D02*
X154981905Y-97484819D01*
X154981905Y-97484819D02*
X155362857Y-97484819D01*
X155362857Y-97484819D02*
X155458095Y-97532438D01*
X155458095Y-97532438D02*
X155505714Y-97580057D01*
X155505714Y-97580057D02*
X155553333Y-97675295D01*
X155553333Y-97675295D02*
X155553333Y-97818152D01*
X155553333Y-97818152D02*
X155505714Y-97913390D01*
X155505714Y-97913390D02*
X155458095Y-97961009D01*
X155458095Y-97961009D02*
X155362857Y-98008628D01*
X155362857Y-98008628D02*
X154981905Y-98008628D01*
X156410476Y-97818152D02*
X156410476Y-98484819D01*
X156172381Y-97437200D02*
X155934286Y-98151485D01*
X155934286Y-98151485D02*
X156553333Y-98151485D01*
D13*
X154799047Y-99417669D02*
X154513333Y-99417669D01*
X154656190Y-99417669D02*
X154656190Y-98917669D01*
X154656190Y-98917669D02*
X154608571Y-98989098D01*
X154608571Y-98989098D02*
X154560952Y-99036717D01*
X154560952Y-99036717D02*
X154513333Y-99060526D01*
X155013332Y-99417669D02*
X155013332Y-98917669D01*
X155060951Y-99227193D02*
X155203808Y-99417669D01*
X155203808Y-99084336D02*
X155013332Y-99274812D01*
X155513332Y-98917669D02*
X155608570Y-98917669D01*
X155608570Y-98917669D02*
X155656189Y-98941479D01*
X155656189Y-98941479D02*
X155703808Y-98989098D01*
X155703808Y-98989098D02*
X155727618Y-99084336D01*
X155727618Y-99084336D02*
X155727618Y-99251002D01*
X155727618Y-99251002D02*
X155703808Y-99346240D01*
X155703808Y-99346240D02*
X155656189Y-99393860D01*
X155656189Y-99393860D02*
X155608570Y-99417669D01*
X155608570Y-99417669D02*
X155513332Y-99417669D01*
X155513332Y-99417669D02*
X155465713Y-99393860D01*
X155465713Y-99393860D02*
X155418094Y-99346240D01*
X155418094Y-99346240D02*
X155394285Y-99251002D01*
X155394285Y-99251002D02*
X155394285Y-99084336D01*
X155394285Y-99084336D02*
X155418094Y-98989098D01*
X155418094Y-98989098D02*
X155465713Y-98941479D01*
X155465713Y-98941479D02*
X155513332Y-98917669D01*
X155941904Y-99417669D02*
X155941904Y-98917669D01*
X156156190Y-99417669D02*
X156156190Y-99155764D01*
X156156190Y-99155764D02*
X156132380Y-99108145D01*
X156132380Y-99108145D02*
X156084761Y-99084336D01*
X156084761Y-99084336D02*
X156013333Y-99084336D01*
X156013333Y-99084336D02*
X155965714Y-99108145D01*
X155965714Y-99108145D02*
X155941904Y-99131955D01*
X156394285Y-99417669D02*
X156394285Y-99084336D01*
X156394285Y-99131955D02*
X156418095Y-99108145D01*
X156418095Y-99108145D02*
X156465714Y-99084336D01*
X156465714Y-99084336D02*
X156537142Y-99084336D01*
X156537142Y-99084336D02*
X156584761Y-99108145D01*
X156584761Y-99108145D02*
X156608571Y-99155764D01*
X156608571Y-99155764D02*
X156608571Y-99417669D01*
X156608571Y-99155764D02*
X156632380Y-99108145D01*
X156632380Y-99108145D02*
X156679999Y-99084336D01*
X156679999Y-99084336D02*
X156751428Y-99084336D01*
X156751428Y-99084336D02*
X156799047Y-99108145D01*
X156799047Y-99108145D02*
X156822857Y-99155764D01*
X156822857Y-99155764D02*
X156822857Y-99417669D01*
D12*
X141788095Y-86934819D02*
X141788095Y-87744342D01*
X141788095Y-87744342D02*
X141835714Y-87839580D01*
X141835714Y-87839580D02*
X141883333Y-87887200D01*
X141883333Y-87887200D02*
X141978571Y-87934819D01*
X141978571Y-87934819D02*
X142169047Y-87934819D01*
X142169047Y-87934819D02*
X142264285Y-87887200D01*
X142264285Y-87887200D02*
X142311904Y-87839580D01*
X142311904Y-87839580D02*
X142359523Y-87744342D01*
X142359523Y-87744342D02*
X142359523Y-86934819D01*
X143359523Y-87934819D02*
X142788095Y-87934819D01*
X143073809Y-87934819D02*
X143073809Y-86934819D01*
X143073809Y-86934819D02*
X142978571Y-87077676D01*
X142978571Y-87077676D02*
X142883333Y-87172914D01*
X142883333Y-87172914D02*
X142788095Y-87220533D01*
D13*
X140657144Y-96607669D02*
X140657144Y-96107669D01*
X140895239Y-96607669D02*
X140895239Y-96107669D01*
X140895239Y-96107669D02*
X141180953Y-96607669D01*
X141180953Y-96607669D02*
X141180953Y-96107669D01*
X141395240Y-96464812D02*
X141633335Y-96464812D01*
X141347621Y-96607669D02*
X141514287Y-96107669D01*
X141514287Y-96107669D02*
X141680954Y-96607669D01*
X141823811Y-96155288D02*
X141847620Y-96131479D01*
X141847620Y-96131479D02*
X141895239Y-96107669D01*
X141895239Y-96107669D02*
X142014287Y-96107669D01*
X142014287Y-96107669D02*
X142061906Y-96131479D01*
X142061906Y-96131479D02*
X142085715Y-96155288D01*
X142085715Y-96155288D02*
X142109525Y-96202907D01*
X142109525Y-96202907D02*
X142109525Y-96250526D01*
X142109525Y-96250526D02*
X142085715Y-96321955D01*
X142085715Y-96321955D02*
X141800001Y-96607669D01*
X141800001Y-96607669D02*
X142109525Y-96607669D01*
X142538096Y-96274336D02*
X142538096Y-96607669D01*
X142419048Y-96083860D02*
X142300001Y-96441002D01*
X142300001Y-96441002D02*
X142609524Y-96441002D01*
X142895238Y-96107669D02*
X142942857Y-96107669D01*
X142942857Y-96107669D02*
X142990476Y-96131479D01*
X142990476Y-96131479D02*
X143014286Y-96155288D01*
X143014286Y-96155288D02*
X143038095Y-96202907D01*
X143038095Y-96202907D02*
X143061905Y-96298145D01*
X143061905Y-96298145D02*
X143061905Y-96417193D01*
X143061905Y-96417193D02*
X143038095Y-96512431D01*
X143038095Y-96512431D02*
X143014286Y-96560050D01*
X143014286Y-96560050D02*
X142990476Y-96583860D01*
X142990476Y-96583860D02*
X142942857Y-96607669D01*
X142942857Y-96607669D02*
X142895238Y-96607669D01*
X142895238Y-96607669D02*
X142847619Y-96583860D01*
X142847619Y-96583860D02*
X142823810Y-96560050D01*
X142823810Y-96560050D02*
X142800000Y-96512431D01*
X142800000Y-96512431D02*
X142776191Y-96417193D01*
X142776191Y-96417193D02*
X142776191Y-96298145D01*
X142776191Y-96298145D02*
X142800000Y-96202907D01*
X142800000Y-96202907D02*
X142823810Y-96155288D01*
X142823810Y-96155288D02*
X142847619Y-96131479D01*
X142847619Y-96131479D02*
X142895238Y-96107669D01*
X143252381Y-96464812D02*
X143490476Y-96464812D01*
X143204762Y-96607669D02*
X143371428Y-96107669D01*
X143371428Y-96107669D02*
X143538095Y-96607669D01*
X143966666Y-96607669D02*
X143680952Y-96607669D01*
X143823809Y-96607669D02*
X143823809Y-96107669D01*
X143823809Y-96107669D02*
X143776190Y-96179098D01*
X143776190Y-96179098D02*
X143728571Y-96226717D01*
X143728571Y-96226717D02*
X143680952Y-96250526D01*
X144180951Y-96607669D02*
X144180951Y-96107669D01*
X144180951Y-96107669D02*
X144299999Y-96107669D01*
X144299999Y-96107669D02*
X144371427Y-96131479D01*
X144371427Y-96131479D02*
X144419046Y-96179098D01*
X144419046Y-96179098D02*
X144442856Y-96226717D01*
X144442856Y-96226717D02*
X144466665Y-96321955D01*
X144466665Y-96321955D02*
X144466665Y-96393383D01*
X144466665Y-96393383D02*
X144442856Y-96488621D01*
X144442856Y-96488621D02*
X144419046Y-96536240D01*
X144419046Y-96536240D02*
X144371427Y-96583860D01*
X144371427Y-96583860D02*
X144299999Y-96607669D01*
X144299999Y-96607669D02*
X144180951Y-96607669D01*
D12*
X149148095Y-91964819D02*
X149148095Y-92774342D01*
X149148095Y-92774342D02*
X149195714Y-92869580D01*
X149195714Y-92869580D02*
X149243333Y-92917200D01*
X149243333Y-92917200D02*
X149338571Y-92964819D01*
X149338571Y-92964819D02*
X149529047Y-92964819D01*
X149529047Y-92964819D02*
X149624285Y-92917200D01*
X149624285Y-92917200D02*
X149671904Y-92869580D01*
X149671904Y-92869580D02*
X149719523Y-92774342D01*
X149719523Y-92774342D02*
X149719523Y-91964819D01*
X150148095Y-92060057D02*
X150195714Y-92012438D01*
X150195714Y-92012438D02*
X150290952Y-91964819D01*
X150290952Y-91964819D02*
X150529047Y-91964819D01*
X150529047Y-91964819D02*
X150624285Y-92012438D01*
X150624285Y-92012438D02*
X150671904Y-92060057D01*
X150671904Y-92060057D02*
X150719523Y-92155295D01*
X150719523Y-92155295D02*
X150719523Y-92250533D01*
X150719523Y-92250533D02*
X150671904Y-92393390D01*
X150671904Y-92393390D02*
X150100476Y-92964819D01*
X150100476Y-92964819D02*
X150719523Y-92964819D01*
D13*
X148468097Y-87627669D02*
X148753811Y-87627669D01*
X148610954Y-88127669D02*
X148610954Y-87627669D01*
X149158572Y-88127669D02*
X148920477Y-88127669D01*
X148920477Y-88127669D02*
X148920477Y-87627669D01*
X149253811Y-87627669D02*
X149420477Y-88127669D01*
X149420477Y-88127669D02*
X149587144Y-87627669D01*
X149777620Y-88127669D02*
X149872858Y-88127669D01*
X149872858Y-88127669D02*
X149920477Y-88103860D01*
X149920477Y-88103860D02*
X149944286Y-88080050D01*
X149944286Y-88080050D02*
X149991905Y-88008621D01*
X149991905Y-88008621D02*
X150015715Y-87913383D01*
X150015715Y-87913383D02*
X150015715Y-87722907D01*
X150015715Y-87722907D02*
X149991905Y-87675288D01*
X149991905Y-87675288D02*
X149968096Y-87651479D01*
X149968096Y-87651479D02*
X149920477Y-87627669D01*
X149920477Y-87627669D02*
X149825239Y-87627669D01*
X149825239Y-87627669D02*
X149777620Y-87651479D01*
X149777620Y-87651479D02*
X149753810Y-87675288D01*
X149753810Y-87675288D02*
X149730001Y-87722907D01*
X149730001Y-87722907D02*
X149730001Y-87841955D01*
X149730001Y-87841955D02*
X149753810Y-87889574D01*
X149753810Y-87889574D02*
X149777620Y-87913383D01*
X149777620Y-87913383D02*
X149825239Y-87937193D01*
X149825239Y-87937193D02*
X149920477Y-87937193D01*
X149920477Y-87937193D02*
X149968096Y-87913383D01*
X149968096Y-87913383D02*
X149991905Y-87889574D01*
X149991905Y-87889574D02*
X150015715Y-87841955D01*
X150325238Y-87627669D02*
X150372857Y-87627669D01*
X150372857Y-87627669D02*
X150420476Y-87651479D01*
X150420476Y-87651479D02*
X150444286Y-87675288D01*
X150444286Y-87675288D02*
X150468095Y-87722907D01*
X150468095Y-87722907D02*
X150491905Y-87818145D01*
X150491905Y-87818145D02*
X150491905Y-87937193D01*
X150491905Y-87937193D02*
X150468095Y-88032431D01*
X150468095Y-88032431D02*
X150444286Y-88080050D01*
X150444286Y-88080050D02*
X150420476Y-88103860D01*
X150420476Y-88103860D02*
X150372857Y-88127669D01*
X150372857Y-88127669D02*
X150325238Y-88127669D01*
X150325238Y-88127669D02*
X150277619Y-88103860D01*
X150277619Y-88103860D02*
X150253810Y-88080050D01*
X150253810Y-88080050D02*
X150230000Y-88032431D01*
X150230000Y-88032431D02*
X150206191Y-87937193D01*
X150206191Y-87937193D02*
X150206191Y-87818145D01*
X150206191Y-87818145D02*
X150230000Y-87722907D01*
X150230000Y-87722907D02*
X150253810Y-87675288D01*
X150253810Y-87675288D02*
X150277619Y-87651479D01*
X150277619Y-87651479D02*
X150325238Y-87627669D01*
X150801428Y-87627669D02*
X150849047Y-87627669D01*
X150849047Y-87627669D02*
X150896666Y-87651479D01*
X150896666Y-87651479D02*
X150920476Y-87675288D01*
X150920476Y-87675288D02*
X150944285Y-87722907D01*
X150944285Y-87722907D02*
X150968095Y-87818145D01*
X150968095Y-87818145D02*
X150968095Y-87937193D01*
X150968095Y-87937193D02*
X150944285Y-88032431D01*
X150944285Y-88032431D02*
X150920476Y-88080050D01*
X150920476Y-88080050D02*
X150896666Y-88103860D01*
X150896666Y-88103860D02*
X150849047Y-88127669D01*
X150849047Y-88127669D02*
X150801428Y-88127669D01*
X150801428Y-88127669D02*
X150753809Y-88103860D01*
X150753809Y-88103860D02*
X150730000Y-88080050D01*
X150730000Y-88080050D02*
X150706190Y-88032431D01*
X150706190Y-88032431D02*
X150682381Y-87937193D01*
X150682381Y-87937193D02*
X150682381Y-87818145D01*
X150682381Y-87818145D02*
X150706190Y-87722907D01*
X150706190Y-87722907D02*
X150730000Y-87675288D01*
X150730000Y-87675288D02*
X150753809Y-87651479D01*
X150753809Y-87651479D02*
X150801428Y-87627669D01*
X151444285Y-88127669D02*
X151158571Y-88127669D01*
X151301428Y-88127669D02*
X151301428Y-87627669D01*
X151301428Y-87627669D02*
X151253809Y-87699098D01*
X151253809Y-87699098D02*
X151206190Y-87746717D01*
X151206190Y-87746717D02*
X151158571Y-87770526D01*
D14*
X124042580Y-91833333D02*
X124518771Y-91500000D01*
X124042580Y-91261905D02*
X125042580Y-91261905D01*
X125042580Y-91261905D02*
X125042580Y-91642857D01*
X125042580Y-91642857D02*
X124994961Y-91738095D01*
X124994961Y-91738095D02*
X124947342Y-91785714D01*
X124947342Y-91785714D02*
X124852104Y-91833333D01*
X124852104Y-91833333D02*
X124709247Y-91833333D01*
X124709247Y-91833333D02*
X124614009Y-91785714D01*
X124614009Y-91785714D02*
X124566390Y-91738095D01*
X124566390Y-91738095D02*
X124518771Y-91642857D01*
X124518771Y-91642857D02*
X124518771Y-91261905D01*
X124042580Y-92785714D02*
X124042580Y-92214286D01*
X124042580Y-92500000D02*
X125042580Y-92500000D01*
X125042580Y-92500000D02*
X124899723Y-92404762D01*
X124899723Y-92404762D02*
X124804485Y-92309524D01*
X124804485Y-92309524D02*
X124756866Y-92214286D01*
D12*
X146733333Y-82829580D02*
X146685714Y-82877200D01*
X146685714Y-82877200D02*
X146542857Y-82924819D01*
X146542857Y-82924819D02*
X146447619Y-82924819D01*
X146447619Y-82924819D02*
X146304762Y-82877200D01*
X146304762Y-82877200D02*
X146209524Y-82781961D01*
X146209524Y-82781961D02*
X146161905Y-82686723D01*
X146161905Y-82686723D02*
X146114286Y-82496247D01*
X146114286Y-82496247D02*
X146114286Y-82353390D01*
X146114286Y-82353390D02*
X146161905Y-82162914D01*
X146161905Y-82162914D02*
X146209524Y-82067676D01*
X146209524Y-82067676D02*
X146304762Y-81972438D01*
X146304762Y-81972438D02*
X146447619Y-81924819D01*
X146447619Y-81924819D02*
X146542857Y-81924819D01*
X146542857Y-81924819D02*
X146685714Y-81972438D01*
X146685714Y-81972438D02*
X146733333Y-82020057D01*
X147685714Y-82924819D02*
X147114286Y-82924819D01*
X147400000Y-82924819D02*
X147400000Y-81924819D01*
X147400000Y-81924819D02*
X147304762Y-82067676D01*
X147304762Y-82067676D02*
X147209524Y-82162914D01*
X147209524Y-82162914D02*
X147114286Y-82210533D01*
X145614286Y-85784819D02*
X145614286Y-84784819D01*
X145614286Y-84784819D02*
X145852381Y-84784819D01*
X145852381Y-84784819D02*
X145995238Y-84832438D01*
X145995238Y-84832438D02*
X146090476Y-84927676D01*
X146090476Y-84927676D02*
X146138095Y-85022914D01*
X146138095Y-85022914D02*
X146185714Y-85213390D01*
X146185714Y-85213390D02*
X146185714Y-85356247D01*
X146185714Y-85356247D02*
X146138095Y-85546723D01*
X146138095Y-85546723D02*
X146090476Y-85641961D01*
X146090476Y-85641961D02*
X145995238Y-85737200D01*
X145995238Y-85737200D02*
X145852381Y-85784819D01*
X145852381Y-85784819D02*
X145614286Y-85784819D01*
X146614286Y-85784819D02*
X146614286Y-84784819D01*
X146614286Y-84784819D02*
X147185714Y-85784819D01*
X147185714Y-85784819D02*
X147185714Y-84784819D01*
X147661905Y-85784819D02*
X147661905Y-84784819D01*
X147661905Y-84784819D02*
X148042857Y-84784819D01*
X148042857Y-84784819D02*
X148138095Y-84832438D01*
X148138095Y-84832438D02*
X148185714Y-84880057D01*
X148185714Y-84880057D02*
X148233333Y-84975295D01*
X148233333Y-84975295D02*
X148233333Y-85118152D01*
X148233333Y-85118152D02*
X148185714Y-85213390D01*
X148185714Y-85213390D02*
X148138095Y-85261009D01*
X148138095Y-85261009D02*
X148042857Y-85308628D01*
X148042857Y-85308628D02*
X147661905Y-85308628D01*
X155563333Y-94174819D02*
X155230000Y-93698628D01*
X154991905Y-94174819D02*
X154991905Y-93174819D01*
X154991905Y-93174819D02*
X155372857Y-93174819D01*
X155372857Y-93174819D02*
X155468095Y-93222438D01*
X155468095Y-93222438D02*
X155515714Y-93270057D01*
X155515714Y-93270057D02*
X155563333Y-93365295D01*
X155563333Y-93365295D02*
X155563333Y-93508152D01*
X155563333Y-93508152D02*
X155515714Y-93603390D01*
X155515714Y-93603390D02*
X155468095Y-93651009D01*
X155468095Y-93651009D02*
X155372857Y-93698628D01*
X155372857Y-93698628D02*
X154991905Y-93698628D01*
X155896667Y-93174819D02*
X156515714Y-93174819D01*
X156515714Y-93174819D02*
X156182381Y-93555771D01*
X156182381Y-93555771D02*
X156325238Y-93555771D01*
X156325238Y-93555771D02*
X156420476Y-93603390D01*
X156420476Y-93603390D02*
X156468095Y-93651009D01*
X156468095Y-93651009D02*
X156515714Y-93746247D01*
X156515714Y-93746247D02*
X156515714Y-93984342D01*
X156515714Y-93984342D02*
X156468095Y-94079580D01*
X156468095Y-94079580D02*
X156420476Y-94127200D01*
X156420476Y-94127200D02*
X156325238Y-94174819D01*
X156325238Y-94174819D02*
X156039524Y-94174819D01*
X156039524Y-94174819D02*
X155944286Y-94127200D01*
X155944286Y-94127200D02*
X155896667Y-94079580D01*
D13*
X154604285Y-94557669D02*
X154651904Y-94557669D01*
X154651904Y-94557669D02*
X154699523Y-94581479D01*
X154699523Y-94581479D02*
X154723333Y-94605288D01*
X154723333Y-94605288D02*
X154747142Y-94652907D01*
X154747142Y-94652907D02*
X154770952Y-94748145D01*
X154770952Y-94748145D02*
X154770952Y-94867193D01*
X154770952Y-94867193D02*
X154747142Y-94962431D01*
X154747142Y-94962431D02*
X154723333Y-95010050D01*
X154723333Y-95010050D02*
X154699523Y-95033860D01*
X154699523Y-95033860D02*
X154651904Y-95057669D01*
X154651904Y-95057669D02*
X154604285Y-95057669D01*
X154604285Y-95057669D02*
X154556666Y-95033860D01*
X154556666Y-95033860D02*
X154532857Y-95010050D01*
X154532857Y-95010050D02*
X154509047Y-94962431D01*
X154509047Y-94962431D02*
X154485238Y-94867193D01*
X154485238Y-94867193D02*
X154485238Y-94748145D01*
X154485238Y-94748145D02*
X154509047Y-94652907D01*
X154509047Y-94652907D02*
X154532857Y-94605288D01*
X154532857Y-94605288D02*
X154556666Y-94581479D01*
X154556666Y-94581479D02*
X154604285Y-94557669D01*
X154985237Y-95057669D02*
X154985237Y-94557669D01*
X155032856Y-94867193D02*
X155175713Y-95057669D01*
X155175713Y-94724336D02*
X154985237Y-94914812D01*
X155342380Y-94557669D02*
X155651904Y-94557669D01*
X155651904Y-94557669D02*
X155485237Y-94748145D01*
X155485237Y-94748145D02*
X155556666Y-94748145D01*
X155556666Y-94748145D02*
X155604285Y-94771955D01*
X155604285Y-94771955D02*
X155628094Y-94795764D01*
X155628094Y-94795764D02*
X155651904Y-94843383D01*
X155651904Y-94843383D02*
X155651904Y-94962431D01*
X155651904Y-94962431D02*
X155628094Y-95010050D01*
X155628094Y-95010050D02*
X155604285Y-95033860D01*
X155604285Y-95033860D02*
X155556666Y-95057669D01*
X155556666Y-95057669D02*
X155413809Y-95057669D01*
X155413809Y-95057669D02*
X155366190Y-95033860D01*
X155366190Y-95033860D02*
X155342380Y-95010050D01*
X155961427Y-94557669D02*
X156056665Y-94557669D01*
X156056665Y-94557669D02*
X156104284Y-94581479D01*
X156104284Y-94581479D02*
X156151903Y-94629098D01*
X156151903Y-94629098D02*
X156175713Y-94724336D01*
X156175713Y-94724336D02*
X156175713Y-94891002D01*
X156175713Y-94891002D02*
X156151903Y-94986240D01*
X156151903Y-94986240D02*
X156104284Y-95033860D01*
X156104284Y-95033860D02*
X156056665Y-95057669D01*
X156056665Y-95057669D02*
X155961427Y-95057669D01*
X155961427Y-95057669D02*
X155913808Y-95033860D01*
X155913808Y-95033860D02*
X155866189Y-94986240D01*
X155866189Y-94986240D02*
X155842380Y-94891002D01*
X155842380Y-94891002D02*
X155842380Y-94724336D01*
X155842380Y-94724336D02*
X155866189Y-94629098D01*
X155866189Y-94629098D02*
X155913808Y-94581479D01*
X155913808Y-94581479D02*
X155961427Y-94557669D01*
X156389999Y-95057669D02*
X156389999Y-94557669D01*
X156604285Y-95057669D02*
X156604285Y-94795764D01*
X156604285Y-94795764D02*
X156580475Y-94748145D01*
X156580475Y-94748145D02*
X156532856Y-94724336D01*
X156532856Y-94724336D02*
X156461428Y-94724336D01*
X156461428Y-94724336D02*
X156413809Y-94748145D01*
X156413809Y-94748145D02*
X156389999Y-94771955D01*
X156842380Y-95057669D02*
X156842380Y-94724336D01*
X156842380Y-94771955D02*
X156866190Y-94748145D01*
X156866190Y-94748145D02*
X156913809Y-94724336D01*
X156913809Y-94724336D02*
X156985237Y-94724336D01*
X156985237Y-94724336D02*
X157032856Y-94748145D01*
X157032856Y-94748145D02*
X157056666Y-94795764D01*
X157056666Y-94795764D02*
X157056666Y-95057669D01*
X157056666Y-94795764D02*
X157080475Y-94748145D01*
X157080475Y-94748145D02*
X157128094Y-94724336D01*
X157128094Y-94724336D02*
X157199523Y-94724336D01*
X157199523Y-94724336D02*
X157247142Y-94748145D01*
X157247142Y-94748145D02*
X157270952Y-94795764D01*
X157270952Y-94795764D02*
X157270952Y-95057669D01*
D15*
%TO.C,R5*%
X149377500Y-85054724D02*
X149377500Y-84545276D01*
X150422500Y-85054724D02*
X150422500Y-84545276D01*
%TO.C,R2*%
X152957500Y-90062776D02*
X152957500Y-90572224D01*
X154002500Y-90062776D02*
X154002500Y-90572224D01*
%TO.C,R6*%
X143354724Y-83377500D02*
X142845276Y-83377500D01*
X143354724Y-84422500D02*
X142845276Y-84422500D01*
D16*
%TO.C,J1*%
X142745500Y-99803000D02*
X142745500Y-103917800D01*
X142745500Y-103917800D02*
X144898355Y-103917800D01*
X145538646Y-103917800D02*
X151254500Y-103917800D01*
X151254500Y-99803000D02*
X142745500Y-99803000D01*
X151254500Y-103917800D02*
X151254500Y-99803000D01*
D17*
X149579500Y-98914000D02*
G75*
G02*
X148817500Y-98914000I-381000J0D01*
G01*
X148817500Y-98914000D02*
G75*
G02*
X149579500Y-98914000I381000J0D01*
G01*
D15*
%TO.C,R4*%
X152957500Y-98045276D02*
X152957500Y-98554724D01*
X154002500Y-98045276D02*
X154002500Y-98554724D01*
%TO.C,U1*%
X140035000Y-91975000D02*
X140035000Y-90025000D01*
X140035000Y-91975000D02*
X140035000Y-93925000D01*
X145155000Y-91975000D02*
X145155000Y-90025000D01*
X145155000Y-91975000D02*
X145155000Y-93925000D01*
X140130000Y-94675000D02*
X139800000Y-94915000D01*
X139800000Y-94435000D01*
X140130000Y-94675000D01*
G36*
X140130000Y-94675000D02*
G01*
X139800000Y-94915000D01*
X139800000Y-94435000D01*
X140130000Y-94675000D01*
G37*
%TO.C,U2*%
X148840000Y-90710000D02*
X148840000Y-89300000D01*
X151160000Y-90700000D02*
X151160000Y-89300000D01*
X148890000Y-91080000D02*
X148560000Y-91320000D01*
X148560000Y-90840000D01*
X148890000Y-91080000D01*
G36*
X148890000Y-91080000D02*
G01*
X148560000Y-91320000D01*
X148560000Y-90840000D01*
X148890000Y-91080000D01*
G37*
%TO.C,R1*%
D14*
X127875000Y-84500000D02*
X120125000Y-84500000D01*
X120125000Y-99500000D01*
X127875000Y-99500000D01*
X127875000Y-84500000D01*
D15*
%TO.C,C1*%
X146753733Y-83390000D02*
X147046267Y-83390000D01*
X146753733Y-84410000D02*
X147046267Y-84410000D01*
%TO.C,R3*%
X152957500Y-94045276D02*
X152957500Y-94554724D01*
X154002500Y-94045276D02*
X154002500Y-94554724D01*
%TO.C,REF\u002A\u002A*%
X152840000Y-75165000D02*
X152840000Y-76965000D01*
X152840000Y-76965000D02*
X151900000Y-76965000D01*
X152840000Y-83635000D02*
X152840000Y-81835000D01*
X154440000Y-75165000D02*
X152840000Y-75165000D01*
X154440000Y-83635000D02*
X152840000Y-83635000D01*
X157310000Y-76435000D02*
X157310000Y-82365000D01*
%TD*%
M02*
