%TF.GenerationSoftware,KiCad,Pcbnew,8.0.8*%
%TF.CreationDate,2025-11-14T22:35:10+01:00*%
%TF.ProjectId,Pomiar pr_du,506f6d69-6172-4207-9072-0564752e6b69,rev?*%
%TF.SameCoordinates,Original*%
%TF.FileFunction,Copper,L1,Top*%
%TF.FilePolarity,Positive*%
%FSLAX46Y46*%
G04 Gerber Fmt 4.6, Leading zero omitted, Abs format (unit mm)*
G04 Created by KiCad (PCBNEW 8.0.8) date 2025-11-14 22:35:10*
%MOMM*%
%LPD*%
G01*
G04 APERTURE LIST*
G04 Aperture macros list*
%AMRoundRect*
0 Rectangle with rounded corners*
0 $1 Rounding radius*
0 $2 $3 $4 $5 $6 $7 $8 $9 X,Y pos of 4 corners*
0 Add a 4 corners polygon primitive as box body*
4,1,4,$2,$3,$4,$5,$6,$7,$8,$9,$2,$3,0*
0 Add four circle primitives for the rounded corners*
1,1,$1+$1,$2,$3*
1,1,$1+$1,$4,$5*
1,1,$1+$1,$6,$7*
1,1,$1+$1,$8,$9*
0 Add four rect primitives between the rounded corners*
20,1,$1+$1,$2,$3,$4,$5,0*
20,1,$1+$1,$4,$5,$6,$7,0*
20,1,$1+$1,$6,$7,$8,$9,0*
20,1,$1+$1,$8,$9,$2,$3,0*%
G04 Aperture macros list end*
%TA.AperFunction,SMDPad,CuDef*%
%ADD10RoundRect,0.237500X0.237500X-0.250000X0.237500X0.250000X-0.237500X0.250000X-0.237500X-0.250000X0*%
%TD*%
%TA.AperFunction,SMDPad,CuDef*%
%ADD11RoundRect,0.237500X-0.237500X0.250000X-0.237500X-0.250000X0.237500X-0.250000X0.237500X0.250000X0*%
%TD*%
%TA.AperFunction,SMDPad,CuDef*%
%ADD12RoundRect,0.237500X0.250000X0.237500X-0.250000X0.237500X-0.250000X-0.237500X0.250000X-0.237500X0*%
%TD*%
%TA.AperFunction,ComponentPad*%
%ADD13C,1.574800*%
%TD*%
%TA.AperFunction,SMDPad,CuDef*%
%ADD14RoundRect,0.150000X0.150000X-0.825000X0.150000X0.825000X-0.150000X0.825000X-0.150000X-0.825000X0*%
%TD*%
%TA.AperFunction,SMDPad,CuDef*%
%ADD15RoundRect,0.100000X0.100000X-0.225000X0.100000X0.225000X-0.100000X0.225000X-0.100000X-0.225000X0*%
%TD*%
%TA.AperFunction,SMDPad,CuDef*%
%ADD16RoundRect,1.300000X-3.075000X1.300000X-3.075000X-1.300000X3.075000X-1.300000X3.075000X1.300000X0*%
%TD*%
%TA.AperFunction,SMDPad,CuDef*%
%ADD17RoundRect,1.300000X-3.075000X-1.300000X3.075000X-1.300000X3.075000X1.300000X-3.075000X1.300000X0*%
%TD*%
%TA.AperFunction,ComponentPad*%
%ADD18C,9.000000*%
%TD*%
%TA.AperFunction,SMDPad,CuDef*%
%ADD19RoundRect,0.237500X-0.300000X-0.237500X0.300000X-0.237500X0.300000X0.237500X-0.300000X0.237500X0*%
%TD*%
%TA.AperFunction,SMDPad,CuDef*%
%ADD20RoundRect,0.150000X-0.700000X0.150000X-0.700000X-0.150000X0.700000X-0.150000X0.700000X0.150000X0*%
%TD*%
%TA.AperFunction,SMDPad,CuDef*%
%ADD21RoundRect,0.250000X-1.150000X0.250000X-1.150000X-0.250000X1.150000X-0.250000X1.150000X0.250000X0*%
%TD*%
%TA.AperFunction,ViaPad*%
%ADD22C,0.800000*%
%TD*%
%TA.AperFunction,ViaPad*%
%ADD23C,0.300000*%
%TD*%
%TA.AperFunction,Conductor*%
%ADD24C,0.200000*%
%TD*%
%TA.AperFunction,Conductor*%
%ADD25C,1.000000*%
%TD*%
G04 APERTURE END LIST*
D10*
%TO.P,R5,1*%
%TO.N,ADC*%
X149900000Y-85712500D03*
%TO.P,R5,2*%
%TO.N,VOUT*%
X149900000Y-83887500D03*
%TD*%
D11*
%TO.P,R2,1*%
%TO.N,ADC*%
X153480000Y-89405000D03*
%TO.P,R2,2*%
%TO.N,Net-(R2-Pad2)*%
X153480000Y-91230000D03*
%TD*%
D12*
%TO.P,R6,1*%
%TO.N,Net-(C1-Pad1)*%
X144012500Y-83900000D03*
%TO.P,R6,2*%
%TO.N,GND 5V*%
X142187500Y-83900000D03*
%TD*%
D13*
%TO.P,J1,1,1*%
%TO.N,+5VDC*%
X149198500Y-101860400D03*
%TO.P,J1,2,2*%
%TO.N,GND 5V*%
X146198501Y-101860400D03*
%TD*%
D11*
%TO.P,R4,1*%
%TO.N,Net-(U2-V-)*%
X153480000Y-97387500D03*
%TO.P,R4,2*%
%TO.N,GND 5V*%
X153480000Y-99212500D03*
%TD*%
D14*
%TO.P,U1,1,-*%
%TO.N,GND 24V*%
X140690000Y-94450000D03*
%TO.P,U1,2,GND*%
%TO.N,GND 5V*%
X141960000Y-94450000D03*
%TO.P,U1,3,REF2*%
X143230000Y-94450000D03*
%TO.P,U1,4,GND*%
X144500000Y-94450000D03*
%TO.P,U1,5*%
%TO.N,Net-(U2-+)*%
X144500000Y-89500000D03*
%TO.P,U1,6,V+*%
%TO.N,+5VDC*%
X143230000Y-89500000D03*
%TO.P,U1,7,REF1*%
%TO.N,GND 5V*%
X141960000Y-89500000D03*
%TO.P,U1,8,+*%
%TO.N,+24VDC*%
X140690000Y-89500000D03*
%TD*%
D15*
%TO.P,U2,1,+*%
%TO.N,Net-(U2-+)*%
X149350000Y-90950000D03*
%TO.P,U2,2,V-*%
%TO.N,Net-(U2-V-)*%
X150000000Y-90950000D03*
%TO.P,U2,3,-*%
%TO.N,GND 5V*%
X150650000Y-90950000D03*
%TO.P,U2,4*%
%TO.N,ADC*%
X150650000Y-89050000D03*
%TO.P,U2,5,V+*%
%TO.N,+5VDC*%
X149350000Y-89050000D03*
%TD*%
D16*
%TO.P,R1,1*%
%TO.N,+24VDC*%
X124000000Y-86500000D03*
D17*
%TO.P,R1,2*%
%TO.N,GND 24V*%
X124000000Y-97500000D03*
D18*
%TO.P,R1,3*%
%TO.N,N/C*%
X124000000Y-75500000D03*
%TO.P,R1,4*%
X124000000Y-108500000D03*
%TD*%
D19*
%TO.P,C1,1*%
%TO.N,Net-(C1-Pad1)*%
X146037500Y-83900000D03*
%TO.P,C1,2*%
%TO.N,VOUT*%
X147762500Y-83900000D03*
%TD*%
D11*
%TO.P,R3,1*%
%TO.N,Net-(R2-Pad2)*%
X153480000Y-93387500D03*
%TO.P,R3,2*%
%TO.N,Net-(U2-V-)*%
X153480000Y-95212500D03*
%TD*%
D20*
%TO.P,REF\u002A\u002A,1*%
%TO.N,N/C*%
X152750000Y-77525000D03*
%TO.P,REF\u002A\u002A,2*%
X152750000Y-78775000D03*
%TO.P,REF\u002A\u002A,3*%
X152750000Y-80025000D03*
%TO.P,REF\u002A\u002A,4*%
%TO.N,VOUT*%
X152750000Y-81275000D03*
D21*
%TO.P,REF\u002A\u002A,MP*%
%TO.N,N/C*%
X156100000Y-75675000D03*
X156100000Y-83125000D03*
%TD*%
D22*
%TO.N,*%
X129000000Y-89000000D03*
X119000000Y-88000000D03*
X129000000Y-85000000D03*
X119000000Y-89000000D03*
X129000000Y-88000000D03*
X119000000Y-87000000D03*
X129000000Y-87000000D03*
X119000000Y-84000000D03*
X125500000Y-100750000D03*
X122500000Y-83250000D03*
X119000000Y-86000000D03*
X119000000Y-97000000D03*
X128994549Y-86000000D03*
X129000000Y-95000000D03*
X129000000Y-99000000D03*
X125500000Y-83250000D03*
X129000000Y-98000000D03*
X128994549Y-97000000D03*
X124000000Y-83250000D03*
X129000000Y-100000000D03*
X124000000Y-100750000D03*
X119000000Y-95000000D03*
X122500000Y-100750000D03*
X119000000Y-100000000D03*
X129000000Y-96000000D03*
X127000000Y-83250000D03*
X121000000Y-100750000D03*
X119000000Y-85000000D03*
X119000000Y-96000000D03*
X119000000Y-98000000D03*
X119000000Y-99000000D03*
X127000000Y-100750000D03*
X121000000Y-83250000D03*
X129000000Y-84000000D03*
D23*
%TO.N,+5VDC*%
X149400000Y-89900000D03*
%TD*%
D24*
%TO.N,GND 5V*%
X141960000Y-84127500D02*
X142187500Y-83900000D01*
X144500000Y-94450000D02*
X147474999Y-94450000D01*
X141960000Y-89500000D02*
X141960000Y-84127500D01*
X147474999Y-94450000D02*
X152237499Y-99212500D01*
X152237499Y-99212500D02*
X153480000Y-99212500D01*
X150650000Y-91274999D02*
X150650000Y-90950000D01*
X144500000Y-94450000D02*
X144500000Y-100161899D01*
X144500000Y-100161899D02*
X146198501Y-101860400D01*
X143230000Y-94450000D02*
X141960000Y-94450000D01*
X141960000Y-89500000D02*
X141960000Y-94450000D01*
X147474999Y-94450000D02*
X150650000Y-91274999D01*
X143230000Y-94450000D02*
X144500000Y-94450000D01*
%TO.N,+5VDC*%
X149350000Y-89050000D02*
X149350000Y-89850000D01*
X149350000Y-89850000D02*
X149400000Y-89900000D01*
X143230000Y-88370000D02*
X143600000Y-88000000D01*
X148300000Y-88000000D02*
X149350000Y-89050000D01*
X143230000Y-89500000D02*
X143230000Y-88370000D01*
X143600000Y-88000000D02*
X148300000Y-88000000D01*
D25*
%TO.N,GND 24V*%
X124000000Y-97500000D02*
X124000000Y-93500000D01*
X124000000Y-93500000D02*
X124500000Y-93000000D01*
X124500000Y-93000000D02*
X139240000Y-93000000D01*
X139240000Y-93000000D02*
X140690000Y-94450000D01*
%TO.N,+24VDC*%
X124000000Y-90500000D02*
X124500000Y-91000000D01*
X124000000Y-86500000D02*
X124000000Y-90500000D01*
X124500000Y-91000000D02*
X139190000Y-91000000D01*
X139190000Y-91000000D02*
X140690000Y-89500000D01*
D24*
%TO.N,Net-(R2-Pad2)*%
X153480000Y-93387500D02*
X153480000Y-91230000D01*
%TO.N,ADC*%
X149900000Y-88300000D02*
X150650000Y-89050000D01*
X149900000Y-85712500D02*
X149900000Y-88300000D01*
X150650000Y-89050000D02*
X151005000Y-89405000D01*
X151005000Y-89405000D02*
X153480000Y-89405000D01*
%TO.N,Net-(U2-V-)*%
X151940000Y-93672500D02*
X153480000Y-95212500D01*
X150000000Y-90950000D02*
X150000000Y-90625001D01*
X151025000Y-90325000D02*
X151940000Y-91240000D01*
X153480000Y-97387500D02*
X153480000Y-95212500D01*
X150000000Y-90625001D02*
X150300001Y-90325000D01*
X150300001Y-90325000D02*
X151025000Y-90325000D01*
X151940000Y-91240000D02*
X151940000Y-93672500D01*
%TO.N,Net-(U2-+)*%
X145950000Y-90950000D02*
X149350000Y-90950000D01*
X144500000Y-89500000D02*
X145950000Y-90950000D01*
%TO.N,VOUT*%
X147762500Y-83900000D02*
X149887500Y-83900000D01*
X152750000Y-81275000D02*
X150137500Y-83887500D01*
X150137500Y-83887500D02*
X149900000Y-83887500D01*
X149887500Y-83900000D02*
X149900000Y-83887500D01*
%TO.N,Net-(C1-Pad1)*%
X144012500Y-83900000D02*
X146037500Y-83900000D01*
%TD*%
M02*
