%TF.GenerationSoftware,KiCad,Pcbnew,8.0.8*%
%TF.CreationDate,2025-11-14T22:35:10+01:00*%
%TF.ProjectId,Pomiar pr_du,506f6d69-6172-4207-9072-0564752e6b69,rev?*%
%TF.SameCoordinates,Original*%
%TF.FileFunction,Copper,L2,Bot*%
%TF.FilePolarity,Positive*%
%FSLAX46Y46*%
G04 Gerber Fmt 4.6, Leading zero omitted, Abs format (unit mm)*
G04 Created by KiCad (PCBNEW 8.0.8) date 2025-11-14 22:35:10*
%MOMM*%
%LPD*%
G01*
G04 APERTURE LIST*
%TA.AperFunction,ComponentPad*%
%ADD10C,1.574800*%
%TD*%
%TA.AperFunction,ComponentPad*%
%ADD11C,9.000000*%
%TD*%
%TA.AperFunction,ViaPad*%
%ADD12C,0.800000*%
%TD*%
%TA.AperFunction,ViaPad*%
%ADD13C,0.300000*%
%TD*%
%TA.AperFunction,Conductor*%
%ADD14C,0.200000*%
%TD*%
G04 APERTURE END LIST*
D10*
%TO.P,J1,1,1*%
%TO.N,+5VDC*%
X149198500Y-101860400D03*
%TO.P,J1,2,2*%
%TO.N,GND 5V*%
X146198501Y-101860400D03*
%TD*%
D11*
%TO.P,R1,3*%
%TO.N,N/C*%
X124000000Y-75500000D03*
%TO.P,R1,4*%
X124000000Y-108500000D03*
%TD*%
D12*
%TO.N,*%
X129000000Y-89000000D03*
X119000000Y-88000000D03*
X129000000Y-85000000D03*
X119000000Y-89000000D03*
X129000000Y-88000000D03*
X119000000Y-87000000D03*
X129000000Y-87000000D03*
X119000000Y-84000000D03*
X125500000Y-100750000D03*
X122500000Y-83250000D03*
X119000000Y-86000000D03*
X119000000Y-97000000D03*
X128994549Y-86000000D03*
X129000000Y-95000000D03*
X129000000Y-99000000D03*
X125500000Y-83250000D03*
X129000000Y-98000000D03*
X128994549Y-97000000D03*
X124000000Y-83250000D03*
X129000000Y-100000000D03*
X124000000Y-100750000D03*
X119000000Y-95000000D03*
X122500000Y-100750000D03*
X119000000Y-100000000D03*
X129000000Y-96000000D03*
X127000000Y-83250000D03*
X121000000Y-100750000D03*
X119000000Y-85000000D03*
X119000000Y-96000000D03*
X119000000Y-98000000D03*
X119000000Y-99000000D03*
X127000000Y-100750000D03*
X121000000Y-83250000D03*
X129000000Y-84000000D03*
D13*
%TO.N,+5VDC*%
X149400000Y-89900000D03*
%TD*%
D14*
%TO.N,+5VDC*%
X149198500Y-90101500D02*
X149400000Y-89900000D01*
X149198500Y-101860400D02*
X149198500Y-90101500D01*
%TD*%
M02*
